<?xml version="1.0" encoding="utf-8"?>

<!DOCTYPE svg PUBLIC "-//W3C//DTD SVG 1.1//EN" "http://www.w3.org/Graphics/SVG/1.1/DTD/svg11.dtd">
<svg version="1.1" id="Layer_1" xmlns="http://www.w3.org/2000/svg" xmlns:xlink="http://www.w3.org/1999/xlink" x="0px" y="0px"
	 viewBox="0 0 1070 1841" enable-background="new 0 0 1070 1841" xml:space="preserve">
<g>
	<path d="M268.8487,46.4478c1.12-1.3,2.41-2.43,3.66-3.59c1.26,1.3,2.53,2.58,3.8,3.88c-1.48,1.38-3.43,4.06-1.01,5.6
		c1.68,2.28,4.6,1.04,6.18-0.67c1.38,1.16,2.77,2.32,4.16,3.48c-1.32,1.08-2.64,2.17-3.96,3.25c-1.86-1.61-4.69-2.31-6.49-0.21
		c-1.44,5.52-1.2,11.25-1.18,16.9c-0.05,1.97,1.3,3.55,2.09,5.24c-0.83,1.18-1.67,2.36-2.5,3.54c3.37,1.53,3.54,6.02,0.37,7.91
		c12.59,118.45,25.11,236.92,37.82,355.36c7.11,19.73,14.78,39.3,22.23,58.93c1-3.71,2.23-7.37,2.96-11.14
		c0.36-3.73,0.38-7.49,0.46-11.23c-4.18-2.55-8.31-5.19-12.36-7.93c4.39-3.65,8.81-7.29,13.08-11.08c0.98-2.1,0.87-4.52,1.28-6.76
		c2.67-19.13,5.31-38.26,7.95-57.39c0.09-1.04,0.48-1.95,1.16-2.73c3.94,21.23,7.79,42.49,11.71,63.72
		c5.46,4.94,10.88,9.93,16.34,14.86c-3.93,2.3-7.9,4.52-11.83,6.82c-1.26,0.59-1.91,1.83-2.65,2.92c1.56,2.56,3.99,4.35,6.45,5.99
		c-2.12,4.64-2.85,10.16-6.7,13.81c0.04,2.35,0.31,4.7,0.5,7.06c0.17,5.38,4.51,9.55,4.7,14.95c1.09,4.01-0.66,7.82-1.87,11.56
		c7.54,3.95,15.08,7.88,22.63,11.79c-4.41,3.03-8.84,6.03-13.36,8.89c-0.04,0.77-0.13,2.31-0.17,3.08c1.32,0.96,2.64,1.93,3.97,2.89
		c-1.27,3.93-1.97,8.46-5.88,10.72c0.41,4.98,0.67,9.98,0.96,14.98c-1.16,0.67-2.3,1.35-3.44,2.04c-0.12,3.23-0.33,6.45-0.48,9.69
		c-0.58,0.23-1.75,0.69-2.33,0.91c-0.24,56.55-0.06,113.1-0.12,169.64c0.09,30.21-0.17,60.44,0.13,90.64
		c4.14,10.32,8.66,20.51,13.04,30.75c4.74,2.84,9.39,5.81,14.11,8.68c-0.22,0.74-0.66,2.22-0.87,2.97
		c4.18,2.1299,8.48,4.08,12.57,6.42c0.07,0.67,0.22,2.02,0.3,2.69c4.87,2.54,9.79,4.98,14.63,7.6c-1.8,0.72-3.65,1.29-5.49,1.85
		c-1.17,2.13-2.31,4.27-3.55,6.37c-2.2,0.58-4.66,0.97-6.06,2.99c0.94,1.4,1.89,2.81,2.87,4.2c-3.49,13.33-7.3,26.58-10.99,39.86
		c1.48,0.95,2.96,1.88,4.45,2.85c6.59-9.85,15.46-18.5,26.56-23.04c4.25-1.95,8.83-2.96,13.29-4.3c0.06-9.24,0.65-18.47,0.64-27.7
		c0.09-1.97-1.82-3.37-1.53-5.36c-0.89-0.34-1.78-0.66-2.66-0.96c-0.36-5.76-1.06-11.47-1.41-17.22c3.27-2.1,6.51-4.2401,9.77-6.35
		c3.63-21.63,7.4-43.24,11.1-64.87c0.65-2.93,0.53-6.14,2.09-8.79c4.38,24.45,7.62,49.13,11.99,73.57c2.94,2.35,6.34,4.05,9.5,6.11
		c0.17,4.96,0.28,9.93,0.37,14.9c6.78-7.17,13.51-14.37,20.37-21.47c1.87-1.5,0.94-4.1,1.15-6.15c-2.93-2.31-6.05-4.37-8.85-6.83
		c-0.58-5.76-0.9-11.55-1.26-17.33c3.74-1.1,7.44-2.37,11.15-3.6c-0.01-1.79,0-3.5601,0.01-5.33c3.86-1.31,7.69-2.69,11.53-4.04
		c-0.01-3.95-0.14-7.89-0.14-11.83c-2.36-0.11-4.7599,0.07-7.06-0.46c-0.56-6.09-0.71-12.21-1.36-18.3
		c3.45-2.11,7.0399-3.97,10.45-6.16c5.17-36.86,10.77-73.66,16.09-110.5099c0.21-1.6801,0.4901-3.35,1.14-4.92
		c0.87,2.57,1.12,5.29,1.51,7.97c5.25,35.87,10.55,71.72,15.75,107.6c3.37,1.97,6.75,3.93,10.19,5.79
		c-0.22,6.25-0.86,12.48-1.15,18.74c-2.35,0.1-4.69,0.18-7.02,0.24c-0.11,3.96-0.22,7.92-0.2,11.89c3.92,1.39,7.94,2.55,11.72,4.33
		c-0.03,1.71-0.0099,3.45,0.04,5.19c3.73,1.11,7.47,2.23,11.09,3.69c-0.8,5.51-0.74,11.1-1.31,16.62c-2.39,3.2-6.67,4.56-9.02,7.78
		c-0.07,1.74-0.56,3.94,0.92,5.28c6.89,7.2401,13.67,14.59,20.7,21.69c0.12-4.91,0.12-9.81,0.24-14.71c3.17-2.2,6.9-3.78,9.69-6.42
		c3.79-22.81,7.29-45.69,10.92-68.53c0.43-1.48-0.06-3.57,1.59-4.38c4.25,24.28,8.24,48.61,12.61,72.87
		c2.64,2.94,6.92,4.17,9.67,7.03c-0.4,5.74-0.89,11.49-1.56,17.22c-0.6,0.13-1.79,0.4-2.39,0.54c0.2,1.78-1.04,3.07-1.7599,4.57
		c-0.36,8.97-0.31,17.96-0.46,26.95c16.07,3.37,30.31,13.46,39.46,27.01c1.61-0.8,3.19-1.66,4.77-2.53
		c-3.47-12.19-6.8-24.41-10.19-36.62c-0.89-2.27,1.56-3.91,2.49-5.69c-1.28-2.37-4.18-2.18-6.19-3.44c-1.3-1.9-2.2599-3.99-3.34-6
		c-1.89-0.58-3.78-1.15-5.65-1.73c4.82-2.77,9.88-5.11,14.74-7.8c0.15-0.96,0.3-1.91,0.46-2.85c4.11-2.05,8.21-4.11,12.32-6.15
		c-0.26-1.02-0.51-2.03-0.75-3.03c4.75-2.87,9.44-5.85,14.17-8.7599c4.28-10.29,8.91-20.44,12.99-30.79
		c0.32-86.66-0.04-173.35,0.04-260.02c-0.58-0.2401-1.73-0.73-2.31-0.98c-0.4-3.26-0.46-6.55-0.62-9.83
		c-1.14-0.65-2.26-1.28-3.37-1.91c0.17-5.14,0.86-10.26,0.68-15.4c-3.8-2.03-4.43-6.48-5.52-10.22c1.19-1.17,2.59-2.1,3.95-3.06
		c-0.12-1.35,0.1-3-1.35-3.66c-4.05-2.8-8.28-5.33-12.21-8.29c7.47-3.82,14.87-7.81,22.37-11.58c-0.44-2.61-1.51-5.0699-1.97-7.65
		c0-4.49,1.05-8.9,3.22-12.82c2.3-4.12,1.76-8.98,2.4-13.49c-4.21-3.25-4.56-9.09-6.85-13.59c2.08-1.53,4.39-2.91,5.86-5.08
		c0.42-1.22-0.11-2.74-1.24-3.35c-4.13-2.52-8.4-4.8-12.55-7.27c5.37-5.08,10.92-9.97,16.34-15c3.54-19.82,7.2599-39.61,10.84-59.43
		c0.24-1.53,0.62-3.03,1.22-4.45c3.87,22.08,6.17,44.45,9.62,66.61c4.1,4.28,9.09,7.61,13.33,11.76
		c-4.06,2.68-8.21,5.21-12.2599,7.91c0.25,3.77,0.05,7.58,0.52,11.35c0.74,3.72,1.94,7.34,2.93,11.01
		c7.19-19.02,14.41-38.03,21.63-57.03c0.6-1.64,0.75-3.39,0.98-5.1c12.44-117.42,24.96-234.83,37.39-352.25
		c-3.29-1.7-3.44-6.45,0.17-7.9c-0.8-1.08-1.63-2.12-2.31-3.26c0.12-1.95,1.91-3.49,1.89-5.5c-0.1-5.65,0.43-11.46-1.38-16.92
		c-1.43-2.56-4.54-0.98-6.45,0.03c-1.35-0.94-2.54-2.06-3.72-3.17c1.34-1.15,2.7-2.29,4.08-3.42c2.3,3.23,6.66,1.83,7.66-1.7
		c-0.85-1.08-1.7-2.16-2.55-3.23c1.26-1.35,2.6-2.64,4.02-3.84c1.24,1.23,2.48,2.45,3.76,3.66c-0.77,1.09-1.6,2.14-2.23,3.31
		c-0.01,1.71,1.62,2.6,2.54,3.81c1.9,0.14,3.49-0.76,4.85-2c1.4,1.16,2.8,2.31,4.21,3.47c-1.35,1.1-2.69,2.2-4.03,3.28
		c-1.84-1.75-4.79-2.34-6.53-0.13c-1.33,5.53-1.14,11.23-1.06,16.87c-0.03,1.93,1.28,3.5,2.03,5.19c-0.81,1.17-1.63,2.33-2.42,3.51
		c3.25,1.61,3.54,6.06,0.3,7.89c10.87,102.12,21.71,204.25,32.58,306.37c1.86,16.6,3.28,33.27,5.48,49.82
		c7.18,19.47,14.7,38.84,22.02,58.27c0.9-3.54,2.01-7.03,2.84-10.59c0.54-3.98,0.48-8.01,0.49-12.01
		c-4.18-2.46-8.1899-5.2-12.3-7.76c4.19-3.59,8.46-7.1,12.63-10.73c1.34-0.97,0.99-2.83,1.37-4.24c2.82-20.96,5.88-41.89,8.61-62.86
		c0.2599,0.22,0.78,0.65,1.04,0.87c3.97,20.85,7.67,41.76,11.54,62.62c5.45,4.97,10.96,9.88,16.32,14.95
		c-4.45,2.66-9.23,4.88-13.41,7.94c-2.16,3.86,3.43,5.5,5.31,7.91c-1.27,3.6-2.69,7.16-4.16,10.68c-0.43,1.18-1.67,1.73-2.5,2.57
		c0.34,3.67,0.26,7.43,1.21,11.01c1.67,4.02,4,7.89,4.16,12.37c0.87,3.66-1,7.09-2,10.51c7.53,4.01,15.1,7.92,22.68,11.83
		c-4.47,3.04-8.93,6.08-13.49,8.97c-0.04,0.72-0.11,2.15-0.14,2.87c1.2599,1.16,3.14,1.9,3.9,3.49c-1.09,3.85-2.08,8.06-5.77,10.27
		c0.3101,5.01,0.76,10.01,0.97,15.04c-1.14,0.61-2.27,1.23-3.38,1.86c-0.09,3.27-0.27,6.53-0.53,9.79c-0.6,0.23-1.8,0.7-2.4,0.93
		c-0.02,60.87,0,121.74-0.01,182.6c0.07,25.65-0.29,51.3-0.06,76.9399c0.84,3.46,2.7,6.58,3.97,9.91c1.23-4.54,0.92-9.54,2.98-13.8
		c1.91,10.22,2.82,20.6,4.47,30.87c0.37,1.54,1.09,2.98,1.72,4.45c4.77,2.8199,9.37,5.9,14.18,8.67c-0.23,0.74-0.68,2.24-0.9,2.98
		c4.07,2.14,8.34,3.92,12.28,6.31c0.26,0.93,0.5,1.88,0.72,2.86c4.86,2.61,9.84,4.98,14.64,7.71c-1.89,0.58-3.77,1.15-5.65,1.72
		c-1.1299,2.13-2.27,4.25-3.46,6.34c-2.22,0.65-4.84,0.94-6.1,3.15c0.94,1.33,1.9,2.69,2.89,4.02
		c-3.52,13.56-7.57,26.98-11.08,40.54c7.34,2.32,14.7,4.59,22.04,6.94c-4.52,8.32-9.44,16.42-13.94,24.76
		c-0.76,2.98,0.28,6.21-0.65,9.2c-2.08,5.4401-4.71,10.6801-6.54,16.22c0.01,16.17,0.44,32.37,0.62,48.5601
		c10.02,2.35,20.05,4.63,30.05,7.0599c-0.12,1.4501-0.22,2.92-0.3,4.4c-1.58,1.9601-3.15,3.92-4.75,5.86
		c3.55,1.3101,7.16,2.49,10.69,3.9c0.03,0.97,0.08,2.9,0.1,3.86c-2.49,0.25-4.29,1.9301-6.2599,3.26
		c-2.6201,0.4401-5.27,0.54-7.89,0.88c0.52,1.8301,2.27,2.78,3.76,3.78c-0.16,2.12-0.1,4.37-0.91,6.39
		c-1.06,1.64-2.47,3.03-3.52,4.6799c-0.3199,2.9301,0.0601,5.9,0.11,8.8501c-0.94,0.3999-1.86,0.8199-2.77,1.26
		c0.03,2.9399,0.03,5.8799,0,8.83c-0.59,0.22-1.76,0.65-2.34,0.87c0.03,30.55,0.15,61.11,0.23,91.67
		c9.22,4.86,18.47,9.6699,27.65,14.59c-0.0699,0.8099-0.23,2.45-0.31,3.27c-6.25,1.83-12.47,3.75-18.74,5.45
		c0.37,3.23,1.26,6.4,1.45,9.6801c-0.26,4.2799-1.07,8.5199-1.49,12.8099c3.07-0.13,6.16-0.27,9.25-0.4
		c-0.72-2.85-1.47-5.6799-2.27-8.49c-0.7-0.14-2.09-0.4099-2.79-0.5399c-0.23-1.0801-0.44-2.15-0.64-3.1901
		c4.92-3.02,9.8-6.09,14.67-9.2c5.1,2.48,10.04,5.2799,15.12,7.83c0.23,0.9,0.4901,1.83,0.7401,2.77c-1.17,0.78-2.38,1.53-3.54,2.33
		c-0.71,4.4701-1.39,8.98-2.9,13.27c-0.96,2.24-0.08,4.62,0.18,6.9301c1.48,10.11,3.03,20.22,4.48,30.35
		c1.64-11.4301,3.08-22.9,4.41-34.36c-0.22-4.92,1.1201-10.24-1.27-14.79c0.79-1.76,1.8-3.42,2.78-5.08
		c0.78,1.5599,2.17,2.9399,2.36,4.76c-0.78,6.6899-0.14,13.47,1.24,20.0499c5.9,32.15,11.77,64.3,17.62,96.4601
		c3.78,3.1399,7.6,6.24,11.41,9.36c0.69,0.73,1.99,1.25,1.9,2.49c-1.43,0.52-2.87,0.97-4.3,1.45c-0.01,0.77-0.04,2.3-0.05,3.0701
		c-0.97,0.63-1.93,1.2799-2.87,1.96c-0.17,6.8099-0.3,13.64-0.47,20.46c-1.48,2.85-4.46,5.29-4.11,8.78
		c0.03,26.61-0.38,53.22-0.12,79.83c1.91,1.39,3.7599,2.86,5.6299,4.3401c0.23,6.24,0.1,12.49,0.38,18.74
		c5.54,1.58,11.0001,3.45,16.4501,5.2999c-0.03,2.8-0.03,5.6001-0.01,8.42c-1.37,1.26-2.7201,2.54-4.0801,3.8
		c-0.0599,18.24,0.38,36.47,0.4,54.71c-0.21,2.24,2.05,3.47,3.34,4.97c0.24,5.75,0.37,11.51,0.54,17.28
		c2.6901,2.28,5.48,4.4299,8.26,6.62c3.16,1.79,2.12,6.11,1.78,9.09c-1.98,2.22-4.4,4-6.5601,6.05c-0.01,1.9299,0,3.87,0.04,5.83
		c1.1799,0.91,2.36,1.8201,3.5599,2.78c-1.1399,1.8-2.88,3.37-3.5299,5.4399c-0.28,14.5901,0.1699,29.1901,0.0299,43.8
		c-0.1599,3.38,0.9501,6.63,1.66,9.92c2.14,9.0299,4.11,18.11,6.26,27.1599c1.5601,6.4301,6.5,12.02,5.8101,18.92
		c-0.04,7.35-0.03,14.7-0.01,22.0601c-342.4901,0.0099-684.9701,0-1027.4601,0c0-7.3501,0.03-14.7001-0.01-22.04
		c-0.68-6.91,4.33-12.5,5.85-18.9501c2.6-11.36,5.31-22.7,7.76-34.08c0.44-15.6899,0.03-31.41,0.34-47.11
		c-1.21-1.6801-2.41-3.35-3.62-5c1.19-1.1,2.55-2.04,3.54-3.3101c0.16-1.7699,0.08-3.5299,0.1-5.2599
		c-2.29-2.1201-4.59-4.2201-6.92-6.28c-0.01-2.4501-0.01-4.89-0.02-7.3101c3.32-2.76,6.83-5.27,10.04-8.13
		c0.83-5.71,0.29-11.5299,0.88-17.25c0.92-1.3199,2.13-2.39,3.24-3.51c-0.1-18.7699,0.53-37.5299,0.51-56.2999
		c-1.35-1.28-2.7-2.54-4.06-3.79c-0.03-2.91-0.03-5.8099,0.04-8.7c5.49-1.6801,10.92-3.52,16.38-5.25
		c0.15-6.05,0.01-12.1001,0.26-18.13c1.53-2.0801,3.88-3.37,5.82-5c-0.15-27.3301-0.08-54.66-0.3-81.98
		c-1.32-2.25-2.98-4.3101-3.99-6.7101c-0.42-6.6799-0.25-13.39-0.63-20.0699c-0.89-0.97-1.98-1.7001-2.98-2.51
		c0.01-0.6901,0.03-2.0701,0.04-2.76c-1.64-0.52-3.27-1.03-4.9-1.52c4.48-3.99,9.19-7.71,13.86-11.47
		c6.43-33.87,12.41-67.8201,18.68-101.72c0.55-5.03,1.34-10.2301,0.05-15.2001c0.86-1.52,1.73-3.02,2.61-4.5
		c1.32,2.37,4.21,5.26,1.47,7.77c-0.79,15.5,2.82,30.72,4.35,46.0701c1.95-10.9701,3.35-22.03,5.06-33.04
		c0.61-2.13-0.37-4.14-0.95-6.13c-1.18-3.6901-1.56-7.5701-2.36-11.34c-1.06-0.55-2.11-1.0801-3.17-1.6001
		c0.07-0.76,0.21-2.2799,0.28-3.0399c5.06-2.7201,10.16-5.36,15.24-8.01c4.92,3.0399,9.79,6.1699,14.74,9.1799
		c-0.17,1.03-0.34,2.0701-0.51,3.13c-0.99,0.23-1.98,0.4701-2.96,0.73c-0.74,2.78-1.48,5.5601-2.19,8.3701
		c3.09,0.1599,6.18,0.2899,9.28,0.4099c-0.47-4.2899-1.23-8.53-1.56-12.83c0.24-3.21,1.04-6.34,1.58-9.5
		c-6.25-1.96-12.56-3.72-18.83-5.58c-0.08-1.1801-0.15-2.3401-0.21-3.4901c9.21-4.6,18.23-9.5699,27.38-14.2999
		c0.62-11.66,0.2-23.34,0.32-35.01c0.03-18.91,0.05-37.8201,0.03-56.72c-0.6-0.25-1.81-0.75-2.41-1c0-3,0-5.99-0.02-8.9701
		c-0.65-0.22-1.95-0.6699-2.6-0.8899c0.07-2.9501,0.15-5.89,0.26-8.8101c-2.93-3-4.87-6.63-4.9-10.91
		c1.59-1.12,3.17-2.2799,4.27-3.8999c-2.74-0.65-5.59-0.5801-8.33-1.1801c-1.83-1.4401-3.73-2.84-6.1-3.1801
		c0.09-1.33,0.18-2.6499,0.27-3.95c3.49-1.28,6.98-2.53,10.5-3.72c-1.49-2.02-3.07-3.98-4.69-5.89c-0.07-1.52-0.14-3.02-0.21-4.5
		c10.02-2.39,20.06-4.65,30.07-7.0701c0.04-16.1499,0.6-32.2999,0.52-48.4399c-1.75-5.73-4.7-11.03-6.61-16.7
		c-0.97-3.26,0.65-6.9901-1.17-10.01c-4.49-7.8101-8.93-15.66-13.38-23.5001c7.09-2.28,14.21-4.48,21.31-6.74
		c-3.73-13.44-7.25-26.96-11.29-40.31c0.94-1.51,1.93-2.98,2.94-4.43c-1.19-2.42-4.07-2.35-6.14-3.49c-1.28-1.91-2.25-4-3.34-6.01
		c-1.85-0.55-3.69-1.12-5.41-1.97c4.81-2.6,9.72-5,14.53-7.6c0.1-0.7,0.29-2.1,0.38-2.8c4.12-2.11,8.27-4.16,12.41-6.23
		c-0.2-0.75-0.59-2.26-0.79-3.01c4.76-2.85,9.43-5.84,14.15-8.76c1.23-3.01,2.93-5.91,3.29-9.19c1.2-8.7,2.33-17.42,3.57-26.12
		c2.15,3.7,1.79,8.21,2.88,12.27c1.36-3.34,3.65-6.55,3.37-10.3101c-0.12-85.83,0.13-171.67-0.14-257.5099
		c-0.62-0.29-1.86-0.87-2.48-1.16c-0.04-3.19-0.21-6.37-0.36-9.55c-1.14-0.66-2.27-1.31-3.4-1.95c0.3-4.98,0.54-9.96,0.95-14.92
		c-3.75-2.35-4.56-6.74-5.91-10.61c1.34-1.11,2.72-2.18,4.11-3.21c-0.12-0.71-0.36-2.12-0.48-2.83c-4.19-3.28-8.86-5.9-13.17-9.02
		c7.54-3.8,14.91-7.91,22.49-11.63c-0.7-3.56-2.65-6.97-1.83-10.68c0.05-4.73,2.84-8.67,4.31-12.9901
		c0.64-3.35,0.71-6.78,1.14-10.15c-4.1-3.41-4.76-9.12-6.81-13.78c1.77-1.28,3.64-2.48,5.14-4.09c1.23-1.12,0.97-3.46-0.51-4.22
		c-4.16-2.58-8.53-4.8-12.66-7.44c5.15-4.62,10.3-9.26,15.37-13.97c1.29-0.99,1.23-2.72,1.59-4.14
		c3.33-18.76,6.91-37.47,10.23-56.22c0.26-1.51,0.56-3.03,1.33-4.37c3.61,22.15,6.3,44.48,9.45,66.71
		c4.44,3.92,9.03,7.66,13.5,11.55c-4.14,2.69-8.34,5.29-12.45,8.02c0.29,4,0.11,8.05,0.75,12.03c0.84,3.42,1.91,6.79,2.58,10.26
		c7.75-19.26,14.86-38.79,22.23-58.2c1.92-14.26,3.06-28.65,4.75-42.96c11.03-104.39,22.19-208.77,33.24-313.16
		c-3.27-1.74-3.42-6.44,0.15-7.94c-0.79-1.08-1.61-2.13-2.3-3.28c0.2-1.96,1.91-3.49,1.89-5.52c-0.19-5.64,0.46-11.46-1.39-16.91
		c-1.41-2.38-4.59-1.3-6.26,0.19c-1.35-1.08-2.69-2.17-4.02-3.26c1.41-1.15,2.81-2.31,4.23-3.46c1.61,1.92,4.74,2.83,6.38,0.42
		C271.9187,50.2978,269.3087,48.2678,268.8487,46.4478 M246.8287,619.6478c1.3-4.22,2.86-8.43,5.35-12.1
		c4.52-6.93,11.88-11.62,19.63-14.15c12.5,2.9,22.86,13.53,25.55,26.18c0.3-16.56-0.09-33.13-0.27-49.69
		c-5.96,0.01-11.92,0.01-17.88,0c-0.04,1.41-0.06,2.83-0.11,4.26c-2.35,1.45-4.67,2.96-7.05,4.37c-2.17-1.52-4.51-2.78-6.58-4.41
		c-0.7-1.2401-0.19-2.86-0.39-4.21c-5.95-0.01-11.91,0-17.86-0.01C247.0387,586.4678,246.8287,603.0577,246.8287,619.6478
		 M771.0187,619.9478c1.04-4.82,3.04-9.43,5.92-13.43c4.57-6.56,11.79-10.62,19.13-13.36c5.02,1.7,9.86,4.1,13.96,7.49
		c5.8799,4.8,9.62,11.79,11.42,19.08c0.14-16.61-0.12-33.23-0.28-49.84c-5.97,0.01-11.95,0-17.92,0.01c0,1.33,0.02,2.68,0.05,4.03
		c-2.31,1.57-4.67,3.06-7,4.59c-2.38-1.44-4.72-2.95-7.06-4.45c-0.04-1.41-0.06-2.8-0.08-4.19c-5.96,0.03-11.91,0.01-17.87,0.01
		C771.1287,586.5778,770.7187,603.2678,771.0187,619.9478 M261.7287,613.0878c-5.06,7.24-5.97,16.38-6.14,24.96
		c0,68.63-0.01,137.26,0,205.89c11.58,0,23.16-0.01,34.75,0.01c0-67.65-0.01-135.29,0-202.94c0.18-8.06-0.36-16.4-3.71-23.85
		c-2.59-5.89-7.71-10.42-13.78-12.47C268.4887,606.4578,264.4087,609.1478,261.7287,613.0878 M785.7487,613.1277
		c-5.25,7.55-5.97,17.07-6.19,25.99c0.02,25.98-0.03,51.97,0.03,77.95c-0.05,3.33-0.05,6.67,0,10.01c-0.05,8.66-0.05,17.33,0,26
		c-0.05,7-0.05,14,0,21c-0.05,6-0.05,12,0,18c-0.07,17.26,0,34.53-0.04,51.79c11.62,0.16,23.25,0.02,34.87,0.07
		c-0.02-67.61-0.01-135.22,0-202.83c0.12-7.66-0.29-15.53-3.21-22.7c-2.45-6.45-7.81-11.62-14.39-13.73
		C792.5187,606.5577,788.3887,609.1478,785.7487,613.1277 M484.9487,953.4877c12.18,7.14,23.1,16.33,32.62,26.7401
		c-0.05-17.77,0-35.55-0.03-53.32C507.9187,937.1578,497.1887,946.5078,484.9487,953.4877 M553.2187,926.8177
		c-0.0601,17.79-0.05,35.59-0.01,53.39c9.54-10.38,20.45-19.49,32.54-26.77C573.5187,946.4377,562.7386,937.1378,553.2187,926.8177
		 M422.1387,1007.7078c-9.72,13.24-14.31,29.66-15.22,45.91c4.99-7,10.09-14.0601,16.92-19.41c8.54-6.64,16.58-13.97,23.71-22.1
		c0.96-8.84-0.25-17.9901-0.06-26.95C437.7887,991.0677,428.7887,998.4178,422.1387,1007.7078 M476.9187,985.2178
		c-0.5,8.91-0.33,17.83-0.47,26.75c6.99,7.42,14.24,14.65,22.35,20.88c7.57,5.6899,13.49,13.22,18.69,21.0699
		c-0.98-15.39-4.94-30.95-13.64-43.86C497.0287,999.7578,487.4387,991.5677,476.9187,985.2178 M623.0887,985.1678
		c-0.25,8.94-0.17,17.9-0.28,26.8499c7.06,7.6201,14.52,14.9,22.77,21.2401c7.33,5.5499,13.03,12.8899,18.05,20.5099
		c-0.73-16.1799-5.38-32.49-14.9-45.7399C641.9786,998.6478,632.9687,991.0677,623.0887,985.1678 M563.4487,1015.5377
		c-6.45,11.7201-9.46,25.05-10.34,38.3201c4.99-7.22,10.26-14.4401,17.25-19.86c8.51-6.6001,16.49-13.91,23.59-22
		c0.44-8.89-0.16-17.85-0.1-26.77C581.3187,992.4478,570.3586,1002.7377,563.4487,1015.5377 M433.9987,1039.8778
		c4.4,4.37,8.79,8.74,13.14,13.1599c0.31-8.59,0.21-17.1799,0.41-25.76C443.0587,1031.4978,438.4487,1035.6078,433.9987,1039.8778
		 M476.8387,1027.2977c0.17,8.5701,0.05,17.15,0.33,25.73c4.14-4.6799,9.35-8.46,12.86-13.6399
		C485.4787,1035.5277,481.2187,1031.3378,476.8387,1027.2977 M623.0287,1027.2178c0.25,8.61,0.16,17.24,0.41,25.86
		c4.44-4.35,8.79-8.78,13.21-13.15C632.1786,1035.6078,627.5386,1031.4878,623.0287,1027.2178 M580.3287,1039.9277
		c4.41,4.3201,8.73,8.74,13.12,13.09c-0.08-8.5699,0.43-17.1299,0.39-25.7
		C589.2587,1031.4377,584.7487,1035.6378,580.3287,1039.9277 M427.9787,1047.8578c-3.62,3.9099-7.69,7.4199-10.89,11.71
		c-4.25,5.22-6.61,12.12-5.21,18.85c10.81,0.02,21.62,0,32.43,0.01c0.47-4,0.54-8.1899-1.13-11.9299
		C439.9987,1058.9678,433.6887,1053.4478,427.9787,1047.8578 M484.4087,1060.6577c-3.77,5.03-5.71,11.5-4.42,17.74
		c10.8,0.05,21.61,0.01,32.41,0.02c0.92-4.5,0.38-9.26-1.72-13.37c-3.27-6.8099-9.25-11.65-14.21-17.15
		C492.0487,1051.7278,487.9187,1055.9678,484.4087,1060.6577 M560.8486,1063.2977c-2.8199,4.5-3.5099,9.9301-2.72,15.12
		c10.84-0.02,21.68,0.05,32.52-0.02c0.56-4.11,0.43-8.4199-1.34-12.23c-3.11-7.4299-9.54-12.6-14.86-18.38
		C569.6387,1052.6877,564.3586,1057.3077,560.8486,1063.2977 M629.4186,1062.5778c-3.02,4.66-4.17,10.37-3.14,15.84
		c10.84,0,21.68,0.04,32.53-0.02c0.57-4.1,0.39-8.37-1.32-12.1799c-3.17-7.38-9.44-12.67-14.87-18.34
		C637.8787,1052.4377,632.9786,1056.9878,629.4186,1062.5778 M427.1487,1138.0377c0.24,17.3201,0.16,34.65,0.32,51.9701
		c4.38-20.0601,14.15-39.75,31.18-51.9601C448.1487,1138.0277,437.6487,1138.0477,427.1487,1138.0377 M469.8187,1138.1577
		c4.37,3.14,8.32,6.8501,11.89,10.89c10.03,11.27,15.5,25.6901,19.2,40.11c0.29-17.01,0.16-34.0399,0.39-51.0499
		C490.7987,1138.0277,480.3087,1137.9478,469.8187,1138.1577 M572.3887,1138.0477c0.37,17.2001-0.32,34.4601,0.63,51.64
		c3.84-20.02,14.02-39.46,30.81-51.5499C593.3486,1137.9277,582.8687,1138.0878,572.3887,1138.0477 M614.9587,1138.2977
		c17.07,11.62,26.67,31.3101,31.03,51c0.61-17.0599,0.25-34.1599,0.48-51.23
		C635.9687,1138.1577,625.4487,1137.7478,614.9587,1138.2977 M596.6487,1166.9578c6.08,8.97,9.7599,19.39,11.74,30
		c2.16-10.67,6.17-20.95,11.94-30.1901c-3.55-5.2999-7.44-10.3799-11.58-15.23
		C604.4387,1156.4478,600.2687,1161.5078,596.6487,1166.9578 M453.3387,1166.7677c5.85,9.1901,9.58,19.52,12.13,30.0701
		c1.68-10.61,5.55-20.95,11.59-29.87c-3.65-5.46-7.81-10.54-12.16-15.4401
		C460.8187,1156.4177,456.8887,1161.4578,453.3387,1166.7677 M256.7387,1172.7578c4.84,4.63,8.91,10,12.49,15.6499
		c0.1-10.4399,0.05-20.87,0.02-31.2999C265.6887,1162.7578,261.6887,1168.2278,256.7387,1172.7578 M291.1787,1157.0978
		c-0.07,10.4-0.05,20.7999-0.01,31.2c3.7-5.5499,7.7-10.9299,12.51-15.58C298.6887,1168.2378,294.7487,1162.7278,291.1787,1157.0978
		 M779.7986,1172.7178c4.84,4.67,8.91,10.0699,12.56,15.72c0.09-10.5,0.04-20.99,0.02-31.48
		C788.8187,1162.6577,784.8586,1168.2478,779.7986,1172.7178 M814.2087,1157.1178c-0.03,10.4299-0.06,20.87,0.02,31.3099
		c3.61-5.64,7.69-11.01,12.51-15.6799C821.7587,1168.2378,817.8387,1162.7178,814.2087,1157.1178 M334.6087,1172.8478
		c4.63,2.83,8.62,6.53,12.44,10.36c0.05-6.98,0-13.95,0.02-20.91C343.3787,1166.3177,339.1387,1169.8077,334.6087,1172.8478
		 M213.3387,1162.2877c0.03,7.01,0.01,14.02,0.01,21.04c3.7-4.04,7.98-7.47,12.44-10.62
		C221.1487,1169.8678,217.0787,1166.2078,213.3387,1162.2877 M736.5087,1162.3678c-0.01,6.9399-0.01,13.88,0.01,20.83
		c3.72-3.88,7.75-7.48,12.33-10.3099C744.3887,1169.8077,740.1987,1166.3478,736.5087,1162.3678 M857.6686,1172.7478
		c4.53,3.0199,8.7,6.5499,12.45,10.51c-0.01-6.9701-0.05-13.9401,0.02-20.9
		C866.3787,1166.2578,862.2986,1169.8977,857.6686,1172.7478 M467.2787,1215.5878c8.45,0.03,16.91-0.01,25.37,0.02
		c0.27-15.65-4.07-31.35-12.56-44.51C471.7287,1184.3278,467.6787,1200.0177,467.2787,1215.5878 M588.6987,1179.9377
		c-5.31,11.0701-7.82,23.4-7.69,35.66c8.46,0,16.92,0,25.38,0c-0.34-15.48-4.44-31-12.55-44.23
		C591.4687,1173.6078,590.2986,1177.0577,588.6987,1179.9377 M623.1086,1171.1178c-8.13,13.34-12.33,28.89-12.68,44.47
		c8.48,0,16.95,0.05,25.43-0.02C635.9186,1199.9678,631.9086,1184.1178,623.1086,1171.1178 M437.8287,1215.5878
		c8.48,0.01,16.95,0.02,25.42,0c-0.35-15.62-4.57-31.2-12.72-44.5601C441.9287,1184.1677,437.6487,1199.9177,437.8287,1215.5878
		 M229.3187,1199.6278c-4.37,7.38-4.96,16.13-5.53,24.49c11.13-0.01,22.25,0,33.38,0c-0.56-7.02-0.89-14.26-3.73-20.8
		c-2.64-6.51-7.63-11.67-12.9-16.14C236.1387,1190.6477,232.1287,1194.7378,229.3187,1199.6278 M308.2587,1200.6378
		c-3.97,7.12-4.29,15.4299-5.05,23.36c11.13,0.26,22.28,0.0499,33.42,0.11c-0.5-6.15-0.75-12.4301-2.76-18.3301
		c-2.44-7.5599-7.8-13.8099-14-18.6C315.3787,1191.0577,311.0187,1195.2977,308.2587,1200.6378 M751.6487,1200.9678
		c-3.78,7.1-4.17,15.29-4.79,23.14c11.12,0.02,22.25,0.01,33.38,0.01c-0.64-7.25-0.89-14.77-4.02-21.48
		c-2.72-6.2001-7.51-11.17-12.63-15.4701C758.7986,1190.9578,754.4687,1195.4978,751.6487,1200.9678 M831.4286,1200.4778
		c-4,7.2-4.56,15.59-5.08,23.64c11.09-0.01,22.1801,0,33.28,0c-0.36-6.4501-0.74-13.03-2.97-19.14
		c-2.58-7.2001-7.71-13.27-13.79-17.79C838.4587,1191.0377,834.1686,1195.2178,831.4286,1200.4778 M437.8387,1220.7777
		c-0.03,17.3401,0,34.6801-0.01,52.02c8.35,0.02,16.7-0.0699,25.06,0.05c0.16-17.35,0.02-34.7001,0.07-52.05
		C454.5887,1220.7777,446.2087,1220.8077,437.8387,1220.7777 M467.5087,1220.7877c-0.03,17.3,0.07,34.6001-0.05,51.9
		c8.42,0.25,16.84,0.02,25.26,0.12c0.17-17.34,0.02-34.6799,0.07-52.02C484.3587,1220.7877,475.9387,1220.7877,467.5087,1220.7877
		 M580.9387,1272.7977c8.41-0.0599,16.83,0.1,25.25-0.08c-0.16-17.3101-0.03-34.62-0.07-51.9301c-8.38-0.01-16.75,0.04-25.12-0.0299
		C580.8687,1238.0978,580.9886,1255.4478,580.9387,1272.7977 M610.8287,1220.7877c-0.01,17.3401-0.02,34.67,0,52.01
		c8.38-0.0499,16.76,0.0801,25.14-0.0699c-0.11-17.3201-0.02-34.63-0.05-51.9501
		C627.5587,1220.7977,619.1887,1220.7777,610.8287,1220.7877 M437.4587,1278.4978c0.04,10.36,0.02,20.72,0.01,31.09
		c8.61,0.0699,17.23,0.02,25.84,0.03c-0.02-10.4-0.01-20.79-0.01-31.1801C454.6887,1278.4678,446.0687,1278.3678,437.4587,1278.4978
		 M467.2187,1278.4578c0,10.38,0,20.77-0.01,31.15c8.64,0.01,17.27,0.03,25.91,0c-0.03-10.39,0-20.78-0.01-31.17
		C484.4787,1278.4377,475.8487,1278.4177,467.2187,1278.4578 M580.8187,1278.4177c-0.35,10.4,0.08,20.8101-0.02,31.2101
		c8.54-0.01,17.08-0.01,25.62-0.01c0.03-10.39,0-20.79,0.01-31.1801C597.8887,1278.4277,589.3486,1278.4578,580.8187,1278.4177
		 M610.3687,1278.4478c0.02,10.38,0.01,20.77,0,31.16c8.63,0.03,17.26,0,25.89,0.02c0.01-10.4,0-20.79,0.01-31.1801
		C627.6287,1278.4277,618.9987,1278.4377,610.3687,1278.4478 M253.0387,1306.3077c5.12-10.78,13.94-19.65,24.52-25.11
		c-8.02,0.1-16.03-0.41-24.04,0.02C253.3487,1289.5778,253.1487,1297.9478,253.0387,1306.3077 M284.1887,1281.1877
		c10.42,5.5601,19.41,14.23,24.3,25.0701c0.17-8.3601-0.27-16.7201-0.32-25.0701
		C300.1687,1281.1577,292.1787,1281.1577,284.1887,1281.1877 M776.9086,1281.1477c-0.22,8.4-0.37,16.8-0.58,25.2001
		c5.19-10.75,13.98-19.67,24.56-25.16C792.8887,1281.1577,784.8987,1281.1477,776.9086,1281.1477 M807.4387,1281.2378
		c10.59,5.36,19.26,14.2999,24.53,24.9099c0.0099-8.4099-0.44-16.7999-0.58-25.2
		C823.4086,1281.3977,815.4186,1281.0177,807.4387,1281.2378 M268.7087,1311.2078c-5.32,9.36-5.95,20.66-4.7,31.12
		c10.69-0.1899,21.38-0.03,32.06-0.09c-0.11-7.36,0.67-14.89-1.43-22.0601c-2.13-8.61-7.65-16.12-14.85-21.21
		C275.4487,1302.3778,271.3887,1306.3177,268.7087,1311.2078 M789.4687,1316.8177c-3.2,8.11-2.42,16.92-2.39,25.4401
		c10.73,0,21.45-0.0601,32.18,0.0299c0.11-8.5299,0.85-17.37-2.33-25.49c-2.46-7.26-7.67-13.13-13.56-17.84
		C797.0986,1303.3378,792.0187,1309.5577,789.4687,1316.8177 M436.8887,1314.6877c0.01,6.67,0,13.34,0,20.02
		c18.74,0,37.48,0.01,56.22-0.01c-0.01-6.6801,0-13.35,0-20.01C474.3687,1314.6978,455.6287,1314.6877,436.8887,1314.6877
		 M580.7986,1314.6978c-0.28,6.66,0,13.33-0.03,20c18.73,0.01,37.46,0.03,56.2-0.01c-0.02-6.67-0.02-13.34-0.01-20
		C618.2386,1314.6978,599.5187,1314.6877,580.7986,1314.6978 M263.5787,1344.2578c-0.07,13.38-0.01,26.7599-0.03,40.1399
		c10.85,0.05,21.69,0.01,32.54,0.02c0.01-13.4-0.01-26.8099,0-40.21C285.2587,1344.2478,274.4187,1344.1677,263.5787,1344.2578
		 M787.0187,1344.2178c0.02,13.4-0.01,26.8099,0.02,40.22c10.77-0.04,21.54-0.01,32.31-0.01c0.04-13.41-0.02-26.8099,0.02-40.21
		C808.5887,1344.2078,797.7986,1344.2178,787.0187,1344.2178 M263.6187,1386.3878c0.03,6.97-0.42,13.98,0.26,20.9299
		c10.73-0.12,21.46-0.03,32.19-0.05c0.05-6.95-0.01-13.8999,0.04-20.84C285.2787,1386.3378,274.4487,1386.4077,263.6187,1386.3878
		 M787.0187,1386.3977c0.06,6.9601-0.1,13.9301,0.09,20.9c10.72-0.0599,21.44-0.0599,32.17,0c0.18-6.98,0.03-13.95,0.08-20.9099
		C808.5787,1386.3977,797.7986,1386.3678,787.0187,1386.3977 M263.5587,1409.2278c-0.02,21.59,0,43.1799-0.01,64.78
		c10.85,0.1499,21.7,0.0199,32.55,0.0699c-0.02-21.64-0.01-43.27-0.01-64.9
		C285.2487,1409.1978,274.3987,1409.0978,263.5587,1409.2278 M787.0287,1409.1677c-0.01,21.64,0.0099,43.27-0.01,64.9
		c10.78,0,21.57,0.02,32.36-0.01c-0.05-21.63-0.01-43.26-0.02-64.89C808.5787,1409.1777,797.7986,1409.1677,787.0287,1409.1677
		 M524.3087,1532.5778c1.61-0.08,2.9-1.22,4.42-1.63c10.77-3.62,22.66-2.45,33.03,1.9401c-6.22-4.05-12.37-8.3101-19.06-11.53
		C536.2487,1524.5277,530.2587,1528.5677,524.3087,1532.5778 M504.5387,1554.0177c-9.15,17.13-4.38,40.13,10.84,52.2001
		c13.77,11.71,35.38,13.04,50.31,2.77c14.21-8.8101,21.87-26.67,18.75-43.0601c-2.79-17.01-16.94-31.35-33.91-34.4
		C532.4086,1527.6978,512.7087,1537.4678,504.5387,1554.0177 M578.5587,1546.8678c5.4,7.97,8.84,17.45,8.48,27.1699
		c0.09,18.62-13.05,36.4501-30.93,41.7001c18.8,0.39,37.63,0.0399,56.44,0.1899
		C610.4186,1589.6877,597.7787,1564.7378,578.5587,1546.8678 M472.9087,1615.9578c18.67-0.1801,37.35,0.11,56.03-0.16
		c-15.56-4.6599-27.74-18.6899-30.36-34.7c-2.11-11.39,0.73-23.3101,6.96-32.98
		C487.1087,1565.9478,474.9887,1590.3177,472.9087,1615.9578 M254.9087,1621.8478c0,22.89,0.01,45.78-0.01,68.6699
		c6.13,0.03,12.26,0.01,18.39,0.01c0-22.8999,0.05-45.7999-0.01-68.7C267.1487,1621.8478,261.0287,1621.8177,254.9087,1621.8478
		 M290.8687,1621.8478c-0.04,22.88,0.05,45.77-0.05,68.65c6.09,0.0699,12.18,0.01,18.27,0.0399c0.01-22.8999,0-45.7899,0.01-68.6899
		C303.0187,1621.8177,296.9387,1621.8278,290.8687,1621.8478 M775.4886,1621.8478c-0.01,22.89,0,45.78,0,68.6799
		c6.14,0.02,12.29,0,18.44,0.01c-0.01-22.8999,0.01-45.7999-0.01-68.7C787.7787,1621.8378,781.6287,1621.8177,775.4886,1621.8478
		 M811.3087,1621.8478c0,22.89-0.01,45.79,0.01,68.6899c6.15-0.02,12.3,0.02,18.45-0.02c0.02-22.8899,0-45.7799,0.01-68.6699
		C823.6187,1621.8177,817.4587,1621.8378,811.3087,1621.8478 M471.1287,1632.4277c0.01,45.22,0,90.4301,0,135.65
		c21.44,0.25,42.89,0.02,64.34,0.11c0.55-9.33-0.25-18.6899,0.28-28.03c-0.41-35.9199,0.16-71.88-0.24-107.7699
		C514.0486,1632.4878,492.5887,1632.3878,471.1287,1632.4277 M547.1987,1632.4277c0.02,45.25-0.04,90.5,0.03,135.75
		c21.53-0.16,43.08,0.34,64.6-0.26c-0.05-45.1699,0.07-90.33-0.06-135.49C590.2386,1632.4277,568.7187,1632.4177,547.1987,1632.4277
		z"/>
	<path d="M529.2687,1549.2677c1.51-4.0499,4.59-8.6,9.42-8.5699c2.72-0.17,6.2,0.12,7.7,2.78c2.94,6.15,4.48,12.96,4.2,19.8099
		c4.28-1.5599,10.48-0.2999,12.35,4.25c0.77,4.53-0.01,9.49,2.13,13.7201c3.51,2.7999,6.47,7.11,5.75,11.8199
		c-0.58,4.04-0.7,8.14-0.59,12.24c-1.5099,1.22-3.0099,2.46-4.54,3.67c-10.57,6.08-23.55,8.01-35.32,4.64
		c-7.35-2.13-13.78-6.5801-19.11-11.9701c2.58-6.1599,3.71-12.73,5.11-19.21c2.26-5.3,5.72-9.99,8.89-14.77
		C529.2886,1562.4478,528.3387,1555.4077,529.2687,1549.2677 M531.0287,1550.2478c-0.16,4.95-0.66,9.9099-1.78,14.7699
		c-4.09,7.6001-11.08,14.1201-12.06,23.0801c-0.59,4.45-2.11,8.7-3.57,12.9299c4.75,4.8101,10.58,8.63,17.09,10.6001
		c12.66,3.83,27.13,1.11,37.52-7.1001c-0.14-4.5199,0.27-9,0.78-13.46c-0.49-2.9-2.13-5.4299-4.09-7.54
		c-0.64,0.8201-1.26,1.66-1.87,2.53c0-5.4299-2.12-10.59-1.75-16.04c0.4-3.3099-3.04-4.7899-5.7-5.3199
		c-2.52-1.01-4.5,1.17-6.3199,2.54c-0.44-2.6901-0.86-5.39-0.83-8.1c0.07-4.92-1.79-9.5901-3.48-14.1101
		c-0.97-2.46-4.0601-2.5-6.27-2.35C534.5587,1542.6978,532.3887,1546.9177,531.0287,1550.2478z"/>
	<path d="M475.8687,1637.7178c7.86,0.01,15.72-0.01,23.58,0c-0.02,8.0699-0.01,16.14,0,24.21c-7.86,0.02-15.72,0-23.57,0.01
		C475.8787,1653.8578,475.8887,1645.7877,475.8687,1637.7178 M485.3687,1643.1978c0.01,1.21,0.02,2.4401,0.04,3.6901
		c-1.38,0.09-2.74,0.21-4.1,0.35c0.03,1.2,0.06,2.4199,0.09,3.6599c1.31-0.0299,2.62-0.0399,3.94-0.0199
		c0.02,1.2999,0.03,2.62,0.05,3.97c1.26-0.03,2.52-0.02,3.8,0.02c0-1.3501,0.02-2.67,0.04-3.98c1.28-0.03,2.57-0.03,3.87-0.01
		c0.01-1.24,0.02-2.4701,0.05-3.67c-1.33-0.13-2.65-0.22-3.96-0.28c0-1.27,0-2.52,0.01-3.74
		C487.9187,1643.1577,486.6387,1643.1677,485.3687,1643.1978z"/>
	<path d="M508.7587,1637.7078c7.82,0.02,15.64,0,23.4699,0.01c0.02,8.0599,0.01,16.13,0.01,24.21c-7.83,0.02-15.65,0-23.4699,0.01
		C508.7587,1653.8578,508.7487,1645.7777,508.7587,1637.7078 M518.1987,1643.1777c0,1.22,0,2.47,0.01,3.73
		c-1.34,0.0701-2.66,0.1801-3.98,0.3201c0.02,1.2,0.05,2.4199,0.08,3.65c1.28-0.02,2.57-0.01,3.87,0.0199c0,1.3,0,2.62,0.01,3.9601
		c1.3-0.03,2.6-0.04,3.91-0.02c0.01-1.33,0.02-2.65,0.04-3.9401c1.28-0.0299,2.57-0.0399,3.86-0.0199
		c0.02-1.24,0.04-2.4601,0.07-3.66c-1.34-0.14-2.66-0.24-3.98-0.3101c0.0099-1.26,0.0099-2.51,0.03-3.73
		C521.1387,1643.1777,519.1786,1643.1777,518.1987,1643.1777z"/>
	<path d="M550.6387,1637.7178c7.86-0.01,15.73,0.01,23.6-0.01c0.02,8.0699-0.02,16.14,0.01,24.22c-7.87,0.01-15.73,0.01-23.6,0.01
		C550.6287,1653.8578,550.6586,1645.7877,550.6387,1637.7178 M560.8687,1643.1477c0.02,0.9501,0.05,2.8501,0.07,3.8
		c-1.34-0.01-2.68,0.01-4.01,0.0601c-0.03,1.25-0.04,2.5299-0.05,3.8199c0.82,0.03,2.48,0.09,3.3,0.12
		c1.5,0.6901,0.27,2.73,0.78,3.97c0.97-0.0399,2.89-0.13,3.86-0.1699c0-0.9601,0.01-2.89,0.01-3.8501
		c1.26-0.0199,2.52-0.0499,3.8-0.0099c-0.02-0.9601-0.06-2.8701-0.09-3.8301c-1.38-0.11-2.74-0.21-4.1-0.29
		c0.12-0.87,0.35-2.61,0.47-3.48C563.8987,1643.2478,561.8787,1643.1777,560.8687,1643.1477z"/>
	<path d="M583.5087,1637.7278c7.84-0.02,15.69-0.02,23.53-0.01c0,8.0699,0.01,16.14,0,24.22c-7.85-0.01-15.69,0.02-23.53-0.03
		C583.5087,1653.8478,583.5087,1645.7877,583.5087,1637.7278 M593.6287,1643.3077c-0.04,0.9401-0.1,2.8301-0.14,3.77
		c-1.23-0.0699-2.44-0.11-3.65-0.13c-0.03,0.99-0.07,2.96-0.09,3.95c1.23-0.0399,2.47-0.0599,3.72-0.0699
		c0.04,1.29,0.09,2.6,0.15,3.9399c1.31,0.02,2.64,0.0601,3.97,0.1201c0.0099-1,0.02-3,0.02-4c1.29-0.02,2.59-0.02,3.89-0.01
		c-0.02-1.3101-0.05-2.6001-0.06-3.88c-1.29-0.03-2.57-0.04-3.85-0.03c0-1.3,0-2.58,0-3.84
		C596.2587,1643.1577,594.9387,1643.2178,593.6287,1643.3077z"/>
	<path d="M475.8787,1671.8977c7.85-0.0099,15.71-0.0199,23.56,0c0.02,8.02-0.04,16.04,0.04,24.0601c-7.87,0.09-15.74-0.02-23.6,0.03
		C475.8887,1687.9578,475.8787,1679.9177,475.8787,1671.8977 M485.3787,1677.2078c0,1.27-0.01,2.55-0.01,3.86
		c-1.34,0.04-2.68,0.1-4.01,0.17c0.01,1.22,0.02,2.45,0.03,3.71c0.99,0,2.97-0.01,3.96-0.01c0.01,1.29,0.01,2.6,0.02,3.9301
		c1.26,0,2.53,0.0299,3.81,0.08c0.01-1.35,0.03-2.6899,0.06-4.01c0.96,0.01,2.9,0.01,3.86,0.01c0-1.28,0-2.54,0.01-3.77
		c-0.97,0-2.9,0.02-3.87,0.02c-0.03-1.36-0.05-2.7-0.07-4.01C487.8987,1677.1677,486.6387,1677.1777,485.3787,1677.2078z"/>
	<path d="M508.7687,1672.3578c7.82,0.03,15.6399,0.01,23.4599,0.01c0.01,8.0499,0.01,16.1,0,24.1699
		c-7.82-0.0299-15.65,0.01-23.4699-0.02C508.7687,1688.4578,508.7387,1680.4077,508.7687,1672.3578 M518.2187,1677.7578
		c-0.02,1.2899-0.03,2.6-0.03,3.9299c-1.31-0.03-2.6-0.03-3.89-0.01c-0.01,0.9501-0.02,2.84-0.03,3.79
		c1.31-0.02,2.62-0.01,3.94,0.02c-0.01,1.3099-0.02,2.64-0.02,4c0.98,0,2.94,0.01,3.91,0.02c0-1.37,0-2.7101,0.01-4.02
		c1.3-0.03,2.6-0.04,3.91-0.02c0-0.9401,0-2.8201,0-3.77c-1.31-0.03-2.62-0.05-3.91-0.04c-0.01-1.3199,0-2.61,0.01-3.88
		C521.1487,1677.7777,519.1887,1677.7677,518.2187,1677.7578z"/>
	<path d="M550.6487,1672.3678c7.86,0,15.73,0,23.6,0c-0.01,8.0499,0,16.1-0.01,24.1599c-7.87,0-15.73,0-23.6-0.01
		C550.6487,1688.4678,550.6387,1680.4177,550.6487,1672.3678 M560.8887,1677.7578c-0.01,1.2799,0,2.59,0.02,3.9199
		c-1.34-0.02-2.68-0.02-4.0099,0c-0.01,1.24-0.01,2.51,0.0099,3.8101c1.32-0.03,2.65-0.04,3.9901-0.02
		c-0.01,1.3199-0.01,2.6799,0,4.0599c1.29-0.0599,2.59-0.09,3.91-0.09c-0.02-1.36-0.02-2.7-0.01-4.01
		c0.95,0.02,2.84,0.0701,3.78,0.09c0-1.3099,0-2.6,0.01-3.85c-0.94,0.01-2.83,0.01-3.78,0.01c-0.01-1.3099-0.02-2.6-0.01-3.87
		C563.4886,1677.7677,562.1786,1677.7478,560.8887,1677.7578z"/>
	<path d="M583.5087,1671.9077c7.84-0.0299,15.69-0.0199,23.53-0.01c-0.0099,8.0901,0.04,16.1901-0.03,24.3
		c-7.84-0.66-15.69,0.34-23.52-0.28C583.5287,1687.9077,583.4987,1679.8977,583.5087,1671.9077 M593.6086,1677.3278
		c-0.03,0.99-0.1,2.96-0.13,3.95c-0.91-0.08-2.73-0.22-3.65-0.2999c0.01,1.35,0.04,2.74,0.1,4.15c0.98-0.0601,2.95-0.17,3.94-0.2301
		c-0.1,0.9701-0.29,2.9-0.39,3.8601c1.34,0.0599,2.68,0.1399,4.03,0.24c0.09-1.39,0.18-2.75,0.3-4.0901
		c1.22-0.01,2.45,0.01,3.68,0.05c-0.01-1.29-0.01-2.5601-0.01-3.8c-1.23,0.01-2.45,0.03-3.67,0.0801c-0.11-1.39-0.21-2.76-0.3-4.11
		C596.1987,1677.1677,594.8987,1677.2278,593.6086,1677.3278z"/>
	<path d="M508.7687,1705.4978c7.82-0.01,15.6399,0,23.4599,0c0.01,8.09,0.01,16.1899,0,24.2899c-7.82,0-15.64-0.01-23.4599,0.01
		C508.7487,1721.6877,508.7487,1713.5878,508.7687,1705.4978 M514.8586,1712.2977c-0.01,3.67,0,7.35,0.01,11.04
		c3.68-0.01,7.36-0.01,11.04-0.01c-0.0099-3.6899,0.01-7.37-0.03-11.04C522.1987,1712.2977,518.5287,1712.2977,514.8586,1712.2977z"
		/>
	<path d="M550.6887,1705.4778c7.85,0.0399,15.7-0.01,23.56,0.03c-0.01,8.09-0.01,16.1799-0.01,24.2799c-7.86,0-15.71-0.01-23.57,0
		C550.6387,1721.6877,550.6086,1713.5778,550.6887,1705.4778 M557.0887,1712.2977c0.0099,3.6801-0.01,7.36,0.03,11.05
		c3.67-0.02,7.34-0.02,11.02-0.02c-0.01-3.6899,0-7.36-0.01-11.03C564.4487,1712.2977,560.7687,1712.2877,557.0887,1712.2977z"/>
	<path d="M475.8687,1706.1978c7.86-0.02,15.72-0.03,23.58,0c-0.05,8.1,0.05,16.2-0.05,24.3101c-7.84-0.0901-15.68-0.02-23.52-0.04
		C475.8787,1722.3778,475.8887,1714.2877,475.8687,1706.1978 M485.3887,1711.6078c-0.01,1.28-0.01,2.5699,0,3.9
		c-1.34-0.02-2.68-0.02-4.01,0.0099c0,0.9801,0,2.9301,0,3.91c1.33-0.03,2.67-0.03,4.01-0.01c-0.01,1.28-0.01,2.5801-0.01,3.91
		c0.95,0,2.85,0.01,3.8,0.02c0-1.34,0-2.64,0.02-3.9301c1.29-0.02,2.59-0.01,3.9,0.02c0-1.33,0-2.63,0.02-3.91
		c-1.31-0.0299-2.62-0.0399-3.91-0.0299c-0.02-1.3201-0.02-2.62-0.02-3.9C488.2387,1711.5978,486.3387,1711.6078,485.3887,1711.6078
		z"/>
	<path d="M583.5087,1706.2178c7.84-0.08,15.68-0.01,23.53-0.04c0.01,8.09,0,16.1901,0,24.29c-7.85,0-15.69,0.01-23.53-0.01
		C583.5087,1722.3678,583.4987,1714.2977,583.5087,1706.2178 M593.5887,1711.6577c-0.02,1.27-0.04,2.5601-0.05,3.88
		c-1.2599-0.0399-2.5099-0.0499-3.7599-0.0399c0,0.98-0.01,2.9399-0.01,3.9199c1.23-0.02,2.46-0.0299,3.7-0.01
		c0.1299,1.3,0.27,2.63,0.42,3.9801c1.23-0.05,2.46-0.0701,3.7-0.0601c0-0.98,0.0099-2.92,0.0099-3.89
		c1.28-0.03,2.56-0.04,3.86-0.02c0.01-1.33,0.02-2.63,0.05-3.9c-1.31-0.0199-2.61-0.0199-3.9,0c-0.01-0.99-0.01-2.95-0.02-3.9299
		C596.2487,1711.5878,594.9186,1711.6078,593.5887,1711.6577z"/>
	<path d="M475.8787,1739.7977c7.87-0.01,15.74-0.11,23.61,0.05c-0.11,8.03-0.02,16.0699-0.04,24.1c-7.86,0.02-15.72,0.01-23.58,0.01
		C475.8887,1755.8977,475.8787,1747.8478,475.8787,1739.7977 M485.3987,1745.2378c-0.03,1.2999-0.06,2.62-0.08,3.96
		c-1.33-0.01-2.65,0-3.96,0.05c-0.01,1.1799,0,2.4199,0,3.6599c1.01,0,3.02,0.01,4.03,0.01c-0.01,1.29-0.02,2.61-0.02,3.9401
		c1.26-0.02,2.53,0,3.81,0.0399c0-1.35,0.01-2.6799,0.02-3.98c1.3-0.0299,2.6-0.0299,3.91-0.01c-0.01-1.25-0.01-2.48,0-3.6899
		c-1.3-0.03-2.59-0.03-3.87,0c-0.02-1.36-0.04-2.7001-0.05-4.01C487.9187,1745.1777,486.6487,1745.1877,485.3987,1745.2378z"/>
	<path d="M508.7687,1740.1278c7.82,0.0299,15.6499-0.02,23.4799,0.0299c-0.04,8.04,0.02,16.1001-0.03,24.16
		c-7.82-0.02-15.64-0.01-23.46-0.01C508.7587,1756.2478,508.7487,1748.1877,508.7687,1740.1278 M518.1887,1745.5677
		c0,1.27,0,2.5701,0,3.89c-1.3-0.02-2.61-0.02-3.9,0c0,0.96,0.02,2.87,0.02,3.83c1.29-0.0299,2.59-0.0299,3.89,0
		c-0.01,1.3101,0,2.64,0.01,4c0.97,0,2.93,0,3.9,0c-0.01-1.36-0.01-2.7-0.01-4.01c1.3-0.0199,2.6-0.0199,3.91,0.01
		c0-0.96,0.01-2.87,0.01-3.8199c-1.31-0.03-2.62-0.03-3.91-0.01c-0.01-1.33-0.01-2.64-0.01-3.91
		C521.1287,1745.5477,519.1686,1745.5577,518.1887,1745.5677z"/>
	<path d="M550.6487,1740.1278c7.87,0.0199,15.73,0,23.6,0.01c-0.02,8.0599,0.01,16.12-0.02,24.1799
		c-7.86-0.03-15.73-0.01-23.58-0.01C550.6387,1756.2478,550.6387,1748.1877,550.6487,1740.1278 M560.8887,1745.5778
		c0,1.27,0,2.5601,0,3.88c-1.34-0.02-2.67-0.02-4,0.01c0,1.24,0.01,2.52,0.04,3.83c1.32-0.03,2.64-0.03,3.98-0.01
		c-0.0099,1-0.02,2.99-0.03,3.99c1.2-0.0199,2.4-0.0199,3.61,0c0.09-1.35,0.19-2.6799,0.31-3.98c1.25-0.03,2.5-0.03,3.76-0.01
		c0.02-0.96,0.05-2.87,0.06-3.83c-1.24-0.01-2.48,0.01-3.71,0.0599c-0.16-1.37-0.31-2.7-0.45-4
		C563.2687,1745.5177,562.0787,1745.5377,560.8887,1745.5778z"/>
	<path d="M583.5087,1739.7977c7.84-0.0599,15.69-0.01,23.53-0.02c-0.0099,8.0601,0.02,16.12-0.0099,24.1901
		c-7.84-0.02-15.6801,0.02-23.52-0.03C583.5087,1755.8778,583.5087,1747.8378,583.5087,1739.7977 M593.5587,1745.4978
		c0.06,0.84,0.2,2.5299,0.26,3.37c-0.97,0.0499-2.91,0.14-3.89,0.1799c-0.09,1.26-0.16,2.5601-0.21,3.89
		c0.95-0.03,2.86-0.0699,3.8199-0.1c0.02,1.28,0.03,2.59,0.05,3.91c1.3199,0.0499,2.66,0.1,4,0.2c0-1.37,0-2.71,0.0099-4.03
		c1.29-0.02,2.59-0.0299,3.9-0.01c-0.02-1.26-0.03-2.5-0.03-3.72c-1.21,0-2.42,0.03-3.6201,0.08
		c-0.1299-1.4099-0.25-2.7999-0.35-4.1699C596.1686,1745.1577,594.8387,1745.1877,593.5587,1745.4978z"/>
</g>
</svg>
