<?xml version="1.0" encoding="utf-8"?>

<!DOCTYPE svg PUBLIC "-//W3C//DTD SVG 1.1//EN" "http://www.w3.org/Graphics/SVG/1.1/DTD/svg11.dtd">
<svg version="1.1" id="Layer_1" xmlns="http://www.w3.org/2000/svg" xmlns:xlink="http://www.w3.org/1999/xlink" x="0px" y="0px"
	 viewBox="0 0 2612 1512" enable-background="new 0 0 2612 1512" xml:space="preserve">
<path d="M1279.021,19.752c7.223,0.053,6.137,2.741,10.279,3.033c1.939,0.124,4.197,0.684,5.834-0.727
	c2.177-1.875,5.279-2.699,8.059-1.783c-2.322,1.729-5.274,2.564-7.251,4.735c-1.271,1.492-0.076,3.475,0.323,5.086
	c-0.458,1.568-0.21,3.184,0.14,4.746c0.382,0.011,1.147,0.027,1.53,0.032c-0.054,0.711-0.119,1.422-0.199,2.128
	c-1.072,0.269-2.166,0.35-3.205,0.652c-1.282,1.595-1.331,3.766-1.789,5.678c-0.512,0.566-0.997,1.137-1.465,1.719
	c0.641,0.194,1.304,0.388,1.977,0.587c0.506,0.442,1.029,0.889,1.578,1.331c0.016,0.684,0.027,1.368,0.016,2.058
	c-0.657,0.97-1.735,1.525-2.694,2.123c-0.113,3.582-0.986,7.354,0.259,10.818c-2.066,6.858,1.458,22.028,0.991,27.529
	c-0.119,0.948,0.792,1.546,1.271,2.268c-0.549,0.474-1.088,0.948-1.611,1.428c-0.018,11.235,0.344,10.539,1.552,12.574
	c-1.746,3.267-0.922,10.831-0.016,12.956c0.834,1.673-1.548,11.604,1.573,15.941c-1.692,0.806-1.099,11.108,0.377,14.066
	c-1.525,4.207,0.124,8.684-0.242,13.015c0.296,0.286,0.614,0.576,0.943,0.878c-0.641,2.259-0.996,12.254,0.948,14.432
	c-0.839,1.292-1.31,1.043-0.215,12.676c-0.146,0.98,0.835,1.201,1.519,1.595c-0.372,0.118-0.722,0.248-1.056,0.377
	c-0.636,4.412-0.264,8.986,0.533,13.344c0.463,0.075,1.385,0.226,1.842,0.302c-0.377,0.69-0.808,1.347-1.25,1.988
	c0.167,0.587,0.355,1.174,0.576,1.767c-0.167,0.533-0.291,1.083-0.409,1.627c1.708,1.6,0.523,3.911,0.932,5.921
	c0.027,4.315,1.244,8.582,0.582,12.897c0.431,1.519,1.094,3.362,2.683,4.013c-0.172-0.657-0.328-1.309-0.479-1.95
	c0.35-2.624,0.188-5.285,0.215-7.925c0.7-1.228,0.684-2.624,0.571-3.976l0.846,0.011c-0.156,1.352-0.135,2.737,0.496,3.987
	c-0.221,2.85,0.668,5.657,0.329,8.517c-0.977,7.261,0.678,29.121,0.684,30.152c0.679,1.271,2.139,1.805,3.302,2.559
	c0.081,1.056,0.21,2.117,0.345,3.178c-0.738,0.587-1.449,1.18-2.155,1.789c-0.383,0.027-1.153,0.086-1.535,0.113
	c-0.14,2.123-0.339,4.267-0.043,6.389c0.151,1.481,1.282,2.764,1.078,4.299c-0.916,5.059-0.356,10.214-0.533,15.327
	c1.228,0.296,2.489,0.539,3.669,1.061c-0.092,0.921-0.62,1.719-0.98,2.548c-0.356-0.91-0.62-1.869-1.164-2.667
	c-0.388-0.081-1.169-0.248-1.562-0.334c0.016,0.894,0.022,1.81,0.178,2.71c1.498,1.622,3.755,2.241,5.7,3.205
	c0.808,2.171-0.135,4.455,0.075,6.696c0.161,5.493,2.165,3.136,10.273,3.868c0.975,0.102,1.034,1.277,1.298,2.02
	c-3.243-1.164-6.535,0.318-9.837,0.059c-0.533,1.692-1.692,2.925-3.518,3.13c1.395,0.738,3.399,1.04,3.663,2.925
	c-5.864-1.217-7.146-1.265-7.348,4.746c0.343,7.562-2.697,21.416,7.768,43.108c2.079,0.07,4.175,0.086,6.271,0
	c0.339-0.743,0.673-1.492,1.051-2.22c-0.221,4.778,1.573,9.713-0.032,14.373c-3.661,3.094-4.177-3.805,14.944,54.287
	c1.556,5.093,7.995,9.133,8.803,12.234c4.447,13.901,8.05,20.109,7.036,23.871c-1.492,1.627-0.959,3.997-1.584,5.969
	c-2.855,2.376-1.806,2.3-2.144,11.566c0.016,0.943-0.269,2.591,1.126,2.656c101.171,1.768,92.236,1.281,90.634-3.108
	c1.287-1.659,1.438-3.803,0.83-5.759c-0.706-0.436-1.395-0.878-2.058-1.309c2.213-1.962,3.168-1.464,1.244-4.886
	c0.722-0.355,1.476-0.743,2.29-0.937c0.797,1.374-0.221,2.963,0.135,4.466c1.002,0.248,1.88,0.76,2.252,1.805
	c-2.699,0.275-3.302,3.453-2.489,5.581c0.302,0.221,0.9,0.663,1.202,0.883c-2.546,5.801,0.498,5.475,2.333,9.282
	c0.281,0.603,11.413,14.713,13.123,17.708c1.842,0.286,3.723,0.668,5.608,0.388c0.915-0.82,1.9-6.513,0.323-8.162
	c-0.264-0.905-0.506-1.805-0.733-2.704c0.873-0.269,1.772-0.528,2.667-0.797c0.431-2.801,0.668-5.63,1.061-8.436
	c-1.142-0.835-1.702-2.058-1.697-3.448c0.765-0.232,1.535-0.458,2.338-0.663c0.436-2.947,1.234-5.899,1.131-8.883
	c-0.889-0.948-1.697-1.972-1.789-3.313c0.706-0.102,1.433-0.194,2.176-0.269c0.288-0.731,2.637-15.426,2.71-15.903
	c0.269-1.519-0.684-2.844-0.937-4.277c1.465-3.544,1.913-4.586,2.915-4.116c0.808,1.358,1.519,2.785,2.311,4.17
	c-0.108,1.336-1.799,2.187-1.519,3.653c0,0.001,2.278,16.591,2.279,16.593c1.244,0.172,2.526,0.463,3.151,1.719
	c-0.765,0.242-1.514,0.49-2.252,0.733c-0.707,1.616,0.578,9.354,0.857,10.354c0.873,0.539,1.95,0.571,2.936,0.91
	c-0.027,1.115-1.519,1.11-2.219,1.648c0.016,7.454,1.334,7.762,3.405,10.57c1.228,1.288-1.411,2.117-1.363,3.545
	c0.479,0.431,0.975,0.867,1.487,1.32c-1.765,4.567-1.323,2.971,1.492,8.846c0.786,0.032,1.616,0.081,2.44,0.146
	c0.032,1.406,0.636,2.672,1.131,3.97c-0.393,4.412-0.975,9.002,0.022,13.366c1.347,0.323,2.688,0.83,4.105,0.889
	c1.12-1.449,0.657-3.286,0.609-4.945c0.56-2.069,1.562-4.17,0.959-6.346c-0.409-1.239,1.288-1.842,1.363-3.001
	c0.102-1.25,0.038-2.5,0.038-3.739c-0.377-0.442-0.738-0.878-1.077-1.304c0.479-0.366,0.959-0.733,1.481-1.077
	c1.799-7.48-0.864-4.673,1.293-9.045c0.415,0.582,0.84,1.169,1.282,1.767c-1.535,4.731,0.81,4.3,1.444,7.488
	c-0.199,0.905-0.533,1.789-0.657,2.721c0.232,1.293,2.015,2.419,0.706,3.701c0.727,1.207,0.167,2.51-0.221,3.728
	c0.474,0.334,0.964,0.679,1.476,1.034c-0.539,1.12-0.873,2.343-0.232,3.518c-0.059,0.646-0.102,1.298-0.129,1.966
	c0.183,0.259,0.555,0.77,0.738,1.024c-0.226,0.706-0.819,1.406-0.593,2.198c1.211,5.372-2.933,21.978,4.8,23.041
	c0.065-1.815-0.35-3.566-1.11-5.193c0.894-0.7,1.961-1.455,1.972-2.726c0.409-1.374-0.819-2.338-1.331-3.459
	c0.156-1.244,1.961-1.627,1.945-2.984c0.296-2.494,1.12-5.123,0.043-7.542c0.356-0.727,0.727-1.449,1.126-2.149
	c0.404,0.716,0.84,1.449,1.277,2.187c-1.191,2.704-0.582,5.694-0.086,8.485c0.426,0.361,0.894,0.695,1.401,1.013
	c0.636,1.164-0.016,2.16-0.975,2.85c-0.032,0.883-0.038,1.778-0.022,2.688c0.528,0.55,1.067,1.11,1.627,1.681
	c-0.016,0.35-0.049,1.056-0.059,1.411c-0.609,0.641-1.325,1.309-1.051,2.3c-0.075,1.525,1.816,1.864,2.602,2.936
	c0.048,0.647-0.221,1.277-0.323,1.923c0.216,1.174,0.463,2.349,0.717,3.539c-0.275,1.347-0.819,2.925,0.129,4.164
	c0.674,1.002,9.075,11.189,11.011,12.784c0.242-0.302,0.727-0.9,0.97-1.201c-0.034-1.637-0.649-32.702-0.948-34.117
	c0.463-0.496,0.943-0.975,1.444-1.449c0.668,0.005,1.358,0.016,2.069,0.032c0.091-2.581,0.706-5.112,0.668-7.698
	c-0.943-0.921-1.191-2.16-1.169-3.41c0.652-0.318,1.347-0.614,2.042-0.916c0.78-11.853,1.836-11.482,0.959-15.1
	c-0.485-1.315,0.835-2.29,1.417-3.313c0.539,1.002,1.697,1.993,1.298,3.265c-0.807,3.15,0.725,14.238,0.916,15.246
	c0.528,0.56,1.503,0.916,1.589,1.805c0.393,1.088-0.587,1.891-1.11,2.721c-0.14,2.069-0.065,4.164,0.495,6.179
	c1.131,0.846,2.645,1.557,3.222,2.914c-0.452,2.861-0.598,5.743-0.544,8.641c0.857,0.7,1.832,1.196,2.861,1.681
	c-0.857,0.409-1.713,0.781-2.467,1.331c-0.652,1.309-0.409,2.893,0.022,4.25c0.808,0.598,1.816,0.819,2.764,1.212
	c-0.216,0.862-0.404,1.735-0.571,2.624c-0.264,0.226-0.792,0.69-1.056,0.921c0.188,1.153,0.436,2.311,0.711,3.469
	c0.576,0.366,1.169,0.743,1.783,1.131c-0.932,3.022-1.352,6.459,0.226,9.352c-0.517,2.112-0.959,4.326-0.35,6.475
	c0.668,0.264,1.368,0.56,2.074,0.862c-0.038,1.46-0.043,2.936-0.021,4.412c5.549-0.005,11.114-0.016,16.636-0.7
	c0.043-2.764,0.172-5.522,0.264-8.275c-1.632-1.88,0.647-4.18-0.684-6.185c0.523-2.198,0.722-4.471,1.648-6.551
	c-0.808-0.216-1.632-0.426-2.403-0.614c0.049-0.28,0.151-0.835,0.199-1.115c0.873-0.426,1.999-0.625,2.575-1.508
	c0.145-1.46,0.081-2.947,0.625-4.331c-0.706-0.42-1.411-0.813-2.036-1.277c-0.296-1.341,1.756-1.067,2.591-1.358
	c0.835-2.397,1.131-4.935,1.078-7.461c-0.797-0.56-1.6-1.137-2.349-1.702c0.943-0.436,1.939-0.792,2.963-1.061
	c0.55-2.5,0.673-5.075,1.352-7.547c0.544-2.78,1.621-5.737,0.479-8.506c0.517-0.776,0.813-1.869,1.799-2.193
	c0.792,0.571,1.411,1.336,2.09,2.069c-0.323,0.587-0.63,1.191-0.916,1.799c0.33,2.002,1.962,12.989,2.397,14.082
	c0.959,0.334,2.128,0.275,2.941,1.024c-0.593,1.002-1.977,1.164-2.548,2.128c0.054,2.343,0.409,4.698,0.921,7.003
	c0.743,0.14,1.519,0.296,2.3,0.463c-0.049,0.323-0.14,0.97-0.183,1.298c-2.252,0.916-1.67,3.642-1.422,5.56
	c0.776,0.549,2.295,0.426,2.246,1.713c-0.555,0.544-1.131,1.051-1.681,1.578c2.042,2.909,0.743,6.465,0.657,9.702
	c0.996,1.12,2.914,1.309,3.512,2.801c0.118,1.778-0.221,3.572,0.038,5.355c0.404,0.905,1.578,0.808,2.392,1.158
	c-0.118,1.433-1.821,2.187-1.632,3.669c0.623,8.727,1.624,1.33,2.112,9.627c1.67,1.853,0.097,4.17,0.625,6.303
	c2.026,10.181-0.76,11.681,1.697,15.407c-0.916,2.995,0.706,5.991-0.043,9.007c-0.463,1.724-0.226,3.496,0.264,5.193
	c1.05,0.927,1.837,2.101,2.446,3.378c-0.901,2.633-0.803,9.434,1.277,11.297c-0.587,1.428-1.53,2.968-0.625,4.493
	c0.873-0.113,1.778-0.205,2.694-0.285c0.005,1.88,0.016,3.76,0.065,5.651c0.598,0.496,1.201,0.997,1.826,1.514
	c-0.474,0.334-0.932,0.679-1.368,1.029c0.129,2.424-0.625,5.613,1.853,7.143c-1.358,1.692-1.018,3.841-0.744,5.834
	c0.382,0.356,0.786,0.722,1.212,1.104c-0.307,0.867-0.91,1.74-0.636,2.715c0.469,2.128,0.404,4.342,1.002,6.454
	c-0.226,0.7-0.442,1.406-0.63,2.128c3.97,0.377,8.016,0.56,11.997,0.151c0.523-1.719,0.76-3.539,0.286-5.285
	c-0.789-2.863,2.013-14.904,1.406-18.554c0.296-0.404,0.609-0.792,0.943-1.169c0.409-2.284,0.932-4.687-0.124-6.88
	c0.361-0.415,0.738-0.813,1.142-1.207c0.21-3.324,1.331-6.739,0.178-10.004c0.544-0.797,1.104-1.589,1.681-2.365
	c0.501,0.749,1.007,1.514,1.53,2.284c-0.971,2.925-0.905,8.837,0.943,11.281c-0.776,2.435-0.862,5.317,0.506,7.569
	c-0.582,2.731,0.189,5.732,1.735,8.011c-0.302,0.603-0.641,1.185-0.959,1.783c1.348,15.695,0.153,11.481,1.476,15.978
	c2.171,0.388,4.364,0.684,6.529,1.18c0.873-1.492,1.692-3.092,3.157-4.11c0-8.757,1.476-8.814,0.275-10.952
	c0.846-2.629,2.29-5.592,0.959-8.269c0.215-0.135,0.646-0.399,0.862-0.533c0.286-2.295,1.137-4.687,0.092-6.906
	c0.329-0.388,0.684-0.765,1.061-1.126c0.431-3.308,0.905-6.702,0.21-10.004c0.469-0.743,0.932-1.481,1.438-2.203
	c0.593,0.84,1.196,1.692,1.81,2.548c-0.242,0.695-0.447,1.406-0.646,2.117c1.692,2.343-0.038,5.026,0.474,7.623
	c0.361,0.49,0.738,0.991,1.137,1.514c-0.42,1.131-0.663,2.316-0.776,3.523c0.754,0.005,1.514,0.011,2.3,0.022
	c0.264,2.451,0.221,4.989,1.309,7.278c-0.792,1.692-1.099,3.653,0.151,5.226c0.011,0.361,0.043,1.083,0.054,1.444
	c0.14,0.275,0.426,0.819,0.566,1.094c-0.275,0.932-0.722,1.934-0.232,2.898c1.212,2.99,0.453,6.287,1.25,9.379
	c0,0-0.442,15.072-0.442,15.073c1.519,0.883,3.938,0.91,4.137,3.119c-1.638,0.216-3.184,0.792-4.412,1.912
	c1.25,1.056,2.941,1.185,4.498,1.541c1.228,0.792,2.537,1.508,3.604,2.559c-0.996,0.14-1.999,0.253-2.968,0.393
	c-1.406,1.088-3.173,1.352-4.849,1.719c0.022,7.357-0.697,7.091,3.081,10.591c7.557-0.827,111.205-1.071,112.711-3.044
	c0.366-2.451-0.259-4.956,0.264-7.38c0.884-1.681,1.778-3.356,2.607-5.064c1.115,3.114,1.385,6.438,1.654,9.719
	c1.571-1.295,6.516-25.872,6.723-26.877c5.235-24.842,4.969-18.869,3.83-25.805c0.372-1.153,2.069-1.934,3.076-0.948
	c1.196,0.463,0.673,1.896,0.512,2.85c-1.615,5.69,14.123,72.379,15.892,84.224c-1.04,8.388-0.361,16.889-0.577,25.331
	c-0.21,1.713,0.76,3.178,1.53,4.628c-0.21,1.108-1.419,31.131-0.603,33.735c1.056,2.273,2.882,4.11,3.906,6.427
	c-0.108,1.368-0.506,2.704-0.576,4.094c8.432,7.958,8.692,9.899,12.224,12.18c5.309,7.672,9.713,7.785,12.18,9.045
	c0.248-0.194,0.749-0.582,0.997-0.781c-0.038-1.562-0.48-19.14,0.393-21.727c0.027-0.544,0.07-1.072,0.14-1.589
	c1.557-2.92,5.673-2.063,8.011-0.582c0.453,1.934,0.62,3.916,0.733,5.91c0.416,1.122,0.494-0.716,0.393,32.582
	c0.614,0.382,1.245,0.77,1.902,1.18c0.339,0.016,1.018,0.049,1.352,0.065c0,0.215-0.005,0.652-0.005,0.867
	c-1.024,0.269-2.015,0.576-2.99,0.9c-0.399,3.873-0.269,7.779-0.167,11.674c0.733-0.625,1.32-1.39,1.778-2.247
	c2.537,5.587,1.821,11.922,3.055,17.826c2.5,2.559,5.98,3.739,8.803,5.899c3.76,1.169,7.914,0.065,11.593,1.697
	c1.158,0.587,2.376,1.104,3.723,1.191c1.169,6.071,0.167,4.725,0.226,8.641c0.461,1.234,1.225,103.699,1.196,103.822
	c0.404,2.031,0.097,4.121,0.372,6.174c0.744,0.797,1.573,1.53,2.365,2.327c-0.765,0.797-1.514,1.6-2.236,2.424
	c1.465,0.69,3.033,1.153,4.617,1.578c-0.005,0.377-0.005,1.126-0.011,1.503c-0.684,0.07-1.347,0.156-1.988,0.253
	c0.124,0.183,0.366,0.539,0.49,0.722c1.142,0.215,2.306,0.474,3.475,0.722c0.318,0.339,0.663,0.695,1.034,1.067
	c-0.216,1.406-0.318,3.135-2.047,3.432c0.022,0.582,0.07,1.18,0.146,1.794c2.252,1.25,4.865,1.271,7.354,1.74
	c2.079,1.697,3.27,4.17,4.579,6.47c0.356-0.016,1.067-0.054,1.422-0.076c1.826,4.351,3.431,4.428,6.54,6.212
	c0,0.28,0.005,0.835,0.005,1.11c-0.453,0.436-0.883,0.883-1.293,1.352c0.603,0.388,1.218,0.781,1.864,1.201
	c0.264-0.215,0.792-0.652,1.056-0.867c-0.021-1.234-0.038-2.451-0.043-3.652c2.803-1.777,12.698-1.119,15.58-0.275
	c0.059,2.968,0.603,5.904,0.716,8.883c1.643,1.25,4.132,0.636,6.12,0.603c0.415-0.383,0.856-0.749,1.314-1.094
	c0.652,0.91,1.632,1.805,1.239,3.076c1.853-0.447,3.857-0.28,5.349,1.04c0.323-0.372,0.959-1.11,1.277-1.481
	c0.964,1.611,1.029,3.545,1.508,5.344c-0.356-0.016-1.072-0.038-1.428-0.048c1.007,1.374,1.799,2.893,2.494,4.471
	c0.76-0.28,1.729-0.248,2.37-0.846c-0.269-0.42-0.517-0.824-0.754-1.196c0.388-1.627,0.048-3.911,1.891-4.681
	c0.011,0.786,0.032,1.595,0.075,2.413c0.533,0.366,1.088,0.749,1.67,1.153c-0.124,0.743-0.226,1.508-0.307,2.29
	c0.528,0.921,0.91,2.327,2.29,1.562c-0.819,0.614-1.137,1.519-1.158,2.521c0.517,0.032,1.557,0.086,2.074,0.119
	c-0.684,0.986-1.492,1.885-2.252,2.807c0.786-0.043,1.573-0.205,2.354-0.48c-0.479,1.331-1.557,2.634-1.185,4.137
	c0.717,0.016,1.449,0.086,2.198,0.21c0.582,0.83,0.291,1.638-0.42,2.3c0.329,0.275,0.7,0.576,1.094,0.889
	c-0.711,0.765-1.374,1.568-1.993,2.408c-1.358-0.706-2.866-0.609-4.229-0.07c0.232,0.711,0.442,1.406,0.706,2.149
	c1.164-0.641,2.478-0.905,3.819-0.943c0.194,0.436,0.42,0.883,0.663,1.352c-0.372,0.167-1.12,0.496-1.492,0.663
	c0.28,0.242,0.846,0.727,1.126,0.964c-0.377,0.086-1.126,0.253-1.503,0.334c0.528,0.884,0.948,1.95,2.02,2.365
	c0.032,0.226,0.108,0.673,0.146,0.9c0.377,0.512,0.765,1.067,1.147,1.643c0.205,0.167,0.603,0.506,0.803,0.679
	c0.086,1.794-0.092,3.604-0.049,5.42c-0.269,0.237-0.803,0.716-1.072,0.953c-0.016,0.83-0.027,1.659,0.005,2.521
	c0.496,0.205,1.013,0.431,1.557,0.668c-0.178,0.889-0.35,1.783-0.501,2.699c-1.358,0.167-2.726,0.673-3.34,1.993
	c0.636,1.013,1.681,1.686,2.683,2.354c0.248,0.453,0.523,0.927,0.813,1.417c0.722-0.032,1.481-0.043,2.257-0.032
	c4.619-3.352,16.413-15.993,20.525-20.574c2.607,0.485,4.892,2.026,7.558,2.397c0.393,0.291,0.819,0.598,1.266,0.927
	c0.259-0.129,0.776-0.377,1.034-0.506c1.005,0.271,27.832,6.994,34.036,7.073c0.113-3.076-0.205-6.163,0.075-9.223
	c0.833-3.074,21.421-0.791,22.432-0.501c0.312,0.76,0.646,1.535,0.991,2.327c-0.167,3.022-0.684,6.168,0.048,9.158
	c-0.286,1.115-0.415,2.273-0.027,3.405c-0.129,1.347-0.253,2.694-0.264,4.067c0.706,1.826-0.005,4.127,1.649,5.581
	c2.024,3.109,8.976-0.447,11.087,2.322c0.846,1.368,2.042,2.931,1.524,4.649c-0.436,2.435-1.115,5.581,1.121,7.38
	c4.035,3.545,6.686,8.997,12.207,10.505c0.038,0.555,0.103,1.115,0.199,1.697c-0.501,0.194-0.975,0.409-1.422,0.647
	c-0.402,3.507-0.632,17.548-0.636,18.553c0.426,0.415,0.873,0.851,1.342,1.304c2.344-0.011,4.773,0.259,7.063-0.496
	c0.674-1.347,1.525-2.58,2.489-3.733c1.519-0.582,3.141-0.749,4.52,0.329c2.063,0.469,4.261,0.813,5.958,2.225
	c0.339-0.215,0.706-0.409,1.104-0.582c0.447,0.77,0.921,1.562,1.417,2.354c1.379-0.339,2.78-0.603,4.229-0.727
	c-1.971-4.929-1.812-3.012-4.908-5.651c4.417,0.652,5.186,1.676,8.84-0.07c-0.69-1.336-1.74-2.376-3.054-3.044
	c0.188-0.275,0.571-0.835,0.765-1.11c-1.514-2.187-4.725-3.286-4.536-6.411c1.245,0.657,2.446,1.433,3.61,2.273
	c0.997,0.269,2.004,0.533,3.049,0.781c-0.253-0.862-0.479-1.686-0.695-2.516c0.641-0.253,1.303-0.501,1.993-0.727
	c1.885,1.142,3.949,2.074,6.206,2.149c0.005-0.431,0.011-1.287,0.016-1.718c-0.355-0.011-1.072-0.022-1.433-0.032
	c-0.415-0.447-0.808-0.884-1.174-1.304c-0.49-4.768-5.085-7.698-5.667-12.412c2.29,0.921,3.475,3.324,5.667,4.439
	c1.783,0.873,2.737,2.688,4.116,4.046c0.722-0.485,1.471-0.954,2.241-1.401c-0.054-0.339-0.156-1.018-0.21-1.358
	c1.185-0.054,2.424-0.113,3.566-0.587c-0.576-0.83-1.121-1.643-1.676-2.435c-0.463-2.257-0.732-4.595-1.966-6.583
	c1.26-0.119,2.451-0.598,3.518-1.304c-0.21-4.071,0.467-3.001-2.688-7.246c-0.016-0.355-0.038-1.061-0.054-1.417
	c1.885,0.194,3.76,0.593,5.554,1.271c1.767-0.846,2.521-2.742,3.324-4.396c1.034-0.016,2.085-0.022,3.162-0.005
	c-0.205-1.568-1.39-3.48,0.517-4.407c-0.522-1.735-1.853-3.162-1.885-5.021c2.85,1.137,3.959,4.272,6.228,6.152
	c1.153-0.032,2.322-0.016,3.512,0.027c-1.099-2.683-2.618-5.15-3.879-7.736c3.523,1.056,5.29,4.665,8.426,6.357
	c-1.196-2.909-3.847-4.762-5.398-7.397c1.444,0.593,2.861,1.298,4.315,1.939c-0.076-1.702-0.76-3.243-1.482-4.73
	c1.595,0.253,2.78,1.358,3.906,2.462c2.742-1.724,5.877,1.158,6.664,3.766c-0.14,0.264-0.426,0.786-0.566,1.045
	c0.383,0.302,0.787,0.62,1.223,0.953c0.731,0.185,3.08,0.822,4.046,1.115c0.167-0.232,0.501-0.684,0.673-0.911
	c-1.223-1.627-1.293-3.631-1.196-5.565c0.786-0.016,1.6-0.005,2.43,0.022c-1.611-1.503-3.286-3.006-4.229-5.026
	c1.147,0.291,2.316,0.63,3.502,0.943c0.032-1.519-0.054-3.028-0.318-4.509c0.189-1.379,0.485-2.818-0.129-4.116
	c-0.032-0.323-0.102-0.975-0.135-1.298c2.41,1.84,5.668,5.442,5.533,8.431c1.314-0.905,2.446-2.047,3.577-3.178
	c0.269,0.21,0.797,0.63,1.067,0.84c-0.242,0.566-0.442,1.164-0.614,1.772c0.49,0.458,1.045,0.97,1.589,1.471
	c0.587-0.889,1.077-1.869,1.869-2.602c0,0,7.688-2.381,8.027-2.414c-0.242,0.566-0.469,1.147-0.673,1.735
	c1.136-0.469,2.408-0.889,3.496,0.005c-1.858,1.546-2.203,4.197-4.342,5.49c-0.383,0.883-0.803,1.756-1.25,2.613
	c5.978,1.332,9.436-5.208,15.644-7.289c-0.56,1.029-0.253,2.123,0.081,3.178c-0.657-0.054-1.293-0.086-1.896-0.081
	c0.296,0.264,0.894,0.797,1.196,1.061c0.221,0.932,0.458,1.869,0.684,2.834c-0.851,0.711-1.503,1.605-1.81,2.683
	c-0.593,0.377-1.147,0.781-1.686,1.191c0.404,0.614,0.851,1.255,1.309,1.902c-0.253,0.625-0.49,1.255-0.679,1.918
	c1.207,0.027,2.451,0.076,3.679,0.339c2.645,0.684,5.274-0.625,7.968-0.334c1.358-1.191,3.033-1.912,4.806-2.263
	c-0.286,1.885-1.552,3.195-3.362,3.69c0.576,0.614,1.174,1.245,1.794,1.891c-0.997,0.851-2.85,1.191-2.984,2.677
	c2.155,0.447,3.798-1.482,5.829-1.869c0.69-0.388,0.964,0.506,1.433,0.9c-1.503,1.406-3.055,2.731-4.972,3.529
	c0.582,0.377,1.185,0.76,1.815,1.164c0.269,0.027,0.803,0.086,1.067,0.118c1.094,1.153,2.597,1.67,4.094,2.144
	c1.627-0.603,3.119-1.514,4.428-2.672c0.291-0.038,0.873-0.124,1.169-0.167c1.131-0.63,2.257-1.374,3.583-1.6
	c0.081,0.663,0.172,1.347,0.275,2.047c-0.275,0.307-0.819,0.927-1.094,1.234c-0.329,0.005-0.986,0.016-1.309,0.021
	c-0.259,0.69-0.49,1.395-0.695,2.117c0.496,0.032,1.487,0.086,1.977,0.119c-0.921,1.363-2.268,2.344-3.297,3.604
	c-0.226,0.027-0.684,0.07-0.91,0.097c0.231,0.296,0.684,0.9,0.916,1.201c3.082-1.352,6.486-1.498,9.799-1.832
	c0.232,0.28,0.689,0.846,0.916,1.126c-0.339,0.016-1.013,0.048-1.347,0.065c0.118,0.479,0.269,0.97,0.447,1.481
	c-0.393,0.356-0.754,0.733-1.088,1.126c-1.325-0.011-2.661,0.022-3.841,0.641c0.291,0.609,0.63,1.244,0.97,1.891
	c-0.366,0.183-1.104,0.549-1.476,0.738c-0.21-0.172-0.63-0.523-0.835-0.695c-0.269,0.205-0.797,0.614-1.067,0.819
	c1.629,3.042,1.475,1.327-0.76,5.22c-0.948,0.587-1.956,1.061-3.017,1.336c0,0.216-0.011,0.652-0.011,0.873
	c1.659-0.022,3.34-0.049,5.032-0.038c-0.172,0.199-0.512,0.598-0.684,0.797c0.356,0.711,0.738,1.444,1.147,2.182
	c1.379-1.051,1.083-2.823,0.447-4.197c1.789-0.14,3.561,0.377,4.681,1.891c2.29-0.97,4.881-1.481,6.74-3.249
	c3.381,1.541,5.129-5.726,10.548-5.382c0.469,1.131-0.932,1.638-1.519,2.354c0.135,0.894-0.474,2.219,0.377,2.861
	c0.733-0.436,1.422-0.964,2.123-1.492c0.819-0.043,1.643-0.07,2.532-0.059c-0.221,0.275-0.652,0.835-0.867,1.115
	c-0.205-0.07-0.619-0.205-0.824-0.275c0.016,0.313,0.038,0.937,0.054,1.255c1.379,0.086,2.85,0.135,4.019,1.051
	c-0.91,1.778-2.887,2.532-3.917,4.202c1.32-0.086,2.769-0.932,4.073-0.356c-0.016,0.221-0.038,0.657-0.054,0.873
	c-1.508,0.819-3.011,1.767-3.717,3.41c0.35,0.663,0.975,1.261,1.137,2.074c-1.008,0.679-2.263,0.673-3.389,0.883
	c0.41,0.776,0.846,1.541,1.309,2.327c-1.067,0.178-2.667,0.005-2.333,1.546c1.034,1.293,2.898,0.663,4.358,0.781
	c1.74,0.172,3.798-2.295,5.123-0.216c-0.372,0.086-1.121,0.269-1.498,0.361c-1.104,1.309-2.64,2.096-4.197,2.721
	c0.189,0.781,0.447,1.557,0.533,2.397c-0.431,0.393-0.846,0.786-1.255,1.185c0.754,0.232,1.541,0.474,2.349,0.722
	c0,0.188,0,0.555,0,0.738c-2.139,0.587-4.272,1.331-6.502,1.32c-1.12,0.673-2.101,1.53-2.898,2.553
	c1.578,0.566,3.259,0.83,4.924,1.201c0.329,0.361,0.684,0.733,1.067,1.126c-0.059,0.221-0.178,0.668-0.242,0.894
	c3.803,1.235,4.8,1.171,15.435,1.654c1.185-0.426,2.268-1.104,3.394-1.702c0.49,1.077,1.352,2.85-0.625,2.871
	c-0.005,0.345-0.005,1.04-0.011,1.385c1.061,0.404,2.203,0.749,3.195,1.401c0.469,1.799-1.136,3.453-2.785,3.911
	c-0.005,1.282,1.04,1.885,2.155,2.29c-1.051,1.061-2.618,0.56-3.917,0.727c0.398,1.018,1.487,0.943,2.43,1.137
	c0.054,0.35,0.156,1.056,0.21,1.406c-1.756,0.598-3.609,0.571-5.414,0.582c-0.474,0.84-0.927,1.697-1.363,2.564
	c0.275,0.14,0.824,0.42,1.099,0.56c1-0.346,11.514-2.817,13.059-2.069c-0.528,0.506-1.024,1.045-1.444,1.632
	c-0.318-0.005-0.943-0.011-1.255-0.011c-1.185,1.024-0.097,2.413,1.094,2.764c1.546-0.345,2.882-1.336,4.401-1.843
	c-0.765,1.735-1.245,3.577-1.654,5.436c0.576,0.388,1.837,0.576,1.498,1.584c-1.104,0.991-2.667,1.121-4.008,1.557
	c2.887,1.131,6.098,1.347,8.824,2.92c-0.242,0.7-0.458,1.417-0.614,2.155c-1.869,1.611-4.45,0.717-6.599,1.465
	c1.077,0.113,2.204,0.156,3.34,0.189c0.673,0.98,1.406,1.966,1.88,3.108c-1.746,0.409-3.534,0.544-5.285,0.803
	c2.295,1.374,5.01,1.584,7.644,1.481c0.242,0.205,0.722,0.614,0.964,0.819c-0.226,0.129-0.679,0.393-0.905,0.523
	c0.345,0.221,1.034,0.652,1.379,0.873c-0.765,0.172-1.503,0.366-2.214,0.566c-0.42,0.302-0.814,0.62-1.18,0.953
	c-1.234-0.011-2.435-0.005-3.62,0.016c-0.156,0.259-0.479,0.77-0.636,1.029c0.399,0.345,0.83,0.706,1.288,1.088
	c2.846,0.054,2.525,0.1,4.574,0.69c1.428,1.331,0.372,4.315,2.71,4.671c3.281-0.943,6.712-0.075,10.031-0.792
	c1.637-0.199,7.31,1.112,8.813,0.431c3.663,0.9,7.504,0.205,11.254,0.415c0.199-0.21,0.598-0.636,0.802-0.846
	c1.794,1.492,3.906,0.005,5.926,0.603c1.665,0.345,3.362,0.054,5.037-0.216c1.115,1.358,1.859,2.985,2.748,4.515
	c0.361,2.71,2.533,9.666,3.534,10.43c1.009,0.066,11.224,0.375,12.31-0.361c1.605-2.257,2.333-5.064,2.063-7.822
	c0.253,0.221,0.76,0.652,1.018,0.873c-0.102,2.976,7.262,29.343,7.758,30.545c1.826-0.054,3.696-0.118,5.517,0.318
	c3.464,0.668,7.09-0.356,10.532,0.636c1.379,0.248,1.751,2.106,3.232,2.214c1,0.067,12.408,0.34,14.352-0.42
	c0.35-1.605,0.878-3.157,1.498-4.665c1.995,1.569,6.232,15.267,6.513,16.269c0.964-1.045,2.246-0.835,3.437-0.312
	c-0.027-0.76-0.027-1.503,0.005-2.225c1.158,0.07,2.349,0.167,3.55,0.264c0.264,0.765,0.544,1.546,0.846,2.354
	c0.431,0.242,0.889,0.501,1.385,0.781c3.361,5.428-1.289,9.716,3.275,16.065c4.796,5.628,4.385,1.951,8.771,3.087
	c2.37-0.129,4.789-0.884,7.165-0.081c1.174-0.038,2.386-0.119,3.582-0.318c0.496,0.372,0.991,0.754,1.546,1.169
	c0.158,0.948,4.215,21.182,5.085,21.851c4.547,0.603,9.121,0.765,13.71,0.614c0.011-0.77,0.048-1.524,0.118-2.263
	c0.851-0.016,1.719-0.005,2.635,0.043c-0.016,0.884-0.022,1.799,0.118,2.721c0.846,1.12,2.414,1.072,3.701,1.304
	c0.975-2.322,0.151-4.789-0.404-7.089c0.921-1.013,2.026-2.198,3.572-1.843c3.426,0.517,7.251-0.749,10.306,1.395
	c1.049,3.523-0.226,0.872,0.021,7.763c2.221,1.115,33.362,2.281,35.825,2.306c0.372-0.377,0.781-0.727,1.217-1.061
	c-0.334-1.034-0.49-2.101-0.571-3.146c2.543-1.88,5.813-1.007,8.754-1.18c1.557-0.248,2.731,0.889,3.868,1.794
	c-0.102,1.218-0.242,2.462-0.604,3.653c2.284,1.242,2.885,0.466,7.187,0.894c2.031-4.673-0.907-6.154,1.023-8.916
	c0.313-0.065,0.948-0.205,1.261-0.269c0.232-1.013,0.506-2.009,0.808-2.984c7.814-1.017,4.441-0.118,8.404-0.027
	c3.904,5.563,5.974,1.76,4.999,10.3c0.34,0.765,0.48,1.621,0.663,2.484c3.696,0.738,7.461,0.56,11.217,0.706
	c9.374,1.992,8.048-2.281,11.652,3.949c4.164,14.427,4.363,15.937,6.045,18.085c-0.016,0.69,0.005,1.401,0.053,2.128
	c0.307,0,0.916,0,1.223,0c-0.221-0.269-0.663-0.808-0.878-1.078c0.49-0.598,0.981-1.191,1.535-1.745
	c0.539,0.194,1.121,0.42,1.724,0.668c1.372,3.201,0.005,0.688,1.417,3.755c4.207,0.065,8.409,0.453,12.622,0.447
	c0.226-0.932,0.479-1.843,0.776-2.731c0.862,0.232,1.74,0.49,2.656,0.765c0.796-6.78-1.211-5.657,0.792-11.033
	c-0.506-0.452-0.97-0.905-1.374-1.358c1.763-3.025,7.351-2.126,10.71-1.546c1.169,0.07,1.594,1.374,2.338,2.139
	c2.846-1.191,1.837-1.296,4.45-2.241c1.137,0.625,2.268,1.298,3.356,2.079c-0.366,0.668-0.706,1.347-1.029,2.042
	c0.259,0.517,0.528,1.045,0.856,1.605c2.236,0.318,4.461,0.781,6.756,0.733v140.024H26v-136.598
	c6.541,0.393,23.262,0.059,23.262,0.059c2.144,0.544,3.755-1.374,5.834-1.487c-0.124-1.508-0.393-2.984-0.91-4.385
	c1.508-0.07,3.642,0.647,4.277-1.212c0,0.469,0.011,0.954,0.016,1.465c0.749-0.383,1.476-0.781,2.268-1.045
	c-0.156,0.614-0.323,1.223-0.49,1.885c0.9,1.912,1.977,3.75,3.415,5.333c2.23,0.42,5.635-0.226,5.279-3.178
	c0.512-0.56,1.034-1.094,1.557-1.611c0.016-1.438,0.059-2.871,0.075-4.277c0.453-0.63,0.905-1.223,1.352-1.821
	c-0.474-0.032-1.422-0.097-1.896-0.129c-0.005-0.253-0.005-0.76-0.011-1.013c-0.62-0.097-1.244-0.178-1.864-0.237
	c0.054-0.216,0.156-0.646,0.21-0.862c0.566-0.42,1.05-0.9,1.465-1.438c-0.781-0.479-1.562-0.943-2.338-1.39
	c0.393-0.022,1.191-0.065,1.584-0.086c-0.005-0.679-0.011-1.336-0.016-1.977c-1.821-0.339-3.803-0.426-5.296-1.654
	c0.9-0.183,1.805-0.259,2.71-0.382c0.124-0.533,0.248-1.045,0.377-1.535c1-0.29,8.299-2.541,9.314-4.035
	c-0.652-0.63-1.428-1.094-2.182-1.546c-0.916,0.032-1.837,0.135-2.753,0.059c-0.98-0.523-1.832-1.261-2.721-1.885
	c2.721-0.415,5.387-1.094,8.086-1.595c-0.043-0.366-0.129-1.104-0.172-1.471c-0.571-0.124-1.137-0.226-1.708-0.313
	c-0.512-0.506-1.024-0.991-1.541-1.455c-1.444-0.366-2.764-1.04-4.019-1.816c0.286-0.786,0.652-1.557,0.792-2.349
	c-0.663-1.029-1.519-1.896-2.311-2.801c0.69,0.582,1.358,1.185,2.015,1.826c1.433,0.075,2.866,0.124,4.304,0.146
	c-0.646-1.616-1.288-3.281-1.174-5.037c2.705,2.283-0.291,1.963,6.104,6.265c0.501-0.302,0.997-0.587,1.498-0.857
	c-0.9-1.018-1.713-2.101-2.413-3.249c1.142-1.864,1.417-4.019,1.244-6.147c0.388,0.005,1.158,0.011,1.546,0.016
	c0.356-0.393,0.711-0.765,1.072-1.115c0.022-0.334,0.059-0.997,0.081-1.331c0.63-0.355,1.261-0.695,1.886-1.023
	c0.76,1.422,1.573,2.823,2.387,4.234c0.436-0.248,1.314-0.749,1.751-1.002c-0.162,0.937-0.318,1.853-0.474,2.834
	c0.388,0.124,1.174,0.372,1.568,0.496c0.07,0.566,0.145,1.115,0.221,1.735c1.535,0.124,3.087,0.361,4.52,0.97
	c-0.264,0.453-0.549,0.905-0.846,1.368c-0.043,0.894-0.075,1.805-0.108,2.742c0.426,0.474,0.851,0.986,1.271,1.508
	c-0.302,0.77-0.587,1.546-0.862,2.36c0.614,0.329,1.137,0.786,1.568,1.363c1.525,0.016,3.055-0.011,4.579-0.043
	c-0.032,1.088-0.065,2.193-0.102,3.313c0.361,0.005,1.083,0.022,1.444,0.032c1.417,1.902,3.803,2.187,6.007,2.139
	c0.603-1.379,0.474-2.85,0.011-4.224c-0.463,0.011-1.401,0.032-1.864,0.049c0.361-0.986,0.738-1.929,1.142-2.866
	c0.135-1.185-0.145-2.667,1.234-3.178c-0.199-1.013-0.426-2.031-0.652-3.006c1.821,0.426,3.663,0.754,5.533,0.927
	c-0.124-0.921-0.259-1.815-0.388-2.694c0.991,0.118,1.982,0.269,2.974,0.426c0.302-0.501,0.609-0.98,0.91-1.444
	c0.636-0.14,1.277-0.264,1.918-0.366c0.119-1.029,0.356-2.058,0.242-3.065c-0.673-1.018-1.438-1.966-2.096-2.979
	c0.787-0.383,1.239-1.045,1.471-1.842c1.417-0.108,2.839-0.151,4.256-0.183c0.172,0.264,0.512,0.786,0.684,1.05
	c1.966-0.092,3.879,0.393,5.813,0.652c0.151-0.657,0.302-1.293,0.453-1.907c0.808-0.544,1.595-1.104,2.349-1.708
	c0.835,0.824,1.805,1.05,2.818,0.409c-0.14,1.072-0.921,1.815-1.665,2.548c-0.059,1.32-0.108,2.651-0.172,3.997
	c0.803-0.135,1.611-0.232,2.413-0.313c1.191-1.325,2.106-2.979,3.728-3.825c0.673-1.056,0.706-2.306,0.711-3.491
	c0.318-0.027,0.954-0.075,1.271-0.097c0,0.846,0.005,1.746,0.011,2.634c0.264,0.21,0.803,0.62,1.067,0.824
	c-0.199,0.69-0.393,1.417-0.587,2.144c0.819-0.334,2.149-0.075,2.505-1.083c0.496-1.406,0.787-2.914,1.864-4.008
	c0.7,2.376-1.331,4.364-1.04,6.766c1.099-0.221,1.821-0.829,2.042-1.907c0.576-0.049,1.158-0.076,1.74-0.076
	c0.129-0.808,0.436-1.541,1.137-1.977c0.097-0.846,0.178-1.681,0.264-2.494c-0.339-0.021-1.024-0.054-1.368-0.07
	c1.96-2.844,1.393-1.729,3.076-3.674c0.636,0.07,1.266,0.156,1.902,0.275c0.469-1.487,1.04-2.936,1.675-4.348
	c0.426,0.011,1.277,0.022,1.702,0.027c0-0.318,0.005-0.954,0.005-1.271c-0.259,0-0.781,0-1.04,0
	c-0.205-0.652-0.409-1.282-0.614-1.896c0.663-0.921,1.115-1.945,0.722-3.065c0.77-0.98,1.632-1.869,2.521-2.72
	c-0.194-0.14-0.582-0.42-0.776-0.56c-0.614-1.352-2.527-1.799-2.214-3.545c0.894,0.065,1.789,0.183,2.683,0.291
	c0.776-2.295,0.598-4.698,0.717-7.063c0.426,0.404,0.846,0.797,1.271,1.25c1.605-0.183,2.586-1.347,3.232-2.71
	c-0.296-0.307-0.889-0.921-1.185-1.228c0.776-0.345,1.557-0.673,2.343-0.975c0.054,0.533,0.167,1.6,0.221,2.139
	c1.207-0.479,2.392-0.991,3.572-1.503c0.07-0.355,0.21-1.067,0.28-1.422c2.392-0.593,4.886-0.991,7.321-0.366
	c0.205-0.242,0.62-0.716,0.83-0.959c-0.162,0.636-0.312,1.32-0.463,1.999c-0.474,0.259-0.937,0.539-1.406,0.835
	c-0.054,0.28-0.167,0.84-0.221,1.121c0.312,0.108,0.937,0.313,1.25,0.42c0.388,0.991,0.711,2.112,1.632,2.791
	c0.043-0.447,0.14-1.336,0.183-1.783c0.42-0.986,0.787-1.977,1.153-2.952c0.329,0.011,0.98,0.027,1.304,0.038
	c0.447-1.632,1.88-1.896,3.372-1.762c0.215-0.183,0.646-0.55,0.862-0.727c0.684,0.027,1.368,0.075,2.058,0.135
	c0.027-0.453,0.075-1.363,0.102-1.821c0.485-0.9,1.126-1.837,0.431-2.78c1.358-0.027,2.704-0.21,4.035-0.479
	c1.943-3.139,3.297-2.548,6.869-2.214c0.382-0.555,0.77-1.088,1.158-1.605c0.027,1.347,0.108,2.683,0.259,4.046
	c1.282-0.183,2.575-0.329,3.873-0.323c0.463-0.77,0.9-1.546,1.341-2.3c0.032,0.194,0.097,0.582,0.129,0.776l0.587-0.474
	c-0.28,0.765-0.501,1.562-0.711,2.386c0.894-0.215,1.789-0.409,2.688-0.587c-0.016-0.727-0.032-1.438-0.048-2.133
	c0.523-0.566,1.045-1.104,1.568-1.643c0.022,1.153,0.032,2.295,0.048,3.48c0.474-0.076,1.428-0.226,1.907-0.296
	c0.393-1.11,0.426-2.252,0.388-3.383c0.436,1.956,1.444,3.712,2.473,5.42c0.873-0.118,1.751-0.21,2.634-0.296
	c-0.345,0.328-0.684,0.673-1.018,1.04c-0.011,0.264-0.022,0.792-0.032,1.061c1.902,0.146,3.906,1.153,5.759,0.275
	c1.067-0.512,2.209-0.786,3.383-0.555c-0.388,0.07-1.174,0.21-1.568,0.28c0.011,0.334,0.032,0.997,0.043,1.331
	c1.519-0.232,3.055-0.323,4.59-0.323c-0.264,2.193-1.438,4.1-2.047,6.201c0.485,0.329,0.991,0.663,1.508,0.991
	c0.092-0.436,0.28-1.314,0.377-1.751c1.147-0.312,2.322-0.506,3.512-0.593c-0.296-0.571-0.593-1.121-0.889-1.654
	c0.453,0.355,0.905,0.727,1.363,1.115c0.657-0.937,1.325-1.843,2.004-2.737c0.889,0.232,1.767,0.813,2.731,0.62
	c2.128-0.334,4.315,0.027,6.416-0.56c-0.264-1.498-0.803-2.915-1.756-4.083c0.178-0.404,0.533-1.207,0.706-1.611
	c-1.81-1.454-4.224-1.885-6.395-2.548c2.354-1.331,4.978,0.005,7.402,0.436c0.291-0.62,0.587-1.212,0.884-1.794
	c0.431-0.124,1.288-0.366,1.719-0.49c-1.121-1.024-2.3-1.961-3.512-2.855c2.252-0.986,4.703-0.189,7.057-0.28
	c2.527,0.248,4.875-1.045,7.413-0.754c-0.264-0.927-0.76-1.681-1.433-2.316c-0.463-1.013-0.959-1.993-1.487-2.952
	c-8.988-2.028,1.296,0.892-12.127-4.288c-0.323-0.689-0.646-1.363-0.97-2.02c-0.253,0.269-0.754,0.803-1.002,1.067
	c0.145-0.458,0.291-0.9,0.442-1.325c-0.447-0.393-0.889-0.776-1.325-1.137c-0.587-0.102-1.174-0.189-1.751-0.253
	c-0.997-0.927-2.225-1.514-3.475-1.988c3.378,0.722,6.804,1.282,10.236,1.692c5.501,3.734,7.368,2.718,9.815,4.181
	c-0.167-0.754-0.334-1.471-0.501-2.193c0.205-0.253,0.62-0.77,0.824-1.029c-0.269-1.255-0.641-2.462-1.293-3.55
	c1.358-1.665-1.918-1.476-2.791-1.956c1.912-1.18,4.38-0.625,6.228-1.923c-1.293-0.14-2.597-0.113-3.868-0.35
	c-0.21-0.614-0.399-1.212-0.56-1.805c-6.571-0.3-5.408,0.017-6.944-2.769c-1.368,0.032-2.737,0.049-4.105,0.065
	c-5.222-3.652-6.257-1.28-9.244-2.888c4.197-1.304,8.549-0.609,12.714,0.404c2.796,0.776,5.98-0.183,8.463,1.681
	c1.535-0.744,3.087-1.46,4.746-1.88c-0.226,0.566-0.673,1.697-0.9,2.263c3.532,1.146,2.752,0.926,5.366-0.797
	c3.351,0.598,6.847-0.054,10.101,1.131c-2.286-4.549-7.281-5.149-9.239-7.063c-2.246-0.501-5.522-0.415-6.109-3.238
	c-1.029-0.366-2.063-0.743-3.081-1.104c3.06-1.557,6.508-0.167,9.627,0.469c2.316,1.007,4.843,0.431,7.278,0.528
	c2.457,0.199,4.843,0.889,7.294,1.158c-1.05-1.18-2.279-2.166-3.518-3.119c-0.404-0.048-1.217-0.156-1.627-0.205
	c-0.253-0.388-0.501-0.76-0.749-1.11c-3.647-0.463-6.993-2.263-10.704-2.397c3.389-0.835,6.89,0.183,10.327,0.172
	c-0.011-0.426-0.027-1.277-0.038-1.702c-1.352-1.304-2.909-2.381-4.768-2.785c-1.049-2.391,0.318-0.484-5.468-3.011
	c10.351-1.198,12.637-0.198,13.236-2.527c0.857-0.404,1.719-0.77,2.586-1.137c-1.88-1.406-4.994-1.557-5.387-4.348
	c0.867,0.032,1.74,0.092,2.613,0.167c0.426-0.593,0.857-1.191,1.234-1.783c-0.059-1.104-0.415-2.144-0.598-3.205
	c1.374,0.803,1.535,2.634,2.774,3.615c2.909,2.683,7.181,2.408,10.564,4.164c2.252-0.162,4.585-0.016,6.809-0.501
	c-0.544-0.916-1.088-1.816-1.632-2.71c-1.104-0.167-2.322-0.242-3.033-1.218c-0.927-1.218-2.489-1.492-3.599-2.435
	c-2.742-0.436-5.01-2.085-7.483-3.205c-0.005-0.318-0.011-0.948-0.016-1.266c3.561,1.433,7.521,1.234,11.049,2.726
	c3.48,0.022,7.16,1.164,10.392-0.695c-1.826-1.115-3.82-1.972-5.457-3.362c1.875-0.205,3.782-0.167,5.624-0.652
	c-0.76-0.42-1.541-0.803-2.322-1.137c0.005-0.824,0.016-1.643,0.032-2.43c1.476,0.356,2.936,0.797,4.38,1.309
	c0.894,0.727,2.058,0.754,3.157,0.91c0.065,0.474,0.135,0.964,0.205,1.476c1.313,0.687,9.311,3.781,9.546,3.841
	c0.453-0.436,0.91-0.851,1.374-1.25c0.005-0.63,0.016-1.239,0.027-1.826c-1.25-0.937-2.645-1.638-4.078-2.214
	c1.584,0.151,3.189,0.399,4.784,0.188c-0.275-0.883-1.185-1.218-1.837-1.724c-0.253-0.555-0.506-1.088-0.749-1.611
	c-2.203,0.598-4.385,0.011-6.281-1.158c-0.172-0.216-0.517-0.636-0.695-0.846c-1.228-0.318-2.419-0.754-3.453-1.487
	c-1.519-1.083-3.383-1.422-5.08-2.117c2.651-0.237,5.091,1.309,7.768,1.083c1.929-1.794,3.82,0.657,5.894,0.625
	c2.586,0.07,4.951,1.201,7.477,1.632c-0.07-0.313-0.199-0.932-0.264-1.245c-3.119-0.797-4.444-4.099-7.316-5.285
	c-0.059-0.242-0.172-0.716-0.232-0.954c2.015,1.148,4.148,2.225,6.508,2.403c-1.083-2.672-3.884-3.426-6.023-4.946
	c0.436-0.162,1.309-0.485,1.745-0.652c-0.792-0.549-1.713-0.846-2.629-1.061c-0.936-1.207-0.202-0.479-2.187-2.166
	c11.281,0.347,9.995,5.505,17.907,5.533c1.18-1.492-1.072-2.214-2.15-2.661c0.447-0.032,1.331-0.108,1.778-0.14
	c-0.302-1.401-1.799-1.697-2.861-2.279c0.442-0.226,1.325-0.684,1.767-0.911c-0.194-1.643-1.406-2.78-2.882-3.356
	c2.413-0.108,4.886-0.005,6.955,1.417c0.081-0.372,0.253-1.11,0.334-1.482c-1.147-0.846-2.527-1.218-3.863-1.595
	c0.523-0.145,1.056-0.275,1.589-0.388c0.35-0.496,0.711-0.97,1.072-1.428c0.372-0.005,1.11-0.016,1.481-0.027
	c-0.189-1.401-0.28-2.807-0.14-4.202c-1.239-1.358-2.435-2.748-3.518-4.224c0.7-0.28,1.401-0.555,2.106-0.813
	c1.255,0.21,2.516,0.469,3.766,0.743c0.62-1.692,0.857-3.469,1.363-5.172c4.444-6.005,0.654-4.349,4.913-6.405
	c-0.474,1.729-1.67,3.324-1.298,5.209c-0.436,1.282-0.948,2.559-1.158,3.917c0.361,0.129,1.077,0.382,1.433,0.512
	c-1.18,0.927-2.295,2.112-1.482,3.706c-0.162,0.652-0.334,1.304-0.501,1.988c0.738-0.054,1.487-0.097,2.23-0.119
	c0.167,0.334,0.501,1.002,0.668,1.331c1.848-0.501,3.803-0.835,5.473-1.805c1.006-0.83,5.465-8.115,8.69-9.142
	c-1.111,2.792-1.671,1.625-5.452,7.736c0.022,0.614,0.048,1.245,0.081,1.896c-1.169,0.9-2.273,1.875-3.232,3.011
	c1.077,0.081,2.171,0.242,3.259,0.345c-0.997,0.399-1.988,0.83-2.974,1.261c-0.905,1.056-1.853,2.069-2.791,3.103
	c0.383,0.156,1.153,0.463,1.535,0.62c3.793-2.694,8.011-4.724,12.525-5.85c-2.764,1.535-5.937,2.403-8.339,4.552
	c-0.932,0.986-1.756,2.085-2.769,3.011c-0.409,1.223-0.797,2.456-1.153,3.712c4.243-0.627,4.126-0.909,7.009,1.234
	c-0.646,0.232-1.288,0.479-1.929,0.743c-0.129,0.28-0.388,0.846-0.517,1.126c1.196,0.005,2.387,0.011,3.583,0.032
	c-0.097,0.711-0.189,1.444-0.275,2.187c4.761-0.878,4.738-3.405,8.657-1.778c-1.385,1.368-3.103,2.306-4.935,2.952
	c0.07,0.409,0.205,1.234,0.269,1.649c-0.857,0.221-1.713,0.431-2.564,0.69c0.361,0.501,0.733,1.023,1.11,1.557
	c-0.512,0.436-1.013,0.894-1.503,1.374c0.323,0.226,0.98,0.679,1.309,0.905c5.892-1.501,9.664-4.086,14.422-3.038
	c-9.202,3.183-8.096,2.797-10.457,4.164c0.108,0.824,0.221,1.692,0.329,2.553c0.302,0.183,0.905,0.55,1.207,0.733
	c3.178-2.16,6.642-4.057,10.57-4.245c-0.722,2.823-8.294,3.465-9.336,6.976c1.907,0.264,3.529-0.776,5.015-1.805
	c2.123-0.226,4.261-0.027,6.276,0.711c0.167-0.792,0.339-1.568,0.512-2.333c-0.372-0.62-0.733-1.207-1.094-1.788
	c0.237-0.21,0.706-0.63,0.943-0.84c0.253-0.819,0.533-1.611,0.835-2.386c1.131-0.641,1.848-1.729,2.51-2.796
	c-0.124,0.566-0.242,1.153-0.356,1.762c1.605-0.28,1.519,1.455,1.929,2.505c1.81-0.927,3.857-1.013,5.818-1.374
	c0.081,0.652,0.162,1.32,0.248,2.004c1.18-0.102,2.273-0.555,3.254-1.201c-0.97-1.53-2.844-2.376-3.222-4.256
	c0.172,0.296,0.528,0.889,0.706,1.185c1.007,0.555,1.729,1.449,2.387,2.386c4.608-0.682,10.963-1.385,10.963-1.385
	c-0.048-0.431-0.145-1.304-0.199-1.735c0.399-0.124,1.196-0.377,1.595-0.501c-0.097-1.104-0.14-2.198-0.129-3.276
	c-0.447-0.07-1.331-0.21-1.778-0.28c0.318-0.689,0.636-1.374,0.954-2.026c1.471,0.63,3.06,0.447,4.585,0.145
	c-0.038-1.282-1.11-1.508-2.112-1.692c-0.302-0.248-0.9-0.738-1.196-0.986c0.329-0.065,0.663-0.113,1.002-0.146
	c1.638,0.905,3.803,1.762,5.457,0.388c-0.329-0.366-0.991-1.104-1.325-1.476c0.587-0.754,1.212-1.481,1.745-2.257
	c-0.28-0.167-0.835-0.495-1.115-0.663c0.528,0.054,1.056,0.119,1.595,0.199c0.463-0.377,0.927-0.738,1.401-1.083
	c-0.458-1.271-0.7-2.586-0.813-3.906c1.223-0.431,2.451-0.857,3.679-1.266c-0.059-0.313-0.178-0.937-0.242-1.25
	c-1.288-0.517-2.5-1.201-3.577-2.058c1.266-1.153,2.898-1.659,4.504-2.128c0.404-2.834-2.236-4.795-1.977-7.59
	c0.479-0.512,0.959-1.007,1.444-1.487c1.185,1.169,2.128,2.656,3.647,3.464c-1-9.921,5.543-8.427,6.675-6.028
	c1.88-0.409,1.46-2.451,1.347-3.857c0.275-0.194,0.83-0.571,1.104-0.765c0.054-0.296,0.167-0.883,0.226-1.18
	c0.679-0.323,1.374-0.614,2.058-0.916c0.469,0.259,0.943,0.517,1.422,0.819c3.082-3.524,6.708-62.089,7.289-63.623
	c2.978-2.147,17.863-11.489,24.221-14.648c1.158-0.544,1.546-1.972,2.618-2.575c6.196-0.764,18.406-0.942,22.211-2.645
	c1.422-0.119,2.882,0.452,4.321-0.032c-0.867-0.884-1.988-1.595-2.478-2.753c0.329-1.379,0.894-2.672,1.347-3.997
	c-1.552,0.991-3.184,1.886-4.994,2.295c0.135-0.738,0.286-1.428,0.436-2.128c-0.932-0.609-1.821-1.271-2.634-2.009
	c0.9-1.261,1.395-2.758,2.306-4.003c1.029,0.162,2.009,0.539,2.995,0.884c0.011,0.517,0.027,1.051,0.043,1.6
	c-0.571,0.625-1.142,1.255-1.702,1.912c1.18-0.226,2.36-0.442,3.55-0.614c-0.016-1.487,0.075-2.952,0.361-4.396
	c0.743,0.199,1.503,0.436,2.252,0.673c-0.172,0.42-0.339,0.851-0.506,1.304c0.609,0.356,1.228,0.754,1.848,1.153
	c1.395-0.232,2.801-0.426,4.207-0.62c-0.307-0.98-0.991-1.724-1.708-2.397c-0.102-0.754-0.199-1.487-0.285-2.203
	c1.309-1.826,3.211-3.011,4.897-4.423c3.504-46.141,3.105-44.687,2.026-46.373c0.56-0.555,1.131-1.083,1.708-1.606
	c9.755-32.831,1.057-33.031,13.856-58.284c4.026-4.216,11.303-24.116,6.438-31.149c1.282-1.099,2.812-1.939,3.863-3.281
	c2.573-4.675,12.712-24.008,13.921-25.401c3.486-4.254,13.615-20.392,13.576-22.793c0.13-19.623-0.178-15.943,4.148-22.061
	c2.481-3.47,17.131-18.359,18.435-26.861c2.791-0.539,5.576,0.081,8.334,0.517c2.171,0.323,3.863,1.848,5.63,3.033
	c0.646,0.086,1.304,0.183,1.966,0.296c0.366-0.684,0.733-1.363,1.115-2.02c0.98,0.329,1.956,0.711,2.914,1.153
	c2.063,0.118,4.143-0.049,6.211,0.113c4.318,1.428,2.299,4.084,8.7-3.949c0.808,1.244,1.584,2.516,2.327,3.814
	c1.347-0.065,2.651,0.312,3.911,0.776c0.07-0.399,0.221-1.201,0.296-1.6c1.045-0.776,2.079-1.702,3.442-1.826
	c0.038,1.25-0.803,3.195,0.916,3.663c1.153,0.636,2.09-0.641,2.968-1.196c0.555,0.312,1.131,0.614,1.729,0.91
	c1.245-0.205,1.719-1.503,2.365-2.408c0.808-0.496,1.627-0.98,2.446-1.455c0.296,0.668,0.582,1.341,0.937,2.02
	c0.668-0.377,1.336-0.77,1.993-1.169c0.851,0.673,1.503,1.541,2.085,2.467c1.077-0.108,2.252,0.097,3.265-0.366
	c0.83-0.824,1.147-2.036,1.767-3.006c0.646,1.002,0.808,2.855,2.311,2.963c3.421,0.145,6.879-0.269,10.273,0.404
	c0.242-0.232,0.722-0.695,0.964-0.927c1.734,1.214,1.549,1.714,20.983,1.385c0.625-0.609,1.013-2.133,2.139-1.546
	c0.296,0.501,0.576,1.024,0.846,1.573c1.934,0.01,17.106,0.137,19.173-0.366c1.84-17.131-9.732-7.011,65.19-10.015
	c0-0.007,1.411-46.384,1.411-46.384c2.311-7.084,3.841-14.427,6.518-21.382c9.39,0.636,18.796,0.442,28.197,0.603
	c3.227-0.469,1.342,0.796,3.157-9.293c3.589-21.37,2.407-4.106,6.637-25.702c0.361-0.162,0.733-0.307,1.115-0.442
	c1.792,2.58,130.587,3.027,132.967,2.57c-0.15-4.503-0.893-5.853,4.326-8.517c1.568,1.056,3.081,2.209,4.66,3.27
	c0.055-1.001,1.285-34.933,0.318-40.302c0.576-1.627,1.104-3.674-0.259-5.075c-5.988-6.539-1.885-9.248,0.91-18.155
	c1.729-4.401,2.882-9.034,5.048-13.263c4.358-0.62,8.797-0.183,13.15-0.813c1.282-0.42,1.083-2.22,1.39-3.297
	c0.986-6.863,2.527-13.624,3.534-20.477c0.054-2.328,213.253,2.615,214.055,0.964c3.728-5.985,5.5-13.091,9.95-18.656
	c1.126-2.446,1.11-5.215,1.956-7.747c0.603,0.97,1.104,2.031,0.84,3.222c0.873,3.125,1.692,6.47,3.992,8.905
	c0.76-3.249,0.523-6.61,0.63-9.912c0.296-3.286-2.031-5.985-2.403-9.158c1.212-2.176,3.049-3.954,4.337-6.098
	c3.006-3.728,2.375-59.96,2.128-61.075c0,0,1.318-5.045,1.244-23.38c-0.183-2.823-2.182-5.177-2.128-8.032
	c0.07-2.591-2.483-5.08-0.77-7.564c2.074-0.469,8.943-6.11,11.69-12.321c4.448-9.243,23.056-50.47,23.984-52.827
	c0.151-3.965,0.043-7.989,1.169-11.841c0.361,0.684,0.415,1.665,1.153,2.106c2.273,0.275,1.789,1.571,14.54-27.491
	c0.699-2.291,1.528-17.366,0.56-20.45c-0.673-0.016-1.331-0.027-1.972-0.032c-0.124-1.002-0.151-2.02-0.42-2.979
	c-0.727-0.787-1.88-0.927-2.796-1.358c-0.307-0.663-0.593-1.309-0.867-1.956c-3.281,0.474-6.594-0.603-9.815,0.463
	c0.388-0.657,0.447-1.869,1.395-1.982c10.955-1.316,7.682-0.43,10.15-1.815c-0.016-0.916-0.016-1.826,0-2.731
	c-0.862-0.216-1.756-0.453-2.58-0.673c0.77-0.835,1.891-1.11,2.871-1.632c0.253-1.293,0.092-2.645,0.447-3.911
	c1.783-1.632,4.062-2.715,5.614-4.611c0.851-1.526,1.048-14.826,0.716-17.282c-0.523-2.488,3.628-6.074,0.867-13.624
	c-0.862,0.323-1.708,0.657-2.532,1.013c0.14-1.363-0.135-2.677-0.458-3.976c1.196-1.131,2.888-1.627,4.019-2.812
	c1.317-10.325,2.76-36.764,2.715-37.737c1.164-1.341,1.277-3.071,1.077-4.762c1.121,1.336,0.657,3.281,1.331,4.843
	c0.571-0.027,1.164-0.043,1.772-0.054c0.803-4.795,0.549-9.767,2.009-14.422c0.345-0.038,1.029-0.118,1.374-0.156
	c-0.005-0.986,0.005-1.972,0.021-2.952c-0.733-0.205-1.449-0.415-2.155-0.625c0.69-0.496,1.476-0.754,2.354-0.792
	c0.668-4.364,1.164-8.781,1.024-13.204c-0.318-0.232-0.609-0.453-0.884-0.668c3.075-1.019,1.306-11.877,2.748-17.659
	c0.102-3.459,1.013-6.944,0.447-10.392c1.06-4.098,1.679-11.473,1.077-14.465c1.221-3.092,1.82-10.395,1.018-14.206
	c0.221-0.183,0.657-0.555,0.878-0.738c0.097-4.369,1.843-9.013-0.07-13.188c0.372-0.312,0.76-0.625,1.158-0.927
	c0.528-3.415,0.657-6.869,0.873-10.311c0.302-1.261-1.293-2.004-1.061-3.184c0.345-0.14,1.023-0.431,1.368-0.576
	c0.474-3.906,0.83-7.865,0.738-11.798c-0.609-0.496-1.191-0.991-1.756-1.487c0.318-0.221,0.953-0.657,1.271-0.878
	c0.543-3.859,3.572-25.225,2.16-28.827c1.336-3.523,0.679-7.38,0.533-11.044c-0.749-1.261-1.164-2.667-1.503-4.073
	c4.295-7.419,1.229-14.215-1.826-21.786C1281.178,20.695,1280.871,22.851,1279.021,19.752 M1280.826,497.937
	c-0.382,0.582-0.76,1.169-1.12,1.756c-0.539,3.964-1.179,17.117-0.027,21.29c0.69,0.399,1.39,0.792,2.112,1.191
	c0.823-1.842,1.563-22.989,0.506-25.045C1281.79,497.393,1281.3,497.656,1280.826,497.937 M1308.505,500.76
	c-0.235,1.396-1.056,16.596-0.77,24.242c0.577,0.081,1.169,0.167,1.778,0.269c0.517-0.307,1.051-0.598,1.6-0.883
	c0.047-1.001,0.787-24.514,0.269-27.049C1309.653,497.301,1308.936,499.38,1308.505,500.76 M1252.343,497.834
	c-1.147,2.365-2.306,4.832-2.036,7.537c0.248,2.995-0.684,6.147,0.232,9.045c0.022,3.437-0.081,6.879,0.016,10.327
	c0.84-0.022,1.702-0.038,2.58-0.054c0.097-8.948,0.792-17.891,0.528-26.839C1253.335,497.845,1252.672,497.84,1252.343,497.834z"/>
</svg>
