<!DOCTYPE svg PUBLIC "-//W3C//DTD SVG 1.1//EN" "http://www.w3.org/Graphics/SVG/1.1/DTD/svg11.dtd">
<!-- Uploaded to: SVG Repo, www.svgrepo.com, Transformed by: SVG Repo Mixer Tools -->
<svg width="800px" height="800px" viewBox="0 0 1024 1024" class="icon" version="1.1" xmlns="http://www.w3.org/2000/svg" fill="#000000">
<g id="SVGRepo_bgCarrier" stroke-width="0"/>
<g id="SVGRepo_tracerCarrier" stroke-linecap="round" stroke-linejoin="round"/>
<g id="SVGRepo_iconCarrier">
<path d="M862.1 132.8c-69.3-42.1-162.5-31.5-226.7 25.9-66.6 59.6-103.4 137.9-123.7 245-20.2-107.1-57-185.4-123.6-245-64.1-57.3-157.4-68-226.7-25.9-41.3 25.1-131.6 106.6-76.9 319.7 3.4 13.2 16.8 21.2 30 17.8 13.2-3.4 21.2-16.8 17.8-30C99.6 312.7 119.6 216 187.1 175c50.9-30.9 120.1-22.5 168.2 20.5C481.2 308 483.8 511 483.8 890c0 13.6 14.3 24.7 28 24.7 13.6 0 28-11.1 28-24.7 0-378.9 2.6-581.9 128.6-694.5 48.1-43 117.2-51.4 168.2-20.5 67.5 41 87.5 137.7 54.8 265.3-3.4 13.2 4.6 26.6 17.8 30 13.2 3.4 26.6-4.6 30-17.8 54.5-213.2-35.8-294.6-77.1-319.7z" fill="#FCA128"/>
</g>
</svg>