<?xml version='1.0' encoding='utf-8'?>
<svg xmlns="http://www.w3.org/2000/svg" enable-background="new 0 0 5000 252.177" version="1.1" viewBox="0 0 5e3 252.18"> <g transform="translate(2416.4 -61.433)"> <path d="m347.35 65.021c47.654 3.54 78.022 25.253 78.133 55.866 0.06 16.585 5.139 13.54 15.871-9.517 19.166-41.173 92.367-45.096 77.345-4.146-5.833 15.9-17.057 19.97-24.638 8.935-12.785-18.61-29.555-6.81-61.358 43.176-33.618 52.838-98.936 54.285-99.608 2.204-0.316-24.647 31.308-40.535 45.947-23.083 9.765 11.641 3.492 21.231-13.588 20.776-16.784-0.448-20.554 5.961-9.058 15.4 34.25 28.12 71.75-35.579 41.729-70.88-20.788-24.445-75.7-30.056-95.869-9.797l-9.03 9.071 15.501-2.57c17.879-2.964 28.231 3.274 28.281 17.041 0.063 17.492-18.119 26.412-22.245 10.913-3.573-13.423-22.491-10.989-30.133 3.877-22.791 44.336-0.959 101.76 33.857 89.058 25.199-9.196 27.884 10.776 3.598 26.775-5.422 3.572-9.85 8.933-9.84 11.913 0.038 10.472-22.998 28.082-36.805 28.137-7.301 0.029-20.242 4.806-28.758 10.615-17.878 12.197-31.878 13.502-41.604 3.879-10.237-10.129-5.434-16.446 11.534-15.169 19.644 1.478 21.051-3.258 21.606-72.682 0.504-63.017 5.942-79.35 38.55-115.78 10.312-11.521 16.958-20.94 14.769-20.931-3.81 0.015-10.036 4.123-47.043 31.038-22.504 16.367-43.893 17.537-45.7 2.499-1.093-9.097-3.032-10.586-11.61-8.917-22.643 4.407-45.246-30.478-24.86-38.367 15.09-5.839 19.757-3.126 17.176 9.984-3.391 17.223 18.083 17.139 73.094-0.285 21.987-6.964 44.716-12.409 50.51-12.099 5.795 0.308 25.705 1.688 44.246 3.066zm-92.621 163.31c8.039 31.98 12.736 38.87 26.463 38.816 13.822-0.055 12.785-10.012-3.109-29.866-8.759-10.941-14.718-24.779-18.047-41.906l-4.971-25.571-3.623 15.522c-2.56 10.967-1.596 23.581 3.287 43.005zm-170.04-161.54c3.128 1.96 11.647 3.569 18.931 3.576 11.143 0.011 18.378 5.746 18.41 14.596 0.016 4.555-44.269 7.642-63.186 4.404-25.682-4.396-27.677-5.544-20.805-11.974 8.348-7.811 39.723-14.941 46.65-10.602zm-83.517-1.56c13.139 13-2.006 35.625-24.328 36.343-12.168 0.392-14.865 2.083-14.839 9.307 0.062 17.437-7.343 18.204-37.675 3.904-15.948-7.519-30.25-15.675-31.78-18.124-1.531-2.449-8.837-7.509-16.236-11.246-15.326-7.739-16.581-9.873 17.037 28.981 25.211 29.138 33.045 60.856 29.649 120.04-2.925 50.98 0.597 60.528 18.735 50.762 10.735-5.781 19.218-0.047 15.27 10.32-6.112 16.049-44.93 15.181-55.191-1.235-1.588-2.541-11.394-6.72-21.79-9.285-14.82-3.658-21.503-8.394-30.944-21.93-6.623-9.495-16.068-20.85-20.989-25.232-16.551-14.738-10.786-30.689 7.371-20.394 42.363 24.019 71.624-62.959 32.099-95.408-8.071-6.626-27.733-2.392-27.704 5.967 0.034 9.569-8.616 12.274-15.974 4.994-12.092-11.964-2.234-29.512 18.068-32.162l16.766-2.189-11.289-7.554c-55.055-36.84-133.47 32.464-87.827 77.625 17.431 17.245 50.942 12.593 50.873-7.063-0.026-7.356-0.874-7.408-15.017-0.919-17.226 7.904-29.763-10.182-16.376-23.624 27.763-27.879 63.044 18.463 36.104 47.424-24.391 26.221-60.28 16.381-89.032-24.411-38.401-54.481-51.864-63.886-64.369-44.966-8.012 12.122-20.045 4.033-20.106-13.517-0.135-38.917 52.822-29.023 76.624 14.314l11.316 20.603 2.819-15.272c9.956-53.94 97.251-76.304 180.3-46.197 26.148 9.479 68.669 13.471 67.381 6.327-0.417-2.309-2.059-7.5-3.652-11.537-2.953-7.485 17.874-11.403 24.702-4.647zm-106.62 140.15c-2.364 10.25-10.197 26.118-17.408 35.263-12.563 15.932-12.781 16.867-5.198 22.349 18.542 13.407 34.824-16.159 35.261-64.028 0.232-25.18-5.044-41.273-7.234-22.074-0.618 5.42-3.057 18.24-5.421 28.49zm-434.46-101.34c2.839 3.383 10.866 7.377 17.838 8.875 20.314 4.364 39.609 24.365 50.04 51.871 5.193 13.693 12.109 25.905 15.369 27.138 7.545 2.852 7.529 2.728-2.484-19.061-10.547-22.951-10.58-26.818-0.318-37.123 15.577-15.639 29.417-3.967 29.64 24.996 0.131 17.166 12.448 46.165 19.593 46.137 1.457-6e-3 1.352-8.424-0.229-18.706-5.737-37.247 10.19-69.558 34.331-69.653 9.46-0.037 10.24 1.225 7.946 12.869-1.566 7.95-0.116 17.549 3.775 24.983 3.475 6.64 6.332 15.948 6.349 20.684 0.019 5.569 2.777 8.6 7.806 8.58 19.324-0.076 30.667 28.117 13.712 34.082-16.437 5.783-19.328 15.489-8.806 29.567 9.562 12.793 10.745 18.544 4.6 22.362-5.313 3.301-22.76-5.676-71.721-36.904-108.56-69.24-167.95-91.632-205.19-77.357-10.632 4.075-10.915 4.834-4.449 11.903 18.47 20.191-5.946 40.289-29.3 24.117-14.086-9.754-1243.9-11.922-1249.9-2.199-3.183 5.143-26.281 7.536-33.021 3.422-8.805-5.375-6.006-11.329 7.57-16.102 10.531-3.702 12.638-6.53 11.556-15.513-3.938-32.721-63.352-14.577-142.24 43.441-28.254 20.779-112.22 68.285-136.28 77.108-87.347 32.023-157.01 37.397-202.47 15.618-29.009-13.898-26.583-20.833 6.409-18.327 35.799 2.719 53.662-10.423 53.573-39.414-0.062-20.264 4.837-22.893 27.12-14.553 22.321 8.354 4.245 58.95-21.098 59.051-3.237 0.013-5.88 1.915-5.873 4.228 0.022 7.065 21.664 4.607 40.596-4.61 29.127-14.181 46.397-56.927 28.824-71.346-16.369-13.431 0.536-29.676 24.699-23.735 12.306 3.025 16.185-40.805 4.018-45.402-10.613-4.01-1.843-10.849 13.992-10.911 17.266-0.068 47.877 26.037 47.923 40.868 0.015 4.932 3.592 9.326 8.644 10.621 14.741 3.778 2.932 36.552-23.908 66.351-20.156 22.377-8.446 21.811 17.194-0.831 28.439-25.114 37.914-45.57 37.993-82.021 0.078-35.866 5.097-43.76 27.876-43.849 31.34-0.123 38.612 35.725 14.623 72.097-6.147 9.32-10.137 17.973-8.867 19.23 4 3.957 28.755-25.533 36.944-44.012 10.465-23.613 26.27-41.874 39.054-45.123 5.738-1.458 12.47-6.473 14.961-11.144 6.291-11.801 12.551-6.4 12.605 10.876 0.056 17.731 4.98 18.146 22.325 1.884 28.23-26.467 52.445-20.34 73.208 18.524l13.44 25.157 541.55-1.097c297.75-0.603 574.05-0.745 614.06-0.315 40.004 0.43 72.965-0.638 73.247-2.372 0.281-1.734 0.98-5.046 1.552-7.359s1.27-5.975 1.553-8.137 6.78-6.217 14.438-9.011c7.659-2.793 17.029-10.515 20.824-17.16 10.525-18.427 33.528-14.887 61.579 9.475 16.17 14.044 22.302 10.376 11.048-6.609-11.777-17.779-2.603-41.383 10.169-26.159zm-1576.1 95.737c-10.981 21.011-11.606 25.265-2.609 17.773 19.296-16.069 31.195-55.98 21.647-72.609-4.782-8.328-5.466-7.056-7.514 13.969-1.24 12.722-6.426 31.112-11.524 40.867zm1722.4-45.142c-6.792 17.829 4.019 71.111 16.508 81.363 4.885 4.009 4.468-0.687-2.05-23.106-5.462-18.787-7.361-34.255-5.715-46.542 2.432-18.148-3.345-25.887-8.743-11.715zm-1816.3 33.315c-7e-3 15.534-16.945 50.737-33.519 69.671-14.667 16.754-14.74 23.308-0.176 15.473 26.586-14.301 57.716-84.377 43.658-98.28-4.959-4.905-9.957 1.685-9.963 13.136zm2356.7-81.983c71.246 21.847 98.727 82.464 56.578 124.8-56.129 56.382-228.29 47.978-260.05-12.7-39.627-75.717 89.73-146.98 203.47-112.1zm-135.39 17.645c-76.559 26.336-78.827 97.525-3.847 120.79 116.76 36.23 243.47-28.974 183.65-94.494-28.156-30.838-125.29-45.046-179.8-26.297zm124.53 5.681c34.047 8.282 62.123 32.029 62.197 52.606 0.258 71.742-196.31 86.977-233.79 18.113l-8.483-15.589 8.372-15.644c19.46-36.364 104.32-55.877 171.7-39.486zm-45.063 6.743c-6.415 2.483-9.814 26.892-3.741 26.868 6.157-0.024 18.188-14.415 18.162-21.724-0.029-8.162-3.46-9.386-14.421-5.144zm-35.227 1.128c-4.159 2.653-3.354 5.981 3.549 14.663 9.392 11.812 16.683 11.423 16.639-0.888-0.045-12.952-10.401-20.018-20.188-13.775zm-39.178 5.015c-9.582 0.038-2.414 11.727 11.086 18.081 15.542 7.315 27.278 9.059 27.26 4.051-0.024-6.612-23.379-26.442-28.712-24.378-3.17 1.227-7.506 2.238-9.634 2.246zm97.584 9.807c-15.124 16.169-6.937 20.146 16.783 8.155 11.553-5.841 19.901-12.387 18.551-14.547-4.797-7.675-25.716-3.89-35.334 6.392zm26.634 15.957-20.515 9.532 29.079 1.142c31.87 1.252 40.655-2.696 29.833-13.405-9.078-8.983-13.927-8.638-38.397 2.731zm-161.56-2.698c-9.124 11.042-0.36 14.895 32.803 14.426l32.406-0.459-21.104-10.033c-24.257-11.533-36.895-12.66-44.105-3.934zm84.595 9.992c-3.336 2.123-4.699 6.738-3.161 10.693 3.258 8.374 36.87 7.5 39.65-1.031 3.072-9.425-25.13-16.892-36.489-9.662zm62.394 18.492c6.169 7.355 40.314 16.85 48.792 13.569 15.905-6.156 6.331-14.949-17.82-16.364-13.327-0.781-26.835-1.767-30.018-2.191-4.443-0.593-4.665 0.564-0.954 4.986zm-146.61-1.358c-9.306 5.924-2.027 17.171 11.077 17.115 14.576-0.062 52.916-14.395 48.964-18.306-4.224-4.178-53.129-3.209-60.041 1.191zm126.01 11.143c0.028 7.895 19.617 22.245 30.308 22.203 16.895-0.067 14.813-9.367-3.958-17.682-17.003-7.531-26.367-9.138-26.35-4.521zm-77.687 6.603c-14.729 7.204-17.891 10.469-14.292 14.759 6.823 8.134 14.067 6.746 28.509-5.461 23.003-19.445 15.954-24.055-14.217-9.298zm58.343 13.389c2.79 10.915 12.473 14.442 17.445 6.355 1.487-2.418-0.498-9.228-4.411-15.133-8.673-13.09-17.162-7.373-13.034 8.778zm-32.85 7.349c4.225 6.76 18.029 3.516 20.661-4.855 4.486-14.267-2.085-18.366-12.972-8.093-5.46 5.152-8.92 10.978-7.689 12.948zm659.83-126.4c5.299 5.243 2.904 23.814-4.069 31.556-12.462 13.837-1.836 13.611 17.533-0.372 28.226-20.377 47.07-22.296 53.046-5.403 2.719 7.686 7.58 13.122 11.719 13.105 10.632-0.042 25.837 11.973 25.868 20.44 0.03 8.054 374.72 11.566 979.93 9.189 245.66-0.965 258.21-0.245 244.03 14.012-1.107 1.114-275.98 1.187-610.91 0.163l-609.18-1.863-11.585 8.61c-17.686 13.145-46.742 0.387-32.26-14.165 57.65-57.928-94.673-15-211.05 59.481-30.441 19.484-58.342 35.437-61.999 35.452-8.453 0.034-8.726-14.06-0.409-20.998 11.46-9.557 7.848-28.041-6.439-32.944-18.642-6.398-9.199-34.191 11.645-34.274 12.069-0.048 23.042-39.123 15.644-55.707-5.305-11.892 15.76-9.32 31.587 3.856 13.472 11.215 13.533 11.443 11.331 41.951-1.217 16.872-0.619 30.669 1.33 30.662 7.437-0.029 22.056-30.878 24.536-51.776 2.475-20.855 3.15-21.826 15.225-21.873 15.454-0.061 19.579 18.922 8.827 40.615-3.608 7.279-5.727 14.058-4.709 15.065 4.004 3.962 10.24-4.118 21.112-27.353 14.664-31.34 19.586-36.532 41.109-43.378 9.799-3.117 20.8-8.178 24.445-11.246 7.507-6.318 9.694-6.767 13.696-2.807l6e-3 2e-3zm-171.66 73.7c-0.308 12.576-2.034 28.068-3.833 34.427-2.103 7.429-1.674 11.556 1.199 11.545 6.205-0.025 13.138-27.513 13.077-51.848-0.064-28.982-9.72-23.553-10.443 5.876zm1629.7-56.762c1.312 4.927 8.91 11.25 17.677 14.709 11.617 4.585 19.851 13.123 33.692 34.937 18.439 29.061 42.749 56.017 42.714 47.363-0.01-2.563-4.373-9.981-9.694-16.485-28.671-35.042-21.675-72.632 13.542-72.771 22.736-0.089 32.831 12.109 25.944 31.352-13.814 38.599 43.8 121.8 79.027 114.12 5.199-1.133 3.432-3.452-6.67-8.751-25.871-13.571-55.692-68.397-39.533-72.681 5.086-1.348 8.767-5.742 8.748-10.44-0.093-22.98 23.319-45.557 47.336-45.652 17.011-0.067 21.437 3.369 14.765 11.457-2.728 3.306-5.077 16.368-5.221 29.026l-0.26 23.015 12.929-2.473c20.744-3.968 29.645 5.068 23.076 23.426-11.64 32.531 9.031 64.339 48.144 74.08 17.661 4.398 31.872-0.603 15.893-5.593-22.46-7.015-38.963-46.306-25.245-60.104 12.572-12.646 45.597-2.129 36.881 11.745-19.874 31.637 17.21 52.869 68.737 39.353 9.518-2.496 11.16-1.853 9.101 3.566-11.833 31.149-121.08 37.872-197.3 12.139-62.518-21.106-76.151-28.713-221.33-123.51-43.511-28.41-84.247-27.804-84.132 1.253 0.036 9.149 5.951 12.486 18.25 10.294 1.915-0.341 2.858 2.737 2.096 6.84-1.685 9.064-30.224 12.873-39.482 5.269-7.793-6.4-7.776-21.095 0.035-31.483 3.379-4.494 6.188-12.421 6.241-17.615 0.29-28.626 49.239-37.475 71.836-12.987l12.437 13.477-0.051-12.687c-0.082-20.131 15.307-31.143 19.823-14.187zm79.565 43.171c0.039 9.611 4.968 21.601 14.655 35.65 17.834 25.864 21.162 21.305 6.011-8.234-9.011-17.567-10.615-25.038-8.397-39.12 2.627-16.682 2.427-17.102-4.793-10.092-4.391 4.263-7.51 13.355-7.476 21.796zm107.61 22.882c-2.788 19.585 8.924 46.65 30.118 69.604 27.943 30.262 41.852 31.738 15.673 1.663-17.924-20.591-33.779-53.517-33.847-70.286-0.065-16.245-9.659-17.033-11.944-0.981zm-2916.3 28.999c70.984 4.702 143.55 31.536 176.51 65.273 20.265 20.741 19.697 39.658-0.618 20.546-40.22-37.838-103.24-42.457-107.12-7.848-1.07 9.552-3.599 11.745-14.841 12.873-18.419 1.848-23.625-14.825-10.285-32.945 11.656-15.834 11.406-16.684-4.901-16.619-22.629 0.09-33.885 10.829-31.262 29.826 3.048 22.067-17.05 29.625-32.85 12.354-7.506-8.206-7.5-8.944 0.208-24.161 4.373-8.633 8.628-17.117 9.455-18.853 3.298-6.92-24.04-2.518-34.198 5.507-8.024 6.34-11.162 13.178-12.072 26.309-2.161 31.183-31.457 28.029-36.786-3.961l-2.658-15.96-611.4 0.328c-405.33 0.217-612.74 1.75-614.78 4.544-1.698 2.319-3.104 8.179-3.124 13.023-0.054 12.369-13.065 22.774-28.562 22.836-16.515 0.066-18.874-3.735-12.635-20.362 4.42-11.778 3.939-14.28-4.307-22.436-11.826-11.697-16.039-7.552-9.918 9.759 6.849 19.37-2.646 33.157-22.89 33.238-13.347 0.053-14.39-0.752-10.479-8.09 8.993-16.872-4.51-47.813-17.38-39.824-3.07 1.906-3.016 4.141 0.175 7.299 14.642 14.48 2.206 40.716-19.339 40.802-14.56 0.058-19.271-9.766-9.422-19.646 20.951-21.019-55.951-30.888-87.338-11.208-6.714 4.21-19.92 13.797-29.346 21.305-20.348 16.207-32.417 13.85-18.695-3.65 20.132-25.674 79.161-55.861 136.94-70.033 30.515-7.484 1364.7-16.799 1463.9-10.225h-2e-3zm2078.5 0.385c253.46 0.975 476.41 1.197 495.5 0.494 19.089-0.703 34.709-0.116 34.714 1.303 5e-3 1.42 23.205 3.504 51.554 4.632 98.834 3.933 226.31 52.543 226.45 86.347 0.029 7.285-14.668 4.137-25.303-5.42-49.338-44.339-138.18-50.985-115.86-8.666l6.484 12.294-17.427 1.391c-23.983 1.915-34.304-19.265-18.14-37.228 7.913-8.794 3.143-12.624-9.644-7.743-11.31 4.317-16.163 20.925-9.636 32.976 5.677 10.483-0.444 14.351-19.402 12.262-11.615-1.28-11.919-1.949-11.548-25.292 0.351-22.051-0.238-23.642-7.344-19.812-14.478 7.805-18.134 26.508-6.632 33.93 7.578 4.89-1.455 12.018-15.302 12.073-16.551 0.066-32.15-13.046-32.206-27.07-0.022-5.545-1.521-10.987-3.331-12.093-1.811-1.106-278.13-2.293-614.13-2.637l-611.13-0.626-1.258 18.486-1.257 18.486-37.901 0.151-1.365-17.906c-1.623-21.301-13.925-31.631-35.109-29.482-12.408 1.259-13.094 2.014-7.142 7.862 18.492 18.168 12.139 41.751-11.273 41.845-14.181 0.057-14.594-0.408-14.653-16.502-0.07-18.969-11.058-29.591-30.527-29.514-13.623 0.054-13.965 1.095-4.862 14.835 11.062 16.697 4.967 31.36-13.064 31.432-13.454 0.054-14.665-0.97-14.707-12.433-0.118-32.03-51.317-32.939-96.471-1.711-23.768 16.438-25.621 17.083-25.651 8.924-0.06-16.301 62.226-56.903 107.22-69.894 65.903-19.029 58.413-18.897 890.35-15.697l2e-3 3e-3zm-1780.4 4.575c1.396 1.38 0.534 6.935-1.916 12.343-11.002 24.298 22.272 42.138 71.33 38.244 27.106-2.152 31.339-1.509 35.036 5.318 11.125 20.542-52.436 30.231-164.3 25.043-10.434-0.484-22.284 0.674-26.335 2.574-13.5 6.332-8.943-13.244 4.741-20.365 6.692-3.482 14.101-11.927 16.466-18.768 2.366-6.84 9.653-15.826 16.194-19.968s17.239-11.886 23.773-17.21c11.801-9.613 20.148-12.02 25.009-7.211zm-42.286 40.5c-15.627 15.692 1.417 26.409 46.856 29.464 28.706 1.93 34.458-2.207 12.296-8.844-8.626-2.583-21.39-9.362-28.364-15.064-14.079-11.51-23.217-13.159-30.788-5.556zm741.12-30.909c3.584 3.546 13.017 9.652 20.961 13.567 9.665 4.763 15.966 11.753 19.042 21.125 2.963 9.026 9.246 16.229 17.671 20.256 24.69 11.804 20.569 26.544-5.092 18.213-10.89-3.536-20.822-3.421-40.224 0.465-43.395 8.692-127.76-1.992-137.4-17.399-6.167-9.866 8.465-15.391 31.219-11.79 12.295 1.946 24.62 2.84 27.39 1.986 2.769-0.853 10.099-2.674 16.287-4.046 18.72-4.15 37.825-22.807 32.819-32.05-8.993-16.604 3.471-24.033 17.322-10.327zm-13.547 41.664c-8.329 5.69-20.121 11.611-26.205 13.16-13.944 3.548-14.414 10.318-0.712 10.263 34.491-0.137 64.881-14.132 59.686-27.484-3.587-9.218-15.491-7.743-32.769 4.061zm-253.02 4.162c7.61 7.53 6.164 19.288-2.979 24.212-16.567 8.922-29.445-4.985-18.781-20.283 6.991-10.029 14.267-11.343 21.76-3.929zm-79.356 4.162c7.274 5.987 13.94 7.847 22.143 6.178 12.564-2.557 16.488 5.302 6.524 13.068-11.008 8.579-82.412 6.595-87.297-2.427-5.395-9.961-0.198-14.086 13.5-10.716 6.497 1.598 13.617-0.538 20.851-6.256 13.158-10.398 11.448-10.409 24.279 0.153zm-84.463-2.655c8.982 10.707 3.911 21.393-10.18 21.449-11.173 0.045-12.589-1.363-12.629-12.552-0.051-14.432 13.674-19.786 22.809-8.897z"/> </g> </svg>