<?xml version="1.0" encoding="iso-8859-1"?>
<!-- Uploaded to: SVG Repo, www.svgrepo.com, Generator: SVG Repo Mixer Tools -->
<!DOCTYPE svg PUBLIC "-//W3C//DTD SVG 1.1//EN" "http://www.w3.org/Graphics/SVG/1.1/DTD/svg11.dtd">
<svg fill="#000000" version="1.1" id="Capa_1" xmlns="http://www.w3.org/2000/svg" xmlns:xlink="http://www.w3.org/1999/xlink" 
	 width="800px" height="800px" viewBox="0 0 577.385 577.384"
	 xml:space="preserve">
<g>
	<g>
		<path d="M542.901,92.954c4.284-14.076,7.344-34.272-8.874-39.78c-12.546-4.284-25.397,2.142-30.906,12.852
			c-7.344-11.322-18.666-24.174-31.518-18.36c-13.464,5.814-11.322,29.07-8.262,41.922c-11.322,3.06-22.645,7.956-28.765,18.666
			c-4.59,8.262-2.754,18.054,2.754,25.092c5.814,7.344,15.912,9.792,24.786,7.65c5.509-1.224,10.099-4.59,13.771-8.262
			c2.142-2.142,3.672-4.284,5.202-6.732c6.731,15.912,14.993,28.152,14.075,46.818c-1.529,23.256-20.195,37.638-42.533,36.72
			c-3.366,0-3.061,4.59,0,4.896c22.949,2.448,40.697-8.568,48.653-29.988c7.65-19.89,1.837-50.796-15.911-63.342
			c-0.612-0.306-0.919-0.306-1.53-0.306c0.611-2.142,1.224-4.284,1.836-6.732c0.612-2.142-2.448-3.366-3.672-1.53
			c-2.754,4.284-6.732,8.568-10.404,12.24c-2.754,3.06-6.426,5.202-10.404,6.732c-5.508,1.836-11.628,0.306-15.911-3.672
			c-3.979-3.672-5.202-9.486-2.755-14.382c4.284-9.792,17.137-14.076,26.622-16.218c2.448-0.612,3.366-3.06,3.061-5.202
			c-1.836-10.098-6.12-26.928,2.142-35.19c8.263-8.262,23.868,18.972,26.01,23.256c2.755,4.896,10.404,0.612,7.65-4.59
			c-0.918-1.836-2.448-3.978-3.672-6.426c0.306,0,0.918-0.306,1.224-0.612c4.59-4.284,14.076-7.344,20.196-7.344
			c18.054,0,8.262,27.234,4.896,35.802c-1.224,3.06,1.837,6.732,4.896,6.426c11.628-0.612,33.966,0.918,30.6,18.054
			c-3.365,16.83-24.174,15.912-37.332,14.076c-1.529-2.754-3.365-5.508-5.201-8.262c-2.448-3.366-9.486-1.53-7.65,3.06
			c9.18,22.95,15.912,42.534,9.18,67.32c-8.262,30.906-37.943,42.84-67.319,42.534c-0.307,0-0.612,0.306-0.918,0.306
			c-28.765-114.75-82.927-222.462-196.452-209.61C154.894,43.076,84.514,136.1,93.694,238.61
			c5.202,56.916,27.846,113.22,59.67,164.627c-7.956,11.935-18.054,22.95-31.824,27.54c-16.524,5.508-27.234-7.649-35.496-20.195
			c1.53,2.142,5.202,3.06,7.038,0.918c8.568-11.017,20.808-39.475,7.344-51.715c-13.77-12.546-26.622,7.65-32.742,20.503
			c-10.71-8.263-23.562-14.688-30.294-26.011c-1.53-2.754-5.202-3.06-7.65-0.918c-1.836,1.836-3.366,3.366-5.202,5.202
			c-1.224,1.224-1.836,3.061-1.224,4.896c3.672,12.239,5.202,25.092,7.956,37.638c-8.874-2.754-19.584-4.284-26.316,2.142
			c-6.12,6.12-6.12,15.3-2.448,22.645c10.404,21.42,34.884,23.562,52.326,11.016c5.508,27.846,26.622,51.103,57.222,46.818
			c27.234-3.979,50.184-21.42,66.096-43.146c27.234,37.639,58.446,71.91,89.964,100.98c2.448,2.448,5.814,1.224,7.038-0.918
			c12.852,6.426,32.436,11.628,44.369,0.306c10.71-9.792,12.546-23.562,11.322-37.332c13.464,7.344,29.07,11.322,42.228,1.53
			c7.65-5.814,11.017-14.688,11.935-24.174c6.731,5.508,14.382,8.874,23.256,8.874c12.852-0.307,18.972-11.628,21.726-23.868
			c6.12,9.18,14.383,16.218,26.929,15.605c14.994-0.918,24.479-16.523,29.376-30.6c2.447-1.53,4.59-4.284,3.978-7.65
			c-6.426-48.348-14.382-123.93-32.13-197.063c55.691,4.284,94.248-50.796,76.194-99.756c17.441,2.448,36.413-4.59,41.922-22.644
			C582.682,102.746,560.344,93.872,542.901,92.954z M122.458,468.722c-30.906,11.016-48.042-10.71-59.058-36.414
			c-0.306-0.612-0.612-1.224-1.224-1.53c0.918-2.447-1.836-5.813-4.284-3.978c-14.076,9.486-31.824,14.382-43.452-1.53
			c-2.754-3.672-5.202-9.486-2.448-13.77c3.978-7.038,20.808,0.306,25.398,2.142c3.672,1.224,7.038-2.754,6.12-6.12
			c-3.06-10.098-4.59-20.502-6.426-30.906c-0.612-3.672-2.142-7.037-2.142-10.403c9.18,9.792,22.032,16.218,31.824,25.397
			c1.836,1.836,6.12,1.836,7.344-0.918c1.836-4.284,16.524-35.496,22.032-20.502c4.59,12.546-5.202,26.622-9.792,37.639
			c-0.306,0.918-0.306,1.836,0,2.754c-0.918-1.225-1.53-2.448-2.448-3.673c-2.448-3.978-9.486-1.529-7.956,3.366
			c6.426,18.36,20.502,34.884,41.616,32.742c18.054-1.836,31.518-17.748,40.392-32.742c4.59,7.344,9.792,14.994,14.688,22.032
			C159.484,448.526,142.042,461.684,122.458,468.722z M476.806,443.63c-3.366,8.874-7.038,17.748-15.3,23.868
			c-14.688,11.321-25.398-14.994-28.765-23.868c-2.447-6.12-11.628-5.508-11.628,1.53c-0.306,13.464-1.224,37.943-21.113,33.048
			c-5.202-1.225-10.099-4.284-14.383-7.956c-0.611-7.65-2.447-14.994-4.896-21.114c-2.448-7.038-12.853-4.284-11.322,3.06l0,0
			c-0.918-0.918-1.53-2.142-2.448-3.06c-2.142-2.754-6.731-0.306-4.896,2.754c3.06,5.202,6.426,10.71,10.404,15.912
			c1.224,8.262,0.918,16.524-3.366,24.174c-8.874,16.83-33.354,1.224-43.146-5.508c-4.59-3.366-10.098,2.142-8.874,6.731
			c2.754,12.24,4.59,24.786-1.224,36.414c-7.344,14.383-26.622,9.792-38.861,6.12c-0.612-0.306-1.53,0-1.836,0.307
			c-0.306-0.307-0.306-0.612-0.612-0.918c-31.824-32.742-62.118-68.544-88.434-107.101c0.306-0.306,0.612-0.918,0.612-1.224
			c2.142-3.979-2.142-7.344-5.508-6.12c-29.682-46.512-54.162-96.696-67.932-149.94C83.902,156.908,163.462,40.934,285.862,43.076
			C372.46,44.3,412.546,150.482,433.659,218.414C455.997,291.548,465.483,368.048,476.806,443.63z"/>
		<path d="M186.412,119.27c-5.814-2.754-11.016,4.896-6.732,8.568c-53.856,27.54-70.992,152.388-4.284,174.113
			c35.496,11.629,68.544-31.518,71.298-62.118C251.284,194.24,229.864,139.466,186.412,119.27z M172.03,288.794
			c-24.48-11.628-27.846-50.796-27.846-73.746c0-31.824,11.322-67.626,41.004-83.232c0.306,0,0.306-0.306,0.306-0.306
			c30.906,17.136,47.43,53.244,51.102,87.516C239.962,250.85,212.422,307.766,172.03,288.794z"/>
		<path d="M256.18,66.944c-6.732-0.306-6.732,10.404,0,10.71c31.518,0.918,62.423,15.3,87.822,33.048
			c13.77,9.486,25.703,22.338,31.518,38.25c7.344,20.808-8.262,38.556-22.032,51.714c-57.834,55.08-113.525-79.56-104.651-122.706
			c0.612-3.672-4.59-5.202-5.508-1.53c-14.382,54.162,42.228,183.6,112.607,135.864C447.124,149.87,321.357,68.78,256.18,66.944z"/>
		<path d="M382.863,259.724c-1.836-0.918-3.366-0.612-4.59,0.306c-50.184-21.114-98.226-2.448-131.58,42.84
			c-20.808,28.458-45.9,92.411-6.426,116.892c14.382,8.874,43.452,7.344,50.49-10.404c4.896-12.239,3.672-25.397,3.978-38.25
			c0.918-33.354,31.212-32.436,55.08-36.72c24.174-4.284,31.212,2.448,51.103,11.934c5.508,2.755,13.464,1.836,17.136-3.672
			C442.84,308.684,413.157,275.024,382.863,259.724z M414.993,328.574c-4.896,18.973-28.151-2.754-34.578-6.426
			c-14.382-7.649-37.943,2.143-53.243,3.366c-15.301,1.224-32.742,13.464-39.168,26.928c-10.71,21.42,10.098,66.708-33.048,60.588
			c-45.9-6.426-13.77-79.56-0.918-100.062c27.234-43.452,75.275-63.036,122.399-47.124c0.306,0.612,0.918,1.224,1.836,1.836
			C401.529,281.45,422.644,297.668,414.993,328.574z"/>
	</g>
</g>
</svg>