<?xml version="1.0" encoding="iso-8859-1"?>
<!-- Uploaded to: SVG Repo, www.svgrepo.com, Generator: SVG Repo Mixer Tools -->
<!DOCTYPE svg PUBLIC "-//W3C//DTD SVG 1.1//EN" "http://www.w3.org/Graphics/SVG/1.1/DTD/svg11.dtd">
<svg fill="#000000" version="1.1" id="Capa_1" xmlns="http://www.w3.org/2000/svg" xmlns:xlink="http://www.w3.org/1999/xlink" 
	 width="800px" height="800px" viewBox="0 0 566.747 566.748"
	 xml:space="preserve">
<g>
	<g>
		<path d="M564.801,292.067c-19.584-123.011-128.215-207.467-243.576-153c-13.464-25.092-14.994-63.342,10.098-82.008
			c2.448-1.836,3.979-5.814,0.918-7.956c-48.959-40.392-87.515,45.9-88.739,90.27C185.973,50.021,33.585,161.1,9.717,234.233
			c-34.578,106.181,25.092,261.935,147.798,265.608c38.862,42.84,145.044,32.741,199.512-1.836
			C468.41,510.551,583.16,408.653,564.801,292.067z M250.233,147.941C249.315,119.177,279.915,27.377,320,52.469
			c-23.868,21.42-27.54,65.79-8.567,91.188c-1.836,0.918-3.672,1.836-5.814,3.06c-2.448,1.53-3.06,3.672-2.754,5.814
			c-17.442-3.672-35.189-4.284-53.244-2.448c0-0.306-0.306-0.306-0.306-0.612C249.927,149.166,250.233,148.859,250.233,147.941z
			 M366.818,491.273c8.262-6.426,14.688-13.464,18.666-20.808c2.142-3.673-2.754-7.65-5.814-4.591
			c-37.943,39.475-158.813,75.582-209.609,33.66c3.672-0.918,3.672-6.426-0.612-6.731c-2.142,0-4.59-0.307-6.732-0.612
			c-7.344-8.568-12.546-19.278-14.688-32.742c-0.612-3.06-5.202-2.142-5.202,0.612c0,11.934,3.06,22.032,8.262,30.6
			C51.945,475.667,7.269,373.769,12.471,278.604c3.06-55.998,32.13-95.166,76.806-126.684c47.43-33.66,114.444-52.938,154.53-1.53
			c-11.322,2.448-22.644,5.202-33.354,8.568c-3.672,1.224-2.142,6.732,1.53,5.814c50.49-13.464,87.515-5.508,134.639,14.382
			c4.59,1.836,8.263-3.978,3.979-6.732c-11.322-7.65-23.562-13.158-36.108-16.83c110.16-59.976,209.304,12.24,237.15,125.46
			C579.794,394.271,471.471,488.519,366.818,491.273z"/>
		<path d="M243.195,221.993c-34.578,2.142-68.85,6.732-103.428,2.754c-2.754-0.306-3.366,3.366-1.836,4.59
			c-1.53,1.224-2.448,3.06-1.53,5.508c11.934,31.212,23.868,62.729,37.944,93.023c1.836,3.979,8.262,3.672,10.098,0
			c17.748-34.578,42.228-64.871,63.342-97.613C249.927,226.89,247.173,221.688,243.195,221.993z M146.805,232.091
			c0-0.306-0.306-0.612-0.612-0.918c28.764,3.978,57.528,1.224,86.598,1.53c-18.054,26.316-37.332,51.407-52.938,79.253
			C168.225,285.641,157.821,258.713,146.805,232.091z"/>
		<path d="M422.204,222.299c-31.518-3.672-63.647,13.464-94.859,5.202c-1.836-0.612-3.366,1.53-2.448,3.06
			c6.12,10.71,26.01,7.344,35.496,6.732c18.054-1.53,36.414-5.814,54.468-4.896c-9.792,29.988-22.338,58.751-36.108,87.209
			c-23.256-23.562-44.063-53.855-53.55-85.067c-1.836-5.508-10.404-3.366-8.874,2.448c10.404,35.802,33.354,70.686,59.977,96.389
			c2.447,2.448,7.344,2.143,8.874-1.224c16.523-33.354,31.518-67.319,42.228-102.815C428.63,225.359,425.57,222.605,422.204,222.299
			z"/>
		<path d="M315.104,352.349c-10.71-18.973-19.891-38.557-35.189-54.162c-2.142-2.143-5.202-1.224-6.732,0.918
			c-11.934,15.605-22.338,32.742-32.436,49.572c-0.612,0.611-0.306,1.529,0,2.142c-2.754,1.53-3.672,6.12-0.306,8.568
			c18.666,13.157,49.265,1.836,70.074,0.918C314.492,359.999,317.246,356.021,315.104,352.349z M244.725,350.513
			c11.628-13.158,21.42-28.152,32.13-42.229c10.404,12.546,18.053,27.234,25.397,41.922
			C282.975,351.737,264.615,356.021,244.725,350.513z"/>
		<path d="M483.404,356.327c-0.306,0.612-0.612,0.918-0.918,1.53c-62.424,26.622-124.848,29.376-191.556,33.966
			c-0.307,0-0.307,0-0.307,0.307c-3.365-0.918-7.649,1.836-6.731,6.119c2.448,11.629,2.141,23.257,1.835,34.885
			c-16.218-4.896-33.354-7.038-49.572-12.546c-0.918-7.345-0.918-14.994-1.836-22.645c1.836-2.142,1.53-6.12-1.53-7.344
			c-0.612-0.307-1.224-0.612-1.836-0.307c-52.938-2.447-105.57-12.546-143.208-51.102c-0.306-0.918-0.918-1.836-1.224-3.06
			c-0.612-1.53-1.836-1.836-3.06-1.836c-1.53-1.53-2.754-3.061-4.284-4.896c-1.224-1.836-4.284,0.612-3.06,2.448
			c1.836,2.754,3.672,5.202,5.814,7.956c51.102,164.934,335.069,167.076,410.346,21.726
			C495.338,355.715,486.771,350.513,483.404,356.327z M94.479,353.878c34.884,33.049,84.762,42.841,133.11,45.288
			c-0.612,7.956-0.612,16.219-1.836,24.175c-0.306,2.142,0,4.896,2.448,6.119c19.278,8.568,41.004,9.181,60.894,16.524
			c3.365,1.224,7.038-1.836,7.038-5.202c0-14.076,1.529-28.764-1.837-42.534c55.692,3.366,125.154,3.673,176.868-23.256
			C385.79,489.743,163.023,482.705,94.479,353.878z"/>
	</g>
</g>
</svg>