<?xml version="1.0" encoding="iso-8859-1"?>
<!-- Uploaded to: SVG Repo, www.svgrepo.com, Generator: SVG Repo Mixer Tools -->
<!DOCTYPE svg PUBLIC "-//W3C//DTD SVG 1.1//EN" "http://www.w3.org/Graphics/SVG/1.1/DTD/svg11.dtd">
<svg fill="#000000" version="1.1" id="Capa_1" xmlns="http://www.w3.org/2000/svg" xmlns:xlink="http://www.w3.org/1999/xlink" 
	 width="800px" height="800px" viewBox="0 0 578.488 578.488"
	 xml:space="preserve">
<g>
	<g>
		<path d="M573.829,245.105c-17.137-91.188-180.54-194.31-252.145-108.936c0.306-2.142-0.612-4.284-2.754-5.814
			c-26.928-18.36-8.874-83.538,18.666-93.636c3.978-1.53,6.732-7.038,2.754-10.404c-55.691-48.96-99.755,53.244-94.859,105.264
			c-29.376-37.638-81.396-36.72-126.072-25.704c-59.976,14.994-85.68,78.642-101.592,131.58
			c-21.114,69.462-28.458,148.716,6.12,214.506c30.294,57.834,98.532,98.227,163.098,81.702c0.306,0,0.612-0.306,0.918-0.306
			c48.654,38.556,153.611,43.758,200.429,5.813C530.988,532.745,597.39,370.565,573.829,245.105z M324.438,29.681
			c-32.436,22.032-46.817,89.046-12.24,111.996c1.53,0.918,3.061,1.224,4.591,0.918c-1.53,2.142-2.754,3.978-4.284,6.12
			c-0.307,0.306-0.307,0.918-0.307,1.224c-10.098-3.366-20.502-5.202-28.457-6.12c-7.65-0.918-18.972-1.53-30.294-0.612
			c0,0,0,0,0-0.306C249.163,111.995,280.987,1.223,324.438,29.681z M398.796,528.461c2.142-2.754,4.284-5.813,6.12-8.874
			c2.142-3.978-2.448-9.18-6.427-6.426c-59.363,41.004-175.643,58.141-225.521-8.874c-2.754-3.366-7.65-0.611-5.814,3.366
			c2.754,5.814,6.426,11.016,10.71,15.912c-72.828,8.262-130.356-41.922-156.06-107.406c-18.972-48.96-6.426-109.242,4.59-158.508
			c9.18-41.31,24.48-81.702,53.55-112.914c40.086-43.146,126.684-44.676,165.24-0.918c-14.994,2.142-28.764,7.956-33.354,20.502
			c-0.612,2.142,1.53,4.59,3.672,3.672c21.726-8.568,37.638-14.688,62.118-12.546c28.458,2.448,47.43,15.3,67.932,33.66
			c3.978,3.672,10.404,0,8.874-5.202c-3.672-13.77-16.218-23.256-30.906-29.682c41.616-56.61,114.75-31.212,164.935-1.836
			c52.02,30.294,72.828,75.888,77.111,134.028C573.829,394.127,507.121,507.959,398.796,528.461z"/>
		<path d="M253.447,256.427c-38.862-18.36-77.112-37.026-112.914-59.976c-0.306-0.612-0.306-1.224-0.612-1.836
			c-2.448-7.344-13.77-4.284-11.628,3.366c12.24,41.31,39.78,75.276,58.752,113.832c2.142,4.284,8.568,3.672,11.016,0
			c13.158-21.42,33.354-34.884,55.692-45.288C257.119,264.689,257.119,258.263,253.447,256.427z M193.165,296.514
			c-16.218-29.988-36.414-57.834-48.96-89.353c29.376,21.114,61.2,37.332,93.024,54.162
			C220.093,269.585,204.792,281.52,193.165,296.514z"/>
		<path d="M455.712,186.354c-35.802,17.748-74.358,32.13-107.406,54.774c-4.59-3.06-11.322,1.224-9.18,6.732
			c-0.612,0.612-1.53,0.918-2.143,1.53c-3.978,3.366,1.225,10.098,5.509,7.038c0.611-0.306,0.918-0.612,1.529-0.918
			c10.71,15.606,22.645,30.294,30.906,47.43c2.142,4.59,8.568,3.672,11.016,0c25.704-36.414,55.387-69.462,78.643-107.406
			C468.258,189.413,461.22,183.599,455.712,186.354z M354.426,249.083c27.54-16.524,57.222-28.458,86.292-41.616
			c-18.666,27.54-40.086,53.244-59.67,80.172C373.398,274.481,363.606,261.936,354.426,249.083z"/>
		<path d="M338.82,330.173c-11.321-15.605-20.502-33.048-32.741-48.042c-2.143-2.754-7.345-1.836-8.874,1.224
			c-8.874,18.054-21.114,34.271-28.152,53.244c-0.306,0.611-0.306,1.224-0.306,1.529c-1.224,4.284,0.918,9.181,6.12,8.568
			c19.89-2.448,41.004-0.306,59.976-7.65C338.514,337.823,341.268,333.846,338.82,330.173z M302.406,296.207
			c7.65,10.404,14.076,21.727,21.114,32.742c-14.382,2.754-29.069,2.754-43.451,3.672
			C286.801,320.075,295.062,308.447,302.406,296.207z"/>
		<path d="M484.17,350.063c0.611-3.979-2.448-7.038-6.426-6.12c-4.896,0.918-8.263,4.284-12.547,6.732
			c-7.956,4.59-17.441,7.037-26.315,9.791c-15.3,4.591-31.212,7.65-46.206,12.853c-2.143,0.612-3.061,2.142-3.366,3.978
			c-0.612,0.307-1.224,0.612-1.836,1.225c-14.688,13.158-26.316,29.682-40.086,44.063c-11.016-12.852-18.666-26.622-23.256-43.452
			c-0.612-2.447-3.366-4.896-6.12-4.59c-15.606,1.225-30.6,3.672-45.899,6.732c-2.142,0.306-3.06,2.448-2.754,4.284
			c-0.306,0.306-0.918,0.611-1.224,1.224c-10.404,13.77-20.808,25.398-33.354,36.414c-7.956-15.606-15.912-41.004-32.742-44.676
			c-32.436-7.038-70.38-19.891-96.696-39.78c-4.284-3.366-9.792,3.978-5.814,7.344l0,0c17.136,78.03,90.882,126.072,167.994,132.192
			c42.534,3.366,91.188,0.918,129.744-18.972c47.736-24.48,60.894-59.364,91.494-100.368
			C491.208,354.959,487.842,350.676,484.17,350.063z M431.844,420.443c-30.6,36.414-91.494,43.758-135.252,45.9
			c-79.56,3.672-156.671-39.168-186.966-112.608c15.912,11.016,33.66,17.442,52.632,23.256c11.016,3.366,21.114,8.568,32.436,11.322
			c16.218,3.978,24.174,33.966,32.436,46.512c2.448,3.672,6.426,3.672,9.486,1.224c16.218-12.852,29.07-27.233,41.31-43.758
			c1.224-1.529,1.224-3.06,0.918-4.284c14.381-2.142,31.517-6.426,37.026,8.568c5.201,15.3,15.3,28.152,26.01,39.78
			c2.448,2.754,6.731,2.448,9.18,0c16.218-14.994,30.906-32.437,44.676-49.572c1.225-1.53,1.53-3.06,1.53-4.284
			c18.054-3.06,36.108-6.426,53.856-11.321c4.59-1.225,11.321-3.061,17.748-6.12C456.324,383.417,446.532,403.308,431.844,420.443z"
			/>
	</g>
</g>
</svg>