<?xml version="1.0" encoding="iso-8859-1"?>
<!-- Uploaded to: SVG Repo, www.svgrepo.com, Generator: SVG Repo Mixer Tools -->
<!DOCTYPE svg PUBLIC "-//W3C//DTD SVG 1.1//EN" "http://www.w3.org/Graphics/SVG/1.1/DTD/svg11.dtd">
<svg fill="#000000" version="1.1" id="Capa_1" xmlns="http://www.w3.org/2000/svg" xmlns:xlink="http://www.w3.org/1999/xlink" 
	 width="800px" height="800px" viewBox="0 0 579.495 579.495"
	 xml:space="preserve">
<g>
	<path d="M547.813,205.191c-37.332-47.124-150.858-53.244-177.48,6.12c-1.224-3.366-2.448-6.426-3.978-9.792
		c9.485-18.36,14.688-40.392,6.119-59.976c-0.918-2.448-4.283-2.754-6.426-1.53c-11.628,6.426-19.584,17.136-25.092,29.07
		c-19.278-15.3-46.512-21.726-81.09-13.464c-2.448,0.612-3.978,2.142-4.59,3.672c-6.426,0.612-12.546,1.53-18.36,3.366
		c-2.754-4.59-7.65-8.262-11.322-11.934c-5.814-5.814-11.628-11.322-18.972-15.3c-2.448-1.224-5.814-0.612-7.038,1.836
		c-6.426,11.628-7.65,35.19,4.59,44.064c-3.978,3.366-7.344,7.038-10.71,11.016c-61.812-27.234-155.448-11.322-183.906,57.834
		c-26.622,65.178,4.284,142.289,68.85,171.054c2.754,1.224,5.202-0.307,6.12-2.448c0.306,0.306,0.306,0.306,0.306,0.611
		c2.142,1.837,5.508-0.611,3.978-3.06c-4.896-7.344-7.65-15.606-0.306-22.338c2.754-2.754,7.344-3.672,11.016-3.979
		c5.508-0.306,9.792,2.755,14.994,3.673c2.142,0.306,5.202-1.837,3.366-4.284c-0.306-0.307-0.306-0.307-0.612-0.612
		c0-0.612-0.306-1.224-0.918-1.836c-19.584-14.076-12.546-46.512,14.382-35.802c3.366,1.224,6.12-3.672,3.366-6.12
		c-7.65-6.426-11.322-13.771-11.628-23.868c0-3.978,1.224-7.65,3.06-11.322c4.284-7.956,12.24-2.142,17.136,0.918
		c1.836,1.225,3.366-0.306,3.672-1.836c1.224-0.306,2.142-0.918,2.142-2.447c0.306-6.427,1.224-12.24,7.038-15.606
		c4.284-2.753,8.568-1.529,13.158-1.529c7.65,43.451,38.556,80.783,96.696,80.478c58.14-0.307,93.33-37.332,105.876-80.784
		c5.814,3.671,5.202,10.404,3.061,18.053c-0.919,3.979,4.59,7.956,7.344,4.284c8.567-11.016,17.748-14.382,24.786-0.612
		c5.508,10.404,4.896,24.48,0.306,34.885c-1.224,2.447,0.612,4.59,2.754,4.59c0.612,1.224,1.836,2.142,3.366,1.224
		c11.322-7.344,20.502-8.262,22.338,7.344c1.224,9.486-1.836,19.584-6.732,27.54c-3.06,4.896,4.284,8.874,7.65,4.284
		c11.322-15.3,22.032-5.202,26.622,8.874c3.672,11.628,1.224,24.174-5.814,33.966c-1.529,0.918-3.06,1.53-4.59,2.448
		c-4.896,2.448-1.529,10.098,3.672,8.568C562.807,417.249,618.805,295.461,547.813,205.191z M366.049,151.335
		c3.672,13.464,0,27.54-5.202,40.392c-3.978-6.732-8.874-12.546-14.382-17.748C351.667,165.105,357.787,157.149,366.049,151.335z
		 M206.317,147.97c4.284,3.06,8.262,6.426,12.24,10.098c2.448,2.448,5.202,5.813,8.262,8.568
		c-6.426,2.754-12.546,6.426-18.054,10.71C204.481,168.166,202.951,157.456,206.317,147.97z M168.067,280.773
		c-5.814-0.612-12.546,1.53-16.524,3.978c-6.426,4.284-8.568,11.627-7.956,18.971c-8.262-7.649-19.584-6.731-25.398,4.284
		c-5.814,10.71-2.754,23.562,3.978,33.354c-20.808-0.612-30.906,24.786-18.972,40.392c-7.038-0.612-14.382,1.53-18.972,5.508
		c-7.956,6.427-8.568,15.912-4.59,23.868c-48.042-31.212-76.806-82.008-64.26-140.147c16.524-76.806,110.772-89.352,174.42-73.44
		c-2.142,3.06-4.284,6.12-6.12,9.486c-0.612,0-0.918,0.612-0.612,1.224C170.821,229.671,165.619,255.988,168.067,280.773z
		 M355.951,296.991c-4.284-8.567-8.874-17.136-16.218-23.868c-0.307-0.306-0.612-0.612-1.225-0.612v-0.306
		c1.225-3.978-4.284-5.814-6.426-2.754c-28.764,42.534-96.39,56.916-130.05,10.404c-1.53-2.142-4.896-1.53-5.508,0.612
		c-0.918-1.224-2.754-0.612-2.754,0.918c-0.306,12.239-3.06,27.539,3.978,38.556c7.956,12.239,24.786,0,29.988-10.099
		c27.846,12.24,65.178,9.792,89.046-7.956c0.306,0.307,0.612,0.612,0.918,1.225c9.18,7.649,20.502,9.18,30.906,5.813
		c-18.055,26.622-48.96,43.759-83.539,46.206c-56.916,3.979-88.128-42.84-84.762-94.859c3.366-54.162,46.818-90.27,99.45-91.8
		c0.918,0,1.53-0.306,2.142-0.918c45.9-0.612,78.948,29.07,82.926,79.254C366.661,265.474,363.295,282.304,355.951,296.991z
		 M336.367,279.244c5.202,6.732,8.567,13.769,12.24,21.114c-8.568,3.365-16.83,1.836-24.786-3.366
		C328.717,291.789,333.001,285.976,336.367,279.244z M221.311,306.478c-4.284,3.672-7.344,8.262-12.546,10.403
		c-3.366,1.225-4.59-2.754-5.202-5.202c-2.754-8.874-3.672-18.359-5.508-27.539C203.257,293.625,211.519,301.275,221.311,306.478z
		 M471.619,425.511c4.896-13.464,3.06-29.069-5.202-41.615c-6.426-10.404-15.606-12.546-23.868-9.792
		c2.143-9.486,1.53-19.584-2.754-28.458c-5.202-11.322-16.83-8.263-24.786-2.448c5.508-13.771,3.672-30.294-4.284-42.534
		c-7.649-11.627-18.054-9.792-26.622-3.672c-0.306-7.344-3.365-13.77-10.71-15.605c4.284-18.972,4.284-38.556,0.307-56.61
		c11.628-32.13,48.042-40.086,79.56-42.228c42.84-2.754,77.112,16.218,99.45,52.938
		C603.199,317.493,538.633,386.343,471.619,425.511z"/>
	<path d="M339.733,225.082c-0.307-0.918-0.918-1.53-1.836-2.142c0.306-1.836-0.307-3.672-2.448-3.672
		c-41.923,3.366-83.844,22.338-126.684,10.404c-0.306,0-0.612,0-0.918,0c-0.306-1.53-2.142-2.448-3.366-0.918
		c-11.628,14.688-2.448,30.6,13.464,36.414c17.748,6.426,39.168-6.12,40.698-25.398c4.284-0.306,8.874-0.612,13.158-0.918
		c4.896-0.306,10.098-0.918,15.3-1.224c5.507,12.546,18.36,21.42,32.436,20.502C334.837,256.906,344.935,239.158,339.733,225.082z
		 M223.147,258.129c-11.934-2.142-19.278-11.934-16.524-23.256c0.306,0,0.306,0.306,0.612,0.612
		c3.366,1.224,6.426,2.142,9.792,2.754c0,0.306,0,0.306,0,0.612c-0.918,0.612-1.53,1.53-1.53,2.754
		c0.612,3.672-1.224,7.344,0.306,11.016c2.142,4.896,8.262,4.59,12.546,4.284c2.142-0.306,3.978-1.53,3.978-3.978
		c0-3.366,0.306-8.874-2.448-11.322c-1.53-1.224-3.672-1.53-5.508-0.306c0-0.918,0-1.53-0.306-2.142
		c8.568,1.224,17.136,1.53,26.01,1.224C244.261,251.397,237.835,260.578,223.147,258.129z M318.313,248.644
		c-10.099,2.448-19.278-3.978-25.398-11.628c3.978-0.306,7.956-0.918,11.934-1.53c0,0.306,0,0.918,0,1.224
		c-0.918,0.918-1.529,2.448-0.306,3.672c0.306,0.306,0.918,0.612,1.53,1.224c1.224,2.448,2.754,4.59,5.508,4.896
		c1.224,0.306,2.142,0,3.06-0.612c1.225,0,2.143-0.306,2.755-1.53c1.836-3.06,3.06-6.12,3.06-9.792c0-0.918-0.306-1.53-0.918-2.142
		c3.672-1.224,7.344-2.448,10.71-3.978C329.329,237.322,329.329,245.89,318.313,248.644z"/>
</g>
</svg>