<?xml version="1.0" encoding="iso-8859-1"?>
<!-- Uploaded to: SVG Repo, www.svgrepo.com, Generator: SVG Repo Mixer Tools -->
<!DOCTYPE svg PUBLIC "-//W3C//DTD SVG 1.1//EN" "http://www.w3.org/Graphics/SVG/1.1/DTD/svg11.dtd">
<svg fill="#000000" version="1.1" id="Capa_1" xmlns="http://www.w3.org/2000/svg" xmlns:xlink="http://www.w3.org/1999/xlink" 
	 width="800px" height="800px" viewBox="0 0 576.603 576.603"
	 xml:space="preserve">
<g>
	<g>
		<path d="M413.875,99.815c-2.754-53.244-60.281-90.882-108.018-97.308c-57.223-7.65-152.082,0-186.049,54.162
			c-34.884,55.998,30.906,141.372,92.412,128.214c-7.344,9.486-9.18,22.95,3.979,29.376c11.016,5.508,19.584-1.224,24.786-10.098
			c2.754,8.262,8.262,14.688,18.666,15.3c7.038,0.306,11.321-3.672,13.464-8.874c3.366,5.202,8.567,8.262,16.218,7.038
			c13.158-2.142,17.442-18.666,16.219-31.518C356.654,184.883,417.242,158.873,413.875,99.815z M304.328,176.315
			c-0.306,0-0.306,0.306-0.612,0.306l0,0c-1.836-3.978-7.037-1.53-7.344,2.142c-0.611,9.18,1.53,17.442-2.754,25.704
			c-7.65,14.994-15.606-0.306-18.36-10.404c-0.306-2.142-0.611-3.978-0.918-5.508c-1.224-3.978-7.956-3.366-7.344,0.918
			c0,0.306,0,0.612,0,0.918l0,0c0,0,0,0,0,0.306c0.306,2.142,0.612,4.284,1.224,6.426c0.612,6.732-0.306,13.77-8.262,14.688
			c-11.934,1.53-14.076-16.218-12.852-23.868c0.918-4.896-6.732-7.344-7.65-2.142c-1.53,8.874-5.814,23.256-17.442,21.114
			c-13.157-2.448-5.508-18.054-1.224-24.48c1.53-2.142-1.53-3.978-3.366-2.448c-0.306,0.306-0.306,0.306-0.611,0.612
			c-0.307-1.53-1.53-2.754-3.366-2.754c-76.5,9.486-121.788-104.346-51.103-143.208c41.922-22.95,111.078-28.152,156.979-17.136
			c39.168,9.486,77.418,41.004,82.926,82.314C408.98,154.895,344.72,169.277,304.328,176.315z"/>
		<path d="M358.795,336.354c-23.867-5.509-51.102,1.836-68.238,18.666c-7.038-9.486-12.546-20.196-17.136-31.212
			c13.158-8.874,31.212-14.383,42.841-14.994c6.426-0.307,6.426-9.792,0-9.792c-12.24-0.307-31.519,5.508-46.513,15.3
			c-3.978-11.935-6.426-24.48-7.65-37.333c14.688-7.65,32.437-10.71,48.654-9.486c5.202,0.306,5.814-7.344,1.225-8.874
			c-15.3-4.896-34.272-1.53-50.49,6.732c-0.307-9.792,0-19.584,1.529-29.682c0.612-4.284-6.119-4.896-7.344-0.918
			c-3.06,11.628-4.59,24.174-4.59,36.72c-18.36,12.852-30.294,32.742-24.479,54.774c0.611,2.754,5.201,2.448,5.201-0.611
			c-0.918-18.36,7.345-32.437,19.891-42.229c0.918,13.159,3.672,26.317,7.956,38.863c-10.099,9.485-15.301,21.726-8.568,34.884
			c1.53,3.366,6.426,0.918,5.508-2.448c-1.53-8.567,1.225-15.912,6.732-22.338c4.896,11.935,11.321,22.95,18.666,32.742
			c-4.59,7.344-7.65,15.912-7.956,25.398c-0.307,4.283,7.038,5.508,7.649,0.918c1.225-7.038,3.673-13.158,7.038-18.36
			c12.24,13.464,27.234,24.174,44.982,30.294c5.202,1.836,8.874-6.732,3.672-8.874c-16.218-7.956-29.682-18.36-40.392-30.906
			c14.994-13.464,38.25-17.441,59.67-16.218C363.692,347.675,364.916,337.578,358.795,336.354z"/>
		<path d="M404.083,363.282c-12.239-8.262-30.905-11.322-41.004,2.448c-6.12,8.262-7.649,18.054-9.18,28.151
			c-3.672,22.338-14.382,25.398-35.802,19.584c-0.918-0.306-1.53-0.306-2.143,0c-14.994-6.426-37.026-11.934-42.84,5.508
			c-7.956,24.48,20.808,46.818,38.25,58.141c17.442,11.016,47.736,32.436,70.074,25.092c24.174-7.956,10.098-41.004,6.426-59.058
			c0,0,23.562-7.956,26.622-10.099c7.344-4.59,11.016-12.852,12.546-21.113C429.788,394.494,418.16,373.074,404.083,363.282z
			 M381.746,432.131c-2.448,0-4.896,2.143-4.59,4.59c0.612,12.547,4.59,24.48,7.038,36.721c6.12,33.354-35.496,12.24-48.96,5.508
			c-13.771-7.344-27.54-16.524-38.556-27.54c-6.427-6.426-12.24-15.3-13.159-24.786c-1.224-11.934,16.524-9.792,29.377-6.731
			c0.611,0.918,1.224,1.836,2.754,2.447c35.496,12.546,42.84-6.731,48.654-37.025c5.813-30.294,34.271-21.114,47.124-1.836
			C429.482,410.1,411.122,431.52,381.746,432.131z"/>
		<path d="M203.654,142.043c-3.061-11.322-7.345-22.338-11.935-33.354c5.508-19.278,8.874-39.474,10.71-58.14
			c0.307-3.06-4.59-3.672-5.202-0.612c-3.978,13.158-8.873,26.316-13.464,39.78c-3.365-7.956-6.731-15.912-9.792-23.868
			c-1.836-4.896-9.792-3.06-7.956,2.142c3.673,12.24,7.65,25.398,12.24,38.25c-3.366,11.322-6.426,22.644-7.649,33.966
			c-0.612,4.896,7.037,6.732,9.18,2.448c2.448-5.202,4.59-10.71,6.731-16.524c3.061,6.732,6.427,12.852,10.099,18.972
			C198.452,149.387,204.877,146.633,203.654,142.043z"/>
		<path d="M337.07,135.311c-4.59-7.038-9.486-14.382-14.382-21.42c3.978-14.382,7.344-29.07,10.098-43.452
			c0.612-3.366-3.978-4.59-5.202-1.53c-3.978,11.016-8.567,22.338-12.852,33.966c-6.12-7.956-12.853-15.912-20.196-22.338
			c-3.366-2.754-8.262,1.836-4.896,4.896c9.181,7.956,15.606,17.442,21.727,27.234c-4.59,14.382-8.568,29.376-9.18,43.758
			c-0.307,4.284,5.813,4.59,7.344,0.918c3.366-10.404,6.732-21.114,9.792-31.824c3.06,4.896,6.12,9.792,9.792,14.382
			C332.48,144.797,340.436,140.513,337.07,135.311z"/>
		<path d="M205.183,267.809c-100.979,3.366-153.611-68.544-167.688-160.956c-0.612-4.59-7.65-3.366-7.65,0.918
			c0.307,98.532,74.053,179.01,175.338,166.464C208.856,273.623,209.162,267.809,205.183,267.809z"/>
		<path d="M24.643,72.275c-7.037-5.202-8.567-13.464-9.485-21.42c-0.307-3.978-5.814-3.978-6.12,0
			c-0.918,11.322,2.754,20.808,12.24,27.54C24.95,80.537,28.009,74.723,24.643,72.275z"/>
		<path d="M46.675,58.811c-0.306-2.448-3.672-2.448-3.978,0c-0.918,9.18-0.307,18.054,0.306,27.234c0.306,2.142,3.366,2.142,3.672,0
			C46.982,76.865,47.593,67.991,46.675,58.811z"/>
		<path d="M72.685,54.221c-9.792,10.71-12.239,22.95-11.628,37.332c0,3.672,5.509,3.672,5.509,0
			c0.918-12.24,4.59-23.256,10.403-33.966C78.5,54.833,74.828,51.773,72.685,54.221z"/>
		<path d="M497.414,68.603c-20.196,77.418-43.758,171.972-135.558,188.802c-3.061,0.612-2.448,5.508,0.611,5.508
			c88.74-2.754,137.395-117.198,142.902-193.086C505.982,64.931,498.638,64.319,497.414,68.603z"/>
		<path d="M495.883,16.583c-1.529-3.06-5.508-0.918-5.201,2.142c1.224,7.65,5.508,14.688,8.567,21.726
			c1.225,3.06,5.814,1.836,4.896-1.224C501.698,31.577,499.556,23.621,495.883,16.583z"/>
		<path d="M520.364,11.993c-0.306-2.754-4.896-2.754-5.202,0c-1.224,7.956-0.918,15.3,0.612,22.95c0.306,2.142,3.978,2.142,4.284,0
			C521.282,27.293,521.894,19.643,520.364,11.993z"/>
		<path d="M550.352,9.851c-4.896,4.59-7.956,11.322-11.628,16.524c-4.284,6.12-9.181,11.628-14.994,16.524
			c-2.754,2.448,0.918,7.038,3.978,4.896c6.12-4.284,11.628-9.18,16.83-14.688c4.896-5.508,11.017-12.546,12.853-19.584
			C558.001,9.545,553.412,7.097,550.352,9.851z"/>
		<path d="M539.03,422.034c-1.836-2.448-5.508-0.306-3.979,2.448c7.65,13.464,36.414,70.686-0.918,59.363
			c-24.174-7.344-37.332-28.458-51.714-48.348c-1.836-25.092-7.344-49.878-14.688-73.44c9.485,2.448,18.972,2.448,29.988,0.919
			c6.119-0.919,3.978-9.486-1.225-10.099c-12.546-0.918-22.644,0.307-34.884-5.508c-4.284-2.142-10.71,1.224-8.874,6.732
			c7.65,21.113,12.852,42.228,16.218,63.647c-3.366-3.672-7.038-7.344-11.016-10.404c-3.061-2.447-7.038,1.53-4.284,4.284
			c6.426,5.508,11.628,11.935,16.83,18.666c2.448,21.727,2.754,43.758,0.918,66.097c-0.306,3.978,6.12,4.896,7.038,0.918
			c3.672-15.912,5.202-32.131,4.896-48.654c4.896,7.65,10.098,14.994,15.605,22.032c10.404,12.546,32.437,27.54,49.878,23.562
			C580.034,487.518,548.516,435.192,539.03,422.034z"/>
		<path d="M567.182,418.667c-4.284-8.874-17.442-16.523-26.622-19.278c-10.099-3.06-18.36,2.448-23.256,11.017
			c-2.448,4.284,3.978,7.956,6.731,3.978c12.546-18.054,26.316,4.284,38.25,9.486C565.652,425.4,569.018,422.339,567.182,418.667z"
			/>
		<path d="M527.708,273.317c-13.464,2.754-22.644,10.71-37.025,10.71c-2.754,0-4.284,3.06-3.061,5.202
			c17.442,30.601,28.458,65.179,36.108,99.45c0.611,2.755,4.59,1.53,4.284-1.224c-4.896-34.271-17.137-65.178-31.824-96.084
			c12.24,0.306,23.562-4.285,33.966-11.935C533.522,276.989,531.686,272.399,527.708,273.317z"/>
		<path d="M478.748,551.166c-0.612-4.896-6.731-5.813-8.567-1.224c-3.673,9.18-4.591,18.359-16.83,17.748
			c-9.181-0.307-18.36-6.426-25.704-11.322c-14.382-9.18-29.07-22.032-38.25-36.72c-1.53-2.754-5.508-0.307-4.284,2.448
			c9.792,21.113,32.436,39.474,52.632,49.878C456.104,581.766,481.501,576.564,478.748,551.166z"/>
		<path d="M510.572,547.494c-4.896-11.934-14.382-25.092-26.622-30.294c-11.628-5.202-22.95,1.836-31.212,9.792
			c-3.06,3.06,1.53,7.65,4.896,4.896c22.031-19.89,33.354,1.837,45.899,18.666C505.982,553.614,512.408,551.778,510.572,547.494z"/>
	</g>
</g>
</svg>