<?xml version="1.0" encoding="iso-8859-1"?>
<!-- Uploaded to: SVG Repo, www.svgrepo.com, Generator: SVG Repo Mixer Tools -->
<!DOCTYPE svg PUBLIC "-//W3C//DTD SVG 1.1//EN" "http://www.w3.org/Graphics/SVG/1.1/DTD/svg11.dtd">
<svg fill="#000000" version="1.1" id="Capa_1" xmlns="http://www.w3.org/2000/svg" xmlns:xlink="http://www.w3.org/1999/xlink" 
	 width="800px" height="800px" viewBox="0 0 586.641 586.641"
	 xml:space="preserve">
<g>
	<g>
		<path d="M385.157,399.336c-17.137-34.884-65.79-51.407-69.462-92.718c-0.307-3.978-6.427-3.978-6.12,0
			c0.918,41.004,41.616,57.528,62.118,87.822c-16.524-3.978-33.354-7.344-49.878-11.628c-14.688-3.672-51.103-9.792-52.938-28.764
			c-0.307-3.979-6.12-5.509-7.345-0.918c-2.447,8.873,2.143,16.523,10.711,22.644c-0.919,0.306-2.143,0.612-3.061,1.53
			c-2.448,1.836-3.672,4.283-4.284,7.038c-0.918,3.978-0.306,10.71,1.53,14.382c1.836,3.366,8.874,4.896,12.24,5.508
			c3.672,0.612,7.344,0.612,10.403-1.224c2.143-0.918,3.979-2.448,5.509-4.284c0.611-0.612,1.224-1.53,1.836-2.143
			c0.918-1.224,1.529-0.918,0-0.918c3.672-0.306,4.896-4.283,3.672-6.731c29.988,9.792,68.238,14.382,79.561,17.441
			C384.239,407.292,386.993,403.009,385.157,399.336z M288.154,392.91c-3.672,4.284-9.485,2.754-14.075,0.612
			c-0.918-3.672-2.143-8.874,1.529-10.71c1.53-0.918,3.061-1.53,4.591-2.142c4.59,2.447,9.791,4.59,15.3,6.426
			C292.133,387.708,290.297,390.156,288.154,392.91z"/>
		<path d="M319.979,436.668c-16.218-17.748-40.392-20.808-61.506-10.71c-3.06,1.53-0.306,5.814,2.754,4.591
			c20.809-9.181,37.944-3.366,54.774,10.403C318.755,443.095,322.427,439.423,319.979,436.668z"/>
		<path d="M231.238,328.038c-7.649-4.283-18.359-2.142-26.928-2.447c-13.158-0.612-25.704-3.673-37.943-8.568
			c-6.427-2.448-10.711,7.956-4.591,11.016c6.427,3.366,13.158,5.814,20.196,7.65c-1.53,5.202-4.896,9.792-5.508,15.3
			c-0.306,3.061,1.224,6.12,2.448,8.568c2.447,4.59,5.201,5.508,10.098,5.813c2.754,0,6.426,0.612,8.874,0
			c3.366-0.918,5.202-4.896,6.426-7.956c0.918-2.447,0.612-5.508,0.918-8.262c0-3.366,0.918-6.12,0.918-9.18
			c8.568,1.224,18.36,2.142,25.092-1.53C235.217,335.994,235.217,330.181,231.238,328.038z M195.743,338.137
			c-1.53,2.447-2.448,5.202-2.448,8.262c-0.307,1.836,0.306,5.202,0,7.344c-1.53,0-3.061,0-4.896,0.307
			c-2.142-2.448-2.447-4.896-1.529-8.568c0.918-2.754,1.529-5.508,2.142-8.262C191.152,337.524,193.601,337.83,195.743,338.137z"/>
		<path d="M448.805,321.307c2.143-2.143,2.448-6.12,0-8.262c-8.262-7.65-30.905-1.225-41.31-0.307
			c-7.038,0.612-14.688,1.225-21.727,2.448c-3.06,0.612-4.896,1.836-5.813,4.59c0.612-1.836,0.612-1.53-1.53-0.612
			c-2.754,1.53-1.836,5.202,0.918,6.12c0.612,0.307,1.53,0.307,2.143,0c0,0,0,0,0.306,0c1.53,1.836,3.672,2.143,6.12,2.143
			c7.344,0,14.688-0.918,21.726-1.225c-0.306,0.307-0.306,0.918-0.306,1.225c-0.307,5.202-3.672,9.18-2.448,14.382
			c1.836,8.262,14.076,10.404,20.808,11.934c2.448,0.612,5.202-0.306,6.427-2.447c2.142-4.591,3.672-9.181,3.366-14.383
			c-0.307-3.365-1.837-6.426-2.143-9.792c0-1.224-0.612-2.142-0.918-2.754h0.306C439.625,324.673,444.827,325.284,448.805,321.307z
			 M424.325,335.994c0.611,2.448,0.918,4.59,0.306,6.427c-2.448-0.612-4.59-1.225-6.731-1.837c-0.612-0.306-1.837-0.918-2.143-1.224
			c0,0,0,0-0.306,0c-0.307-3.366,1.53-7.344,1.224-11.322c0-0.611-0.306-1.224-0.306-1.836c2.142,0,4.59-0.306,6.731-0.306
			c-0.306,0.612-0.306,1.224-0.306,2.142C422.795,330.486,423.713,333.24,424.325,335.994z"/>
		<path d="M534.179,207.475c12.546-12.546,10.404-25.704-26.928-35.496c1.53-2.448,1.53-5.814-1.836-7.344
			c-50.49-24.174-102.204-12.546-156.061-14.382c-2.447,0-3.365,1.53-3.365,3.366c-14.688-22.338-29.07-44.37-39.78-69.462
			c0.612,1.53,80.478-7.344,92.105-9.18c5.202-0.612,5.814-8.874,1.53-11.016c-44.37-21.114-150.858-103.122-196.758-41.31
			c-35.19,47.124-40.698,140.148-25.704,195.228c0.918,3.978,6.731,2.142,5.813-1.53c-1.836-9.18-2.754-18.666-3.365-28.458
			c52.02,1.836,113.22,7.65,157.896-23.868c5.814,8.262,11.628,16.218,17.748,23.868c3.979,5.202,12.24,0.612,8.874-5.202
			c-5.202-8.874-10.71-17.442-16.218-26.01c0.306,0.306,0.612,0.306,1.224,0.306c48.96,5.814,97.002-2.754,143.82,14.688
			c-1.836,2.754-1.224,6.732,2.754,7.956c65.79,17.748-11.322,44.064-35.189,51.102c-47.736,14.382-98.532,21.726-148.104,22.95
			c-88.74,2.142-178.092-8.262-265.914,7.956c-6.426-2.448-11.934-7.344-15.912-14.688c4.896-4.59,10.404-8.568,16.524-11.934
			c12.546-7.65,27.54-11.322,41.615-14.382c25.093-5.508,52.021-3.366,76.807-10.404c4.59-1.224,3.366-7.65-0.918-7.65
			c-47.124-2.754-112.302,6.426-145.962,42.534c-1.836,2.142-1.836,4.59,0,6.732c7.344,8.568,13.77,12.24,21.42,13.464
			c-27.234,71.297-27.234,142.595-12.853,216.954c0.612,3.366,5.509,5.508,8.263,3.366c14.075-10.404,28.151-15.606,44.37-22.645
			c-0.612,0.306,4.59,44.982,4.896,48.96c2.754,26.622,11.628,47.736,28.458,67.933c3.06,3.672,8.262,1.224,9.486-2.448
			c7.038-18.666,18.054-33.354,29.069-49.267c3.366-4.896,18.055,22.645,19.278,24.174c11.016,16.524,26.01,26.011,43.758,33.66
			c3.672,1.53,6.732,0.307,8.262-3.365c7.038-17.442,17.442-34.272,21.114-52.938c1.225-7.038-8.874-9.792-10.71-3.06
			c-3.366,14.993-11.322,27.846-17.136,42.228c-7.65,19.584-52.632-50.796-57.222-59.364c-1.836-3.978-7.65-3.672-9.792,0
			c-10.099,17.137-25.704,33.66-32.742,52.021c-5.508,14.076-22.645-70.38-21.727-63.954c-1.529-14.382-2.142-28.764-3.672-43.146
			c-0.306-4.59-4.284-6.731-8.567-4.896c-10.71,4.896-21.727,9.18-32.742,14.076c-27.847,12.239-20.196-34.272-22.032-56.61
			c-3.978-47.736,3.06-95.166,17.442-140.454c1.836-0.306,3.365-0.306,5.201-0.612c2.755,0,5.509,0,8.874-0.306
			c0.612,0,0.918-0.306,1.225-0.612c39.474-4.284,78.948-4.896,118.422-4.284c-11.934,13.77-26.316,25.398-37.944,39.474
			c-3.672,4.284-5.508-3.978-10.71-7.65c-2.754-1.836-6.426,0.612-6.426,3.672c-0.306,14.993-1.836,29.682-2.448,44.369
			c-0.306,0.307-0.611,0.307-0.918,0.612c-14.994,16.83-33.048,29.376-53.55,38.556c8.568-17.747,12.24-37.331,18.666-55.997
			c1.836-5.814-7.344-9.792-9.792-4.284c-9.792,22.95-11.934,47.735-26.622,68.544c-3.672,4.896,3.061,9.792,7.65,7.649
			c20.502-9.485,41.004-20.808,57.222-36.72C81.604,446.767,218.999,510.414,285.4,518.982
			c117.505,14.994,224.91-71.604,206.244-195.534c10.099,10.099,22.032,18.36,36.721,24.174c4.284,1.53,6.731-4.896,3.366-7.038
			c-8.874-30.6-15.912-59.363-14.076-91.799c0.306-4.284-6.732-5.508-7.65-0.918c-6.426,29.682,3.061,59.364,13.158,87.209
			c-28.764-19.277-46.206-41.922-57.528-76.805c-1.224-3.978-6.731-4.896-8.874-1.224c-17.748,28.152-16.83,19.89-34.578-0.918
			c-2.142-2.448-6.426-1.53-7.956,0.918c-6.426,11.934-16.218,20.808-24.174,30.906c-1.224-7.65-2.754-15.3-3.366-23.256
			c-0.306-3.672-5.508-7.344-8.567-3.672c-7.65,9.18-33.354,26.01-33.66,36.108c0.612-11.934-8.568-24.174-11.934-35.802
			c44.063-1.836,87.821-7.344,131.886-19.89c21.113-6.12,48.96-17.136,64.872-29.07c21.726,102.51,42.534,201.348,10.71,303.245
			c-6.12-14.688-13.464-28.458-21.114-42.84c-2.448-4.896-8.874-3.06-10.71,1.53c-7.038,18.359-14.382,36.414-23.562,53.855
			c-15.3,29.376-22.644-1.224-29.376-12.852c-2.142-3.672-7.956-3.979-9.792,0c-6.731,13.77-16.829,25.092-26.315,37.026
			c-16.218,21.42-19.278-7.65-26.622-30.601c-2.142-7.038-13.158-3.978-11.016,3.061c6.426,19.89,15.3,36.414,26.928,54.162
			c2.754,4.283,8.567,3.06,10.404-1.225c7.344-18.054,14.382-23.562,25.703-39.168c11.935-16.523,14.076,5.508,22.032,19.584
			c1.836,3.061,6.732,3.979,8.874,1.225c14.076-16.219,23.562-33.049,32.13-52.633c13.771-31.212,20.196,9.792,26.622,29.07
			c1.836,5.814,9.486,5.508,11.628,0C584.057,430.549,571.817,311.208,534.179,207.475z M268.265,178.405
			c-28.764,5.202-59.058,3.978-88.128,4.59c-1.836-44.064,7.344-92.412,20.808-131.274c27.234-78.336,122.095-16.524,176.257,13.77
			c-26.622,2.448-53.55,2.754-80.173,3.06c-3.672,0-7.344,3.978-5.813,7.65c9.792,28.764,25.092,55.692,42.534,81.09
			C311.717,165.859,291.521,174.427,268.265,178.405z M316.001,261.943c-7.038,10.098-15.3,20.196-19.278,31.518
			c-0.306,0.611-19.278-24.786-22.338-31.212C288.154,262.249,301.925,262.249,316.001,261.943z M266.429,262.249
			c-7.344,9.792-21.114,17.136-26.928,27.846c-6.732,12.239-36.721-17.748-46.513-29.376
			C217.469,261.331,241.948,261.943,266.429,262.249z M334.667,305.395c-0.612,3.978,4.284,8.262,7.65,4.284
			c10.71-12.546,23.867-22.644,35.495-34.272c1.225,8.568,3.061,17.136,3.979,26.009c0.306,4.591,6.731,7.345,9.18,2.448
			c6.732-12.851,16.83-21.725,26.011-32.129c5.508-6.426,16.523,18.666,18.054,21.726c1.836,3.365,6.731,3.06,8.567,0
			c4.896-7.956,10.404-15.606,15.606-23.256c6.732,18.054,15.606,34.577,27.846,48.041c-2.142,0.307-4.283,1.836-4.283,4.284
			c-5.202,56.61-9.181,107.101-54.162,147.492c-36.108,32.742-88.74,40.392-135.559,37.332s-94.248-21.726-129.744-52.326
			c-32.742-28.152-39.168-60.588-39.168-99.45c0.612-0.306,0.918-0.918,0.918-1.529c0.306-3.366,0.918-6.732,1.225-9.792v-0.307
			c1.529-11.321,3.365-22.644,4.896-33.966c0.306-1.224,0-2.142-0.306-2.754c0.306,0.612,1.224,2.448,3.978,7.038
			c1.836,2.754,5.814,2.754,7.65,0c3.978-6.426,38.25-50.795,45.594-41.921c13.464,15.606,31.518,22.032,48.654,33.047
			c2.142,1.224,5.202,0.612,6.12-1.53c7.649-14.076,18.054-18.666,26.928-30.599c-1.53,2.142,22.338,33.66,23.256,35.801
			c1.836,3.979,7.345,2.448,8.263-1.224c6.119-17.442,15.605-29.988,25.092-44.982C329.159,277.243,337.115,290.401,334.667,305.395
			z"/>
		<path d="M347.213,186.361c-23.868,13.464-48.96,20.808-75.888,26.316c-7.345,1.53-88.129,16.218-84.763-5.814
			c0-0.612-0.611-0.612-0.611-0.306c-11.017,41.922,149.021,5.814,167.688-12.24C357.311,190.033,352.109,183.607,347.213,186.361z"
			/>
	</g>
</g>
</svg>