<svg width="200" height="200" xmlns="http://www.w3.org/2000/svg">
 <g>
  <title>Layer 1</title>
  <g stroke="null" id="svg_1">
   <path stroke="null" id="svg_2" fill="#FFA9A2" d="m146.6229,1.1225c0.42867,11.71909 1.79443,21.85368 -1.00251,30.1229l-11.78688,0c-7.10196,9.7203 -6.41852,17.23615 -1.35543,23.51169l9.18274,-3.55481c1.64523,-4.01882 -16.43047,-9.65996 8.14121,-11.7926c3.32603,1.21016 11.97855,3.99843 22.4318,7.31997c2.19039,-14.66246 14.9706,-15.63466 27.24066,-19.48777l-8.23073,-12.60588c-20.312,5.95047 -31.86933,-6.80625 -44.62085,-13.51349l-0.00001,-0.00001zm2.79981,54.33357c-6.74446,0.54303 -10.48653,3.30922 -13.68804,6.47567c-3.3817,9.29029 -0.06313,18.57973 0.76035,27.87001l-21.29098,26.18184c-12.50994,7.28088 -12.00035,-0.36797 -13.58073,-4.9736c-10.59614,7.86514 -9.13339,17.39167 -13.79363,25.80622l-39.1601,2.53375l-31.55601,19.42488l18.81941,5.63009l3.61181,-5.91181l27.75425,-8.44514l11.02653,0.28086l1.13966,9.00899l8.36444,7.31997l19.00993,-12.66877l-4.94257,-7.60126c9.49147,-3.90664 9.21603,1.54668 13.30758,2.81547l9.7543,-2.8928l4.58736,-6.1965l3.85513,5.36834l7.74697,-9.99395l7.65516,5.52812l8.98305,-10.95722l7.53465,-52.5192l-15.89851,-22.08398l-0.00002,0.00002zm-86.30533,98.95535l-6.46328,5.20858l-8.36444,-0.56301l-8.84017,8.58663l8.4597,8.86707l19.00993,-7.88213l9.12422,-8.72771c-2.84343,-3.43329 -6.57461,-5.98956 -12.92598,-5.48987l0,0.00042l0.00001,0.00001zm-44.48371,8.58663c-5.83663,1.82713 -11.75703,3.02665 -17.10819,8.44599l14.06736,8.72686c-5.59446,5.48987 -3.9521,10.97889 -4.37274,16.46876l9.6952,3.23783l8.7449,-4.78579c-1.36863,-7.75423 1.78353,-14.95097 6.46328,-21.95949l-3.80233,-5.63009l-13.68747,-4.50407l-0.00001,0z"/>
  </g>
  <g stroke="null" id="svg_3">
   <path stroke="null" id="svg_4" d="m52.47745,30.53353c4.52073,0 8.15102,-3.69878 8.15102,-8.15102s-3.63028,-8.08252 -8.15102,-8.08252s-8.08252,3.63028 -8.08252,8.08252s3.63028,8.15102 8.08252,8.15102zm9.65793,1.6439l-18.15142,0c-5.82215,0 -9.38394,4.72622 -9.38394,10.54837l0,19.04187c0,4.79472 6.43862,4.79472 6.43862,0l0,-18.35691l2.05488,0l0,48.28963c0,2.46585 2.05488,4.52073 4.52073,4.52073s4.52073,-2.05488 4.52073,-4.52073l0,-26.57642l2.05488,0l0,26.50793c0,2.46585 2.05488,4.52073 4.52073,4.52073c2.46585,0 4.52073,-2.05488 4.52073,-4.52073l0,-48.28963l2.05488,0l0,18.35691c0,4.93171 6.43862,4.93171 6.30163,0l0,-18.90488c0,-5.34268 -3.15081,-10.61687 -9.45244,-10.61687l-0.00001,0zm38.8372,-1.6439c4.45224,0 8.08252,-3.63028 8.08252,-8.08252s-3.63028,-8.08252 -8.08252,-8.08252s-8.15102,3.56179 -8.15102,8.01402s3.69878,8.15102 8.15102,8.15102zm-11.57581,31.23415l0,-18.35691l2.05488,0l0,48.28963c0,2.46585 2.05488,4.52073 4.52073,4.52073c2.46585,0 4.52073,-2.05488 4.52073,-4.52073l0,-26.57642l2.05488,0l0,26.50793c0,2.46585 2.05488,4.52073 4.52073,4.52073s4.52073,-2.05488 4.52073,-4.52073l0,-48.28963l2.05488,0l0,18.35691c0,4.93171 6.43862,4.93171 6.30163,0l0,-18.90488c0,-5.41118 -3.15081,-10.68537 -9.45244,-10.68537l-18.15142,0c-5.82215,0 -9.38394,4.72622 -9.38394,10.54837l0,19.04187c0,4.86321 6.43862,4.86321 6.43862,0.0685l-0.00001,0zm60.00244,-31.23415c4.45224,0 8.08252,-3.63028 8.08252,-8.08252s-3.63028,-8.08252 -8.08252,-8.08252s-8.08252,3.56179 -8.08252,8.01402s3.56179,8.15102 8.08252,8.15102zm-11.64431,31.23415l0,-18.35691l2.05488,0l0,48.28963c0,2.46585 2.05488,4.52073 4.52073,4.52073c2.46585,0 4.52073,-2.05488 4.52073,-4.52073l0,-26.57642l2.05488,0l0,26.50793c0,2.46585 2.05488,4.52073 4.52073,4.52073s4.52073,-2.05488 4.52073,-4.52073l0,-48.28963l2.05488,0l0,18.35691c0,4.93171 6.43862,4.93171 6.30163,0l0,-18.90488c0,-5.41118 -3.15081,-10.68537 -9.45244,-10.68537l-18.08293,0c-5.82215,0 -9.38394,4.72622 -9.38394,10.54837l0,19.04187c0,4.86321 6.37012,4.86321 6.37012,0.0685zm-77.05793,51.16646c0,-4.45224 -3.63028,-8.08252 -8.08252,-8.08252s-8.08252,3.63028 -8.08252,8.08252c0,4.45224 3.63028,8.08252 8.08252,8.08252s8.08252,-3.56179 8.08252,-8.08252zm1.43841,9.79492l-18.15142,0c-5.82215,0 -9.38394,4.72622 -9.38394,10.54837l0,19.04187c0,4.79472 6.43862,4.79472 6.43862,0l0,-18.35691l2.05488,0l0,48.28963c0,2.46585 2.05488,4.52073 4.52073,4.52073s4.52073,-2.05488 4.52073,-4.52073l0,-26.50793l2.05488,0l0,26.50793c0,2.46585 2.05488,4.52073 4.52073,4.52073c2.46585,0 4.52073,-2.05488 4.52073,-4.52073l0,-48.35813l2.05488,0l0,18.28841c0,4.93171 6.43862,4.93171 6.30163,0l0,-18.90488c0,-5.20569 -3.15081,-10.54837 -9.45244,-10.54837l-0.00001,0.00001zm58.9065,10.68537l0,18.90488c0,1.78089 -0.82195,3.2878 -2.12337,4.10976c-1.23293,0.68496 -2.73984,0.68496 -4.04126,0c-1.36992,-0.82195 -2.12337,-2.26037 -2.12337,-4.10976l-0.0685,-17.32947l0,47.33069c0,3.01382 -2.46585,5.54817 -5.54817,5.54817s-5.54817,-2.46585 -5.54817,-5.54817l0,-25.54898l-0.0685,0l0,25.54898c0,3.01382 -2.46585,5.54817 -5.54817,5.54817c-3.01382,0 -5.54817,-2.46585 -5.54817,-5.54817l0,-47.33069l-0.0685,0l0,17.32947c0,6.02764 -8.28801,6.02764 -8.28801,0l0,-19.04187c0,-6.7126 4.38374,-11.50732 10.34289,-11.50732l6.57561,0c-4.04126,-0.89045 -7.05508,-4.52073 -7.05508,-8.83598c0,-5.0002 4.10976,-9.10996 9.10996,-9.10996c5.0002,0 9.10996,4.10976 9.10996,9.10996c0,4.24675 -3.01382,7.94553 -7.05508,8.83598l7.60305,0c6.98659,-0.0685 10.34289,6.02764 10.34289,11.64431l-0.00001,0zm-20.06931,-13.28821c3.90427,0 7.12358,-3.21931 7.12358,-7.12358s-3.21931,-7.12358 -7.12358,-7.12358c-3.90427,0 -7.12358,3.21931 -7.12358,7.12358s3.21931,7.12358 7.12358,7.12358zm18.08293,13.28821c0,-4.65772 -2.67134,-9.72642 -8.56199,-9.72642l-18.15142,0c-4.93171,0 -8.3565,3.90427 -8.3565,9.52093l0,19.04187c0,1.84939 1.16443,2.67134 2.26037,2.67134c1.09593,0 2.26037,-0.82195 2.26037,-2.67134l0,-19.31585l4.04126,0l0,49.24858c0,1.98638 1.57541,3.56179 3.56179,3.56179s3.56179,-1.57541 3.56179,-3.56179l0,-27.53537l3.90427,0l0,27.53537c0,1.98638 1.57541,3.56179 3.56179,3.56179c1.98638,0 3.56179,-1.57541 3.56179,-3.56179l0,-49.24858l3.90427,0l0,19.31585c0,1.16443 0.47947,1.98638 1.16443,2.39736c0.61646,0.34248 1.43841,0.34248 2.12337,0c0.68496,-0.47947 1.16443,-1.23293 1.16443,-2.39736l0,-18.90488l0,0l0,0.0685l-0.00002,0zm50.34451,0l0,18.90488c0,1.78089 -0.82195,3.2878 -2.12337,4.10976c-1.23293,0.68496 -2.73984,0.68496 -4.04126,0c-1.36992,-0.82195 -2.12337,-2.26037 -2.12337,-4.10976l-0.0685,-17.32947l0,47.33069c0,3.01382 -2.46585,5.54817 -5.54817,5.54817s-5.54817,-2.46585 -5.54817,-5.54817l0,-25.54898l-0.0685,0l0,25.54898c0,3.01382 -2.46585,5.54817 -5.54817,5.54817c-3.01382,0 -5.54817,-2.46585 -5.54817,-5.54817l0,-47.33069l-0.0685,0l0,17.32947c0,6.02764 -8.28801,6.02764 -8.28801,0l0,-19.04187c0,-6.7126 4.38374,-11.50732 10.34289,-11.50732l6.57561,0c-4.04126,-0.89045 -7.05508,-4.52073 -7.05508,-8.83598c0,-5.0002 4.10976,-9.10996 9.10996,-9.10996c5.0002,0 9.10996,4.10976 9.10996,9.10996c0,4.24675 -3.01382,7.94553 -7.05508,8.83598l7.60305,0c6.98659,-0.0685 10.34289,6.02764 10.34289,11.64431l-0.00001,0zm-20.00081,-13.28821c3.90427,0 7.12358,-3.21931 7.12358,-7.12358s-3.21931,-7.12358 -7.12358,-7.12358s-7.12358,3.21931 -7.12358,7.12358c-0.0685,3.90427 3.15081,7.12358 7.12358,7.12358zm18.01443,13.28821c0,-4.65772 -2.67134,-9.72642 -8.56199,-9.72642l-18.15142,0c-4.93171,0 -8.3565,3.90427 -8.3565,9.52093l0,19.04187c0,1.84939 1.16443,2.67134 2.26037,2.67134s2.26037,-0.82195 2.26037,-2.67134l0,-19.31585l4.04126,0l0,49.24858c0,1.98638 1.57541,3.56179 3.56179,3.56179s3.56179,-1.57541 3.56179,-3.56179l0,-27.53537l3.90427,0l0,27.53537c0,1.98638 1.57541,3.56179 3.56179,3.56179s3.56179,-1.57541 3.56179,-3.56179l0,-49.24858l3.90427,0l0,19.31585c0,1.16443 0.47947,1.98638 1.16443,2.39736c0.61646,0.34248 1.43841,0.34248 2.12337,0c0.68496,-0.47947 1.16443,-1.23293 1.16443,-2.39736l0,-18.90488l0,0l0,0.0685l-0.00002,0z"/>
  </g>
 </g>

</svg>