<?xml version="1.0" encoding="utf-8"?>

<!DOCTYPE svg PUBLIC "-//W3C//DTD SVG 1.1//EN" "http://www.w3.org/Graphics/SVG/1.1/DTD/svg11.dtd">
<!-- Uploaded to: SVG Repo, www.svgrepo.com, Generator: SVG Repo Mixer Tools -->
<svg height="800px" width="800px" version="1.1" id="_x32_" xmlns="http://www.w3.org/2000/svg" xmlns:xlink="http://www.w3.org/1999/xlink" 
	 viewBox="0 0 512 512"  xml:space="preserve">
<style type="text/css">
	.st0{fill:#000000;}
</style>
<g>
	<path class="st0" d="M226.149,268.036c-4.527,0-8.191,3.664-8.191,8.183c0,4.518,3.664,8.182,8.191,8.182
		c4.519,0,8.182-3.664,8.182-8.182C234.332,271.7,230.668,268.036,226.149,268.036z"/>
	<path class="st0" d="M285.843,268.036c-4.511,0-8.174,3.664-8.174,8.183c0,4.518,3.664,8.182,8.174,8.182
		c4.526,0,8.19-3.664,8.19-8.182C294.033,271.7,290.369,268.036,285.843,268.036z"/>
	<path class="st0" d="M267.555,323.884h-23.118c-2.128,0-3.853,1.725-3.853,3.853c0,2.119,1.726,3.853,3.853,3.853h23.118
		c2.128,0,3.853-1.734,3.853-3.853C271.407,325.609,269.683,323.884,267.555,323.884z"/>
	<polygon class="st0" points="270.628,196.487 270.677,196.438 270.677,175.875 270.628,175.818 241.372,175.818 241.323,175.875 
		241.323,182.258 250.722,182.258 250.722,190.055 241.323,190.055 241.323,196.438 241.372,196.487 	"/>
	<path class="st0" d="M467.123,208.696c0-18.55-44.938-34.677-111.064-42.909L270.348,9.578C267.949,3.779,262.281,0,256.004,0
		c-6.285,0-11.954,3.779-14.353,9.578l-85.71,156.208c-66.118,8.232-111.064,24.359-111.064,42.909
		c0,16.784,36.748,31.572,92.686,40.338c-0.345,11.485-0.329,22.436-0.329,32.147c0,30.734-24.318,30.676-39.869,23.217
		c2.357,18.92,25.993,44.921,47.262,44.921c14.92,0,26.988-5.036,35.294-14.056c3.294,6.515,7.353,12.143,11.428,16.899
		c3.771,4.42,7.567,8.15,10.828,11.288c2.037,1.939,3.828,3.623,5.282,5.052c0,8.568,0,3.015,0,8.347l-0.033,0.279
		c-0.107,0.74-0.822,2.694-2.169,4.855c-1.989,3.294-5.225,7.164-8.676,10.278c-3.41,3.146-7.188,5.513-9.357,6.236
		c-4.453,1.577-10.885,3.22-17.926,5.472c-10.556,3.41-22.773,8.273-32.714,18.049c-4.962,4.872-9.234,11-12.175,18.435
		c-2.95,7.435-4.56,16.118-4.56,26.134c0,2.76,0.124,5.636,0.37,8.618v-0.008c0.23,2.514,1.166,4.461,2.16,5.964
		c1.931,2.793,4.182,4.576,6.844,6.392c4.674,3.081,10.803,5.915,18.583,8.708c23.233,8.281,61.164,15.716,108.188,15.741
		c38.201-0.008,70.455-4.954,93.622-11.214c11.6-3.146,20.9-6.589,27.818-10.146c3.474-1.798,6.35-3.581,8.79-5.717
		c1.232-1.085,2.374-2.26,3.384-3.763c0.994-1.504,1.939-3.451,2.161-5.964c0.246-2.966,0.369-5.834,0.369-8.585
		c0.017-13.35-2.9-24.343-7.952-33.092c-3.77-6.564-8.668-11.781-13.991-15.864c-7.977-6.146-16.801-9.85-24.868-12.619
		c-8.06-2.744-15.503-4.634-20.407-6.49c-1.989-0.724-4.494-2.161-6.983-4.058c-3.746-2.835-7.435-6.729-9.94-10.327
		c-1.258-1.799-2.21-3.524-2.786-4.896c-0.583-1.348-0.706-2.334-0.69-2.415c0-5.332,0,0.221,0-8.356
		c1.462-1.421,3.262-3.105,5.282-5.044c4.905-4.699,11-10.746,16.406-18.419c2.103-2.982,4.042-6.31,5.816-9.817
		c8.314,9.045,20.399,14.105,35.326,14.105c21.278,0,44.906-26.002,47.28-44.921c-15.568,7.459-39.877,7.516-39.877-23.217
		c0-9.71,0.017-20.662-0.329-32.147C430.368,240.276,467.123,225.48,467.123,208.696z M231.571,175.875
		c0.008-5.414,4.379-9.792,9.801-9.8h29.256c5.422,0.008,9.792,4.387,9.801,9.8v20.564c-0.008,5.414-4.388,9.792-9.801,9.801
		h-29.256c-5.414-0.008-9.792-4.387-9.801-9.801V175.875z M245.365,412.24c-1.684,1.634-3.688,3.179-5.833,4.272
		c-2.144,1.084-4.412,1.741-6.885,1.741c-2.817-0.016-6.071-0.812-10.097-3.384c-3.548-2.292-7.664-6.145-12.134-11.896
		c2.736-2.711,5.274-5.61,7.452-8.651c0.09-0.131,0.164-0.271,0.262-0.41l29.37,16.036
		C246.869,410.696,246.162,411.476,245.365,412.24z M289.441,414.869c-4.034,2.572-7.278,3.368-10.097,3.384
		c-2.555,0-4.88-0.69-7.098-1.848c-3.073-1.594-5.776-4.157-7.756-6.465l29.279-15.963c2.218,3.196,4.823,6.252,7.723,9.102
		C297.057,408.774,292.965,412.594,289.441,414.869z M307.474,340.906c-3.172,3.722-6.532,7.033-9.645,10.014
		c-3.122,2.999-5.982,5.587-8.413,8.273l-2.218,2.473v3.319c0,10.4,0,5.8,0,11.864c0.024,2.481,0.509,4.732,1.224,6.876
		l-32.426,17.687l-32.451-17.696c0.731-2.128,1.224-4.363,1.248-6.868c0-6.063,0-1.463,0-11.864v-3.319l-2.226-2.473
		c-2.424-2.686-5.274-5.274-8.396-8.273c-4.674-4.46-9.891-9.702-14.229-15.88c-4.263-6.055-7.632-12.906-9.119-20.851
		c1.216-4.978,1.857-10.409,1.857-16.25c0-15.141,0-30.676,0-42.753c19.988,1.446,41.258,2.234,63.325,2.234
		c22.058,0,43.32-0.789,63.308-2.234c0,12.076,0,27.612,0,42.753c0,5.849,0.641,11.288,1.856,16.275
		C319.197,324.82,313.75,333.562,307.474,340.906z"/>
</g>
</svg>